<svg width="18" height="13" viewBox="0 0 18 13" fill="none" xmlns="http://www.w3.org/2000/svg">
<path d="M13 7.5V8.12623C13 8.25883 12.9449 8.38391 12.8278 8.44608C12.4696 8.63619 11.4624 9 9 9C6.53757 9 5.5304 8.63619 5.1722 8.44608C5.05506 8.38391 5 8.25883 5 8.12623V7.5C5 7.22386 5.22386 7 5.5 7H12.5C12.7761 7 13 7.22386 13 7.5Z" fill="white"/>
<path fill-rule="evenodd" clip-rule="evenodd" d="M0.87868 5.12132C0.316071 5.68393 0 6.44699 0 7.24264V12C0 12.5523 0.447715 13 1 13H3.5C3.77614 13 4 12.7761 4 12.5C4 12.2239 4.22386 12 4.5 12H13.5C13.7761 12 14 12.2239 14 12.5C14 12.7761 14.2239 13 14.5 13H17C17.5523 13 18 12.5523 18 12V7.24264C18 6.44699 17.6839 5.68393 17.1213 5.12132L16.1147 4.11475C16.0387 4.03875 15.9755 3.95099 15.9274 3.85485L14.8292 1.65836C14.321 0.642007 13.2822 0 12.1459 0H5.8541C4.71779 0 3.679 0.642007 3.17082 1.65836L2.07257 3.85485C2.02451 3.95099 1.96125 4.03875 1.88525 4.11475L0.87868 5.12132ZM17 9.6V8H14.2071C14.0745 8 13.9473 7.94732 13.8536 7.85355L13.1249 7.12489C13.0699 7.06993 13.0959 6.97602 13.1713 6.95716L16.6353 6.09118C16.5697 5.99803 16.4959 5.91007 16.4142 5.82843L15.6959 5.11016L14.848 5.3587C14.5282 5.45242 14.1967 5.5 13.8635 5.5H4.13648C3.80328 5.5 3.47178 5.45242 3.15203 5.3587L2.30406 5.11016L1.58579 5.82843C1.50415 5.91006 1.4303 5.99803 1.36471 6.09118L4.82865 6.95716C4.90406 6.97602 4.93007 7.06993 4.87511 7.12489L4.14645 7.85355C4.05268 7.94732 3.9255 8 3.79289 8H1V9.6L2.81678 9.96336C2.8951 9.97902 2.92435 10.0756 2.86788 10.1321L2.29289 10.7071C2.10536 10.8946 1.851 11 1.58579 11H1V12H3.08535C3.29127 11.4174 3.84689 11 4.5 11H13.5C14.1531 11 14.7087 11.4174 14.9146 12H17V11H16.4142C16.149 11 15.8946 10.8946 15.7071 10.7071L15.1321 10.1321C15.0756 10.0756 15.1049 9.97902 15.1832 9.96336L17 9.6ZM13.9348 2.10557L15.0157 4.26747L14.5667 4.39907C14.3383 4.46601 14.1015 4.5 13.8635 4.5H4.13648C3.89848 4.5 3.6617 4.46601 3.4333 4.39907L2.9843 4.26747L4.06525 2.10557C4.40403 1.428 5.09656 1 5.8541 1H12.1459C12.9034 1 13.596 1.428 13.9348 2.10557Z" fill="white"/>
</svg>
