<?xml version="1.0" encoding="UTF-8"?>
<svg width="24px" height="16px" viewBox="0 0 24 16" version="1.1" xmlns="http://www.w3.org/2000/svg" xmlns:xlink="http://www.w3.org/1999/xlink">
    <!-- Generator: Sketch 46 (44423) - http://www.bohemiancoding.com/sketch -->
    <title>money</title>
    <desc>Created with Sketch.</desc>
    <defs></defs>
    <g id="icons" stroke="none" stroke-width="1" fill="none" fill-rule="evenodd">
        <g id="Artboard" transform="translate(-64.000000, -103.000000)" fill-rule="nonzero" fill="#FFFFFF">
            <path d="M65,110 L65,118 L81,118 L81,110 L65,110 Z M64,109 L82,109 L82,119 L64,119 L64,109 Z M75,114 C75,115.104569 74.1045695,116 73,116 C71.8954305,116 71,115.104569 71,114 C71,112.895431 71.8954305,112 73,112 C74.1045695,112 75,112.895431 75,114 Z M73,117 C74.6568542,117 76,115.656854 76,114 C76,112.343146 74.6568542,111 73,111 C71.3431458,111 70,112.343146 70,114 C70,115.656854 71.3431458,117 73,117 Z M87,104 L71,104 L71,108 L70,108 L70,103 L88,103 L88,113 L83,113 L83,112 L87,112 L87,104 Z M76,108 C76,106.343146 77.3431458,105 79,105 C80.6568542,105 82,106.343146 82,108 L81,108 C81,106.895431 80.1045695,106 79,106 C77.8954305,106 77,106.895431 77,108 L76,108 Z" id="money"></path>
        </g>
    </g>
</svg>