<?xml version="1.0" encoding="iso-8859-1"?>
<!-- Generator: Adobe Illustrator 19.0.0, SVG Export Plug-In . SVG Version: 6.00 Build 0)  -->
<svg xmlns="http://www.w3.org/2000/svg" xmlns:xlink="http://www.w3.org/1999/xlink" version="1.1" id="Layer_1" x="0px" y="0px" viewBox="0 0 511.998 511.998" style="enable-background:new 0 0 511.998 511.998;" xml:space="preserve" width="512" height="512">
<g id="XMLID_951_">
	<circle id="XMLID_20_" style="fill:#4DBAF6;" cx="255.998" cy="255.997" r="246"/>
	<circle id="XMLID_19_" style="fill:#EDF2FA;" cx="255.998" cy="255.997" r="192"/>
	<circle id="XMLID_1084_" style="fill:#FFB954;" cx="255.871" cy="255.997" r="24"/>
	<path id="XMLID_1051_" style="fill:#FF5D5D;" d="M348.816,344.762H162.925c-3.896,0-7.054,3.158-7.054,7.054v41.891   c0,3.896,3.158,7.054,7.054,7.054h185.891c3.896,0,7.054-3.158,7.054-7.054v-41.891   C355.871,347.92,352.712,344.762,348.816,344.762z"/>
	<g id="XMLID_234_">
		<path id="XMLID_237_" d="M255.998,457.997c111.383,0,202-90.617,202-202s-90.617-202-202-202s-202,90.617-202,202    S144.614,457.997,255.998,457.997z M159.875,410.473c0.991,0.18,2.008,0.289,3.05,0.289h185.892c1.159,0,2.291-0.118,3.386-0.34    c-27.93,17.463-60.907,27.575-96.205,27.575C220.734,437.997,187.787,427.905,159.875,410.473z M345.871,354.762v36h-30v-36    H345.871z M295.871,390.762h-30v-36h30V390.762z M245.871,390.762h-30v-36h30V390.762z M195.871,390.762h-30v-36h30V390.762z     M363.042,403.092c1.784-2.695,2.829-5.918,2.829-9.385v-41.892c0-9.404-7.65-17.054-17.054-17.054H162.925    c-9.404,0-17.054,7.65-17.054,17.054v41.892c0,3.327,0.972,6.425,2.626,9.052c-23.983-17.615-43.516-40.948-56.552-67.986    l14.943-6.19c5.103-2.113,7.526-7.963,5.412-13.065c-2.113-5.103-7.964-7.526-13.065-5.412l-14.955,6.195    c-5.594-15.883-9.049-32.765-10.004-50.304h48.722c5.523,0,10-4.477,10-10c0-5.523-4.477-10-10-10H74.276    c0.954-17.539,4.409-34.421,10.004-50.304l14.959,6.196c1.251,0.519,2.547,0.764,3.823,0.764c3.924,0,7.647-2.325,9.243-6.176    c2.113-5.102-0.31-10.952-5.412-13.065l-14.947-6.191c7.496-15.548,17.146-29.867,28.548-42.585l13.843,13.843    c1.953,1.953,4.512,2.929,7.071,2.929s5.119-0.976,7.071-2.929c3.905-3.905,3.905-10.237,0-14.143l-13.843-13.843    c12.718-11.402,27.037-21.052,42.585-28.548l6.191,14.947c1.595,3.851,5.318,6.176,9.243,6.176c1.275,0,2.572-0.245,3.823-0.764    c5.103-2.113,7.526-7.963,5.412-13.065l-6.196-14.959c15.883-5.594,32.765-9.049,50.304-10.004v42.722c0,5.523,4.477,10,10,10    s10-4.477,10-10V74.276c17.539,0.954,34.421,4.409,50.304,10.004l-6.196,14.959c-2.114,5.102,0.31,10.952,5.412,13.065    c1.251,0.519,2.547,0.764,3.823,0.764c3.924,0,7.647-2.325,9.243-6.176l6.191-14.947c15.548,7.496,29.867,17.146,42.585,28.548    L365.953,131.9c-3.905,3.905-3.905,10.237,0,14.143c1.953,1.953,4.512,2.929,7.071,2.929s5.119-0.976,7.071-2.929l11.406-11.406    c11.402,12.718,21.052,27.037,28.548,42.585l-14.943,6.19c-5.103,2.113-7.526,7.963-5.412,13.065    c1.595,3.851,5.318,6.176,9.243,6.176c1.275,0,2.572-0.245,3.823-0.764l14.955-6.195c5.594,15.883,9.049,32.765,10.004,50.304    h-43.722c-5.523,0-10,4.477-10,10c0,5.523,4.477,10,10,10h43.722c-0.954,17.539-4.409,34.421-10.004,50.304l-14.958-6.196    c-5.101-2.113-10.952,0.309-13.065,5.412c-2.114,5.102,0.31,10.952,5.412,13.065l14.945,6.191    C406.932,361.982,387.233,385.439,363.042,403.092z"/>
		<path id="XMLID_245_" d="M330.939,166.913l-59.086,59.086c-4.768-2.55-10.208-4.002-15.983-4.002c-18.748,0-34,15.252-34,34    c0,5.774,1.451,11.215,4.002,15.983l-5.226,5.226c-3.905,3.905-3.905,10.237,0,14.143c1.953,1.953,4.512,2.929,7.071,2.929    s5.119-0.976,7.071-2.929l5.267-5.267c4.728,2.495,10.107,3.916,15.815,3.916c18.748,0,34-15.252,34-34    c0-5.707-1.42-11.087-3.916-15.815l59.127-59.127c3.905-3.905,3.905-10.237,0-14.143S334.844,163.008,330.939,166.913z     M255.871,269.997c-7.72,0-14-6.28-14-14c0-7.72,6.28-14,14-14s14,6.28,14,14C269.871,263.717,263.59,269.997,255.871,269.997z"/>
		<path id="XMLID_246_" d="M437.017,74.978C393.832,31.793,336.558,5.433,275.745,0.756c-60.145-4.625-120.114,12.101-168.852,47.1    c-4.486,3.222-5.511,9.47-2.29,13.956c3.222,4.486,9.47,5.511,13.956,2.29C212.751-3.541,340.734,6.98,422.875,89.12    c92.016,92.016,92.016,241.738,0,333.754c-92.017,92.016-241.739,92.016-333.754,0C6.894,340.648-3.568,212.58,64.245,118.358    c3.226-4.482,2.208-10.731-2.275-13.958c-4.482-3.227-10.732-2.209-13.958,2.275C12.931,155.417-3.854,215.415,0.746,275.617    c4.651,60.861,31.014,118.181,74.232,161.399c48.352,48.352,112.639,74.98,181.02,74.98s132.667-26.629,181.02-74.98    c48.352-48.352,74.98-112.64,74.98-181.02C511.998,187.617,485.369,123.33,437.017,74.978z"/>
		<path id="XMLID_247_" d="M82.049,92.049c2.565,0,5.13-0.981,7.083-2.941l0.375-0.374c3.919-3.891,3.941-10.223,0.05-14.142    c-3.892-3.919-10.223-3.941-14.142-0.05l-0.45,0.449c-3.898,3.912-3.887,10.244,0.025,14.142    C76.942,91.077,79.496,92.049,82.049,92.049z"/>
	</g>
</g>















</svg>
