<?xml version="1.0" encoding="iso-8859-1"?>
<!-- Generator: Adobe Illustrator 19.0.0, SVG Export Plug-In . SVG Version: 6.00 Build 0)  -->
<svg xmlns="http://www.w3.org/2000/svg" xmlns:xlink="http://www.w3.org/1999/xlink" version="1.1" id="Layer_1" x="0px" y="0px" viewBox="0 0 511.998 511.998" style="enable-background:new 0 0 511.998 511.998;" xml:space="preserve" width="512" height="512">
<g id="XMLID_994_">
	<circle id="XMLID_2197_" style="fill:#FFC66C;" cx="255.998" cy="255.997" r="246"/>
	<circle id="XMLID_2196_" style="fill:#FFFFFF;" cx="255.998" cy="255.997" r="200"/>
	<g id="XMLID_2143_">
		<path id="XMLID_2149_" style="fill:#72D8FF;" d="M220.269,246.134H112.118h0c-9.905,0-17.935,8.03-17.935,17.935v20.287    c0,5.559,4.507,10.066,10.066,10.066h123.89c5.559,0,10.066-4.507,10.066-10.066v-20.287    C238.205,254.164,230.175,246.134,220.269,246.134L220.269,246.134z"/>
		<path id="XMLID_2148_" style="fill:#C9F3FF;" d="M220.269,246.134l-9.798-39.894c-2.102-8.559-9.776-14.576-18.589-14.576h-51.377    c-8.813,0-16.487,6.017-18.589,14.576l-9.798,39.894H220.269z"/>
	</g>
	<g id="XMLID_918_">
		<path id="XMLID_924_" style="fill:#36D28F;" d="M291.726,246.134h108.152h0c9.905,0,17.935,8.03,17.935,17.935v20.287    c0,5.559-4.507,10.066-10.066,10.066h-123.89c-5.559,0-10.066-4.507-10.066-10.066v-20.287    C273.791,254.164,281.82,246.134,291.726,246.134L291.726,246.134z"/>
		<path id="XMLID_923_" style="fill:#C9F3FF;" d="M291.726,246.134l9.798-39.894c2.102-8.559,9.776-14.576,18.589-14.576h51.377    c8.813,0,16.487,6.017,18.589,14.576l9.798,39.894H291.726z"/>
	</g>
	<g id="XMLID_1015_">
		<path id="XMLID_1018_" d="M266.729,455.991c-0.003-5.521-4.544-9.995-10.064-9.995c-0.007,0-0.015,0-0.022,0    c-5.521,0.012-10.051,4.496-10.042,10.017c0.009,5.517,4.548,9.983,10.064,9.983c0.004,0,0.008,0,0.011,0    C262.196,465.99,266.732,461.511,266.729,455.991z"/>
		<path id="XMLID_1019_" d="M302.474,460.834c45.717-10.331,87.22-36.201,116.866-72.845    c30.087-37.189,46.657-84.065,46.657-131.992c0-115.794-94.206-210-210-210s-210,94.206-210,210    c0,49.522,17.567,97.605,49.466,135.391c31.518,37.334,75.21,62.645,123.03,71.268c0.6,0.108,1.197,0.16,1.787,0.16    c4.746,0,8.958-3.392,9.83-8.227c0.98-5.436-2.631-10.636-8.066-11.616c-90.419-16.306-156.046-94.941-156.046-186.977    c0-104.767,85.233-190,190-190s190,85.233,190,190c0,88.016-62.214,165.959-147.932,185.329c-5.387,1.217-8.767,6.571-7.55,11.958    C291.734,458.673,297.089,462.054,302.474,460.834z"/>
		<path id="XMLID_1023_" d="M209.641,320.331c5.523,0,10-4.477,10-10v-5.908h8.498c11.064,0,20.066-9.002,20.066-20.066v-20.287    c0-12.573-8.351-23.229-19.796-26.722l-0.864-3.516h1.619c5.523,0,10-4.477,10-10s-4.477-10-10-10h-6.531l-2.45-9.976    c-3.209-13.065-14.847-22.191-28.301-22.191h-51.377c-13.454,0-25.091,9.125-28.3,22.191l-2.45,9.976h-6.532    c-5.523,0-10,4.477-10,10s4.477,10,10,10h1.62l-0.864,3.516c-11.446,3.493-19.797,14.149-19.797,26.722v20.287    c0,11.064,9.002,20.066,20.066,20.066h8.498v5.908c0,5.523,4.477,10,10,10c5.523,0,10-4.477,10-10v-5.908h66.895v5.908    C199.641,315.854,204.118,320.331,209.641,320.331z M140.505,201.664h51.377c4.221,0,7.871,2.863,8.878,6.961l6.756,27.509    h-82.645l6.756-27.509C132.634,204.527,136.285,201.664,140.505,201.664z M104.182,284.356v-20.287    c0-4.375,3.56-7.935,7.936-7.935h108.086c0.019,0,0.038,0.002,0.058,0.002c0.009,0,0.017-0.002,0.026-0.002    c4.367,0.01,7.917,3.565,7.917,7.934v20.287l-0.066,0.066L104.182,284.356z"/>
		<path id="XMLID_1107_" d="M283.857,304.423h8.498v5.908c0,5.523,4.477,10,10,10s10-4.477,10-10v-5.908h66.895v5.908    c0,5.523,4.477,10,10,10s10-4.477,10-10v-5.908h8.498c11.064,0,20.066-9.002,20.066-20.066v-20.287    c0-12.573-8.351-23.229-19.797-26.722l-0.864-3.516h1.62c5.523,0,10-4.477,10-10s-4.477-10-10-10h-6.532l-2.45-9.976    c-3.209-13.065-14.847-22.191-28.3-22.191h-51.377c-13.454,0-25.092,9.125-28.301,22.191l-2.45,9.976h-6.531    c-5.523,0-10,4.477-10,10s4.477,10,10,10h1.619l-0.864,3.516c-11.445,3.493-19.796,14.149-19.796,26.722v20.287    C263.791,295.421,272.792,304.423,283.857,304.423z M407.747,284.423l-123.955-0.042c0-0.002-0.001-0.01-0.001-0.024v-20.287    c0-4.375,3.56-7.935,7.935-7.935h108.086c0.019,0,0.038,0.002,0.058,0.002c0.009,0,0.017-0.002,0.026-0.002    c4.367,0.01,7.918,3.565,7.918,7.934L407.747,284.423z M320.113,201.664h51.377c4.22,0,7.871,2.863,8.877,6.961l6.756,27.509    h-82.645l6.756-27.509C312.242,204.527,315.893,201.664,320.113,201.664z"/>
		<path id="XMLID_1112_" d="M437.017,74.978C393.832,31.793,336.558,5.433,275.745,0.756c-60.146-4.625-120.115,12.101-168.852,47.1    c-4.486,3.222-5.511,9.47-2.29,13.956c3.222,4.486,9.47,5.511,13.956,2.29C212.751-3.541,340.734,6.98,422.875,89.12    c92.016,92.016,92.016,241.738,0,333.754c-92.017,92.016-241.739,92.016-333.754,0C6.894,340.648-3.568,212.58,64.245,118.358    c3.226-4.482,2.208-10.731-2.275-13.958c-4.482-3.227-10.731-2.209-13.958,2.275C12.931,155.417-3.854,215.415,0.746,275.617    c4.651,60.861,31.014,118.181,74.232,161.399c48.352,48.352,112.639,74.98,181.02,74.98s132.667-26.629,181.02-74.98    c48.352-48.352,74.98-112.64,74.98-181.02C511.998,187.617,485.369,123.33,437.017,74.978z"/>
		<path id="XMLID_1115_" d="M82.049,92.049c2.565,0,5.13-0.981,7.083-2.941l0.375-0.374c3.919-3.891,3.941-10.223,0.05-14.142    c-3.892-3.919-10.223-3.941-14.142-0.05l-0.45,0.449c-3.898,3.912-3.887,10.244,0.025,14.142    C76.942,91.077,79.496,92.049,82.049,92.049z"/>
		<path id="XMLID_1117_" d="M176.193,151.997v-24c0-5.523-4.477-10-10-10s-10,4.477-10,10v24c0,5.523,4.477,10,10,10    S176.193,157.52,176.193,151.997z"/>
		<path id="XMLID_1209_" d="M335.802,336.997v31.765c0,5.523,4.477,10,10,10s10-4.477,10-10v-31.765c0-5.523-4.477-10-10-10    S335.802,331.474,335.802,336.997z"/>
	</g>
</g>















</svg>
