<?xml version="1.0" encoding="iso-8859-1"?>
<!-- Generator: Adobe Illustrator 19.0.0, SVG Export Plug-In . SVG Version: 6.00 Build 0)  -->
<svg xmlns="http://www.w3.org/2000/svg" xmlns:xlink="http://www.w3.org/1999/xlink" version="1.1" id="Layer_1" x="0px" y="0px" viewBox="0 0 512 512" style="enable-background:new 0 0 512 512;" xml:space="preserve" width="512" height="512">
<g id="XMLID_1024_">
	<path id="XMLID_1271_" style="fill:#C9F3FF;" d="M462,50H50c-22.091,0-40,17.909-40,40v332c0,22.091,17.909,40,40,40h412   c22.091,0,40-17.909,40-40V90C502,67.909,484.091,50,462,50z"/>
	<rect id="XMLID_1239_" x="54" y="98" style="fill:#FFFFFF;" width="404" height="316"/>
	<rect id="XMLID_1579_" x="315" y="256.127" style="fill:#FFFFFF;" width="143" height="157.873"/>
	<path id="XMLID_2285_" style="fill:#72D8FF;" d="M54,225c104.215,0,189,84.785,189,189H54V225z"/>
	<rect id="XMLID_2257_" x="315" y="98" style="fill:#72D8FF;" width="143" height="94.127"/>
	<path id="XMLID_1368_" style="fill:#898998;" d="M315,414V256.127h143v-64H315V98h-72v124.605C192.332,172.555,125.287,145,54,145   v80c104.215,0,189,84.785,189,189H315z"/>
	<path id="XMLID_2987_" style="fill:#4DBAF6;" d="M363.612,336.612C363.612,310.317,342.295,289,316,289   s-47.612,21.317-47.612,47.612c0,11.399,4.008,21.86,10.688,30.057h-0.003L316,414l36.751-47.083l-0.028,0   C359.525,358.684,363.612,348.125,363.612,336.612z"/>
	<g id="XMLID_840_">
		<path id="XMLID_843_" d="M462,40H50C22.43,40,0,62.43,0,90v332c0,27.57,22.43,50,50,50h33.667c5.523,0,10-4.477,10-10    s-4.477-10-10-10H50c-16.542,0-30-13.458-30-30V90c0-16.542,13.458-30,30-30h412c16.542,0,30,13.458,30,30v332    c0,16.542-13.458,30-30,30H163.667c-5.523,0-10,4.477-10,10s4.477,10,10,10H462c27.57,0,50-22.43,50-50V90    C512,62.43,489.57,40,462,40z"/>
		<path id="XMLID_844_" d="M123.67,452c-2.64,0-5.21,1.07-7.08,2.93c-1.86,1.86-2.92,4.44-2.92,7.07c0,2.63,1.06,5.21,2.92,7.07    c1.87,1.86,4.44,2.93,7.08,2.93c2.63,0,5.21-1.07,7.07-2.93s2.93-4.44,2.93-7.07c0-2.63-1.07-5.21-2.93-7.07    C128.88,453.07,126.3,452,123.67,452z"/>
		<path id="XMLID_1127_" d="M346.5,108c5.523,0,10-4.477,10-10s-4.477-10-10-10H315h-72H54c-5.523,0-10,4.477-10,10v316    c0,5.523,4.477,10,10,10h261.999H316h142c5.523,0,10-4.477,10-10V98c0-5.523-4.477-10-10-10h-31.5c-5.523,0-10,4.477-10,10    s4.477,10,10,10H448v74.127H325V108H346.5z M233,108v91.98c-47.589-39.934-106.551-62.599-169-64.79V108H233z M64,235.284    c90.755,5.023,163.693,77.96,168.716,168.716H64V235.284z M316,299c20.739,0,37.612,16.873,37.612,37.612    c0,8.724-3.054,17.225-8.598,23.936c-0.201,0.243-0.388,0.494-0.563,0.751l-28.449,36.447l-28.899-37.042    c-0.089-0.119-0.18-0.236-0.274-0.352c-5.521-6.774-8.44-14.983-8.44-23.739C278.388,315.873,295.261,299,316,299z M336.491,404    l24.143-30.93c0.092-0.118,0.182-0.238,0.268-0.359c8.202-10.195,12.71-22.984,12.71-36.099c0-28.706-21.105-52.57-48.612-56.904    v-13.581h123V404H336.491z M315,202.127h133v44H315c-5.523,0-10,4.477-10,10v23.939c-26.522,5.15-46.612,28.541-46.612,56.546    c0,13.135,4.535,25.971,12.775,36.175c0.009,0.011,0.017,0.022,0.026,0.033L295.515,404h-42.764    C247.688,302.214,165.785,220.314,64,215.248v-60.06c63.46,2.399,122.992,27.61,169,71.662v19.287c0,5.523,4.477,10,10,10    s10-4.477,10-10v-23.531V108h52v84.127C305,197.65,309.477,202.127,315,202.127z"/>
		<path id="XMLID_1155_" d="M393.57,105.07c1.86-1.86,2.93-4.44,2.93-7.07c0-2.63-1.07-5.21-2.93-7.07    c-1.86-1.86-4.44-2.93-7.07-2.93c-2.63,0-5.21,1.07-7.07,2.93c-1.86,1.86-2.93,4.44-2.93,7.07c0,2.63,1.07,5.21,2.93,7.07    c1.86,1.86,4.44,2.93,7.07,2.93C389.13,108,391.71,106.93,393.57,105.07z"/>
	</g>
</g>















</svg>
