<?xml version="1.0" encoding="iso-8859-1"?>
<!-- Generator: Adobe Illustrator 19.0.0, SVG Export Plug-In . SVG Version: 6.00 Build 0)  -->
<svg xmlns="http://www.w3.org/2000/svg" xmlns:xlink="http://www.w3.org/1999/xlink" version="1.1" id="Layer_1" x="0px" y="0px" viewBox="0 0 511.994 511.994" style="enable-background:new 0 0 511.994 511.994;" xml:space="preserve" width="512" height="512">
<g id="XMLID_2365_">
	<circle id="XMLID_2367_" style="fill:#FFB954;" cx="255.952" cy="207.994" r="198"/>
	<circle id="XMLID_2368_" style="fill:#FFFFFF;" cx="255.952" cy="207.994" r="154"/>
	<rect id="XMLID_1381_" x="231.952" y="405.994" style="fill:#4DBAF6;" width="48" height="96"/>
	<g id="XMLID_327_">
		<path id="XMLID_330_" d="M255.952,43.994c-90.43,0-164,73.57-164,164s73.57,164,164,164s164-73.57,164-164    S346.382,43.994,255.952,43.994z M255.952,351.994c-79.402,0-144-64.598-144-144s64.598-144,144-144s144,64.598,144,144    S335.354,351.994,255.952,351.994z"/>
		<path id="XMLID_331_" d="M164.374,207.994c0-42.777,29.484-78.794,69.196-88.807c0.062,2.475,1.028,4.931,2.917,6.82    c1.953,1.953,4.512,2.929,7.071,2.929c2.559,0,5.119-0.977,7.071-2.929l12.521-12.521c1.875-1.875,2.929-4.419,2.929-7.071    s-1.054-5.196-2.929-7.071l-12.521-12.521c-3.905-3.905-10.237-3.905-14.143,0c-3.15,3.15-3.755,7.878-1.823,11.638    c-51.376,9.966-90.29,55.287-90.29,109.532c0,5.523,4.477,10,10,10S164.374,213.517,164.374,207.994z"/>
		<path id="XMLID_332_" d="M301.741,287.303c-21.185,12.231-45.865,15.479-69.491,9.149c-16.241-4.352-30.65-12.872-42.043-24.655    c2.125-1.29,3.781-3.362,4.476-5.953c1.43-5.335-1.736-10.818-7.071-12.248l-17.104-4.583c-2.561-0.687-5.292-0.328-7.588,0.999    c-2.297,1.326-3.973,3.51-4.659,6.072l-4.583,17.104c-1.43,5.335,1.736,10.818,7.071,12.248c0.867,0.232,1.738,0.343,2.595,0.343    c3.388,0,6.55-1.739,8.381-4.565c14.455,16.699,33.544,28.712,55.35,34.555c9.613,2.576,19.367,3.85,29.06,3.85    c19.333,0,38.416-5.071,55.608-14.997c4.783-2.761,6.422-8.877,3.66-13.66C312.64,286.179,306.523,284.541,301.741,287.303z"/>
		<path id="XMLID_807_" d="M311.741,111.364c-4.783-2.76-10.898-1.123-13.66,3.66c-2.762,4.783-1.123,10.899,3.66,13.66    c21.185,12.23,36.338,31.979,42.669,55.607c4.352,16.241,4.177,32.979-0.33,48.736c-2.18-1.196-4.803-1.593-7.394-0.898    c-5.334,1.429-8.5,6.913-7.071,12.248l4.583,17.104c1.197,4.468,5.237,7.414,9.653,7.414c0.856,0,1.728-0.111,2.595-0.343    l17.104-4.583c5.334-1.429,8.5-6.913,7.071-12.248c-1.151-4.294-4.93-7.181-9.143-7.397c7.233-20.867,8.093-43.404,2.25-65.209    C356.014,150.327,337.552,126.266,311.741,111.364z"/>
		<path id="XMLID_808_" d="M429.808,93.737c-3.038-4.612-9.24-5.889-13.852-2.851c-4.612,3.038-5.889,9.239-2.851,13.852    c48.772,74.054,38.588,173.387-24.216,236.192c-73.301,73.301-192.571,73.302-265.873,0c-73.301-73.301-73.301-192.571,0-265.872    C185.894,12.179,285.304,2.045,359.388,50.96c4.609,3.043,10.812,1.774,13.855-2.835c3.043-4.609,1.773-10.812-2.835-13.855    C331.008,8.256,283.279-3.582,236.02,0.945c-47.905,4.586-93.06,25.883-127.147,59.97c-81.099,81.099-81.099,213.057,0,294.157    c31.89,31.89,71.645,51.231,113.079,58.042v88.88c0,5.523,4.477,10,10,10s10-4.477,10-10v-86h28v86c0,5.523,4.477,10,10,10    s10-4.477,10-10v-88.88c41.433-6.81,81.188-26.152,113.078-58.042c34.057-34.057,55.351-79.171,59.959-127.032    C467.535,180.825,455.751,133.128,429.808,93.737z"/>
		<path id="XMLID_809_" d="M395.962,77.983c2.63,0,5.21-1.06,7.07-2.93c1.86-1.86,2.93-4.43,2.93-7.07c0-2.63-1.07-5.21-2.93-7.07    c-1.86-1.86-4.44-2.93-7.07-2.93c-2.64,0-5.21,1.07-7.07,2.93c-1.86,1.86-2.93,4.44-2.93,7.07c0,2.64,1.07,5.21,2.93,7.07    C390.752,76.923,393.332,77.983,395.962,77.983z"/>
	</g>
</g>















</svg>
