<?xml version="1.0" encoding="iso-8859-1"?>
<!-- Generator: Adobe Illustrator 19.0.0, SVG Export Plug-In . SVG Version: 6.00 Build 0)  -->
<svg xmlns="http://www.w3.org/2000/svg" xmlns:xlink="http://www.w3.org/1999/xlink" version="1.1" id="Layer_1" x="0px" y="0px" viewBox="0 0 512 512" style="enable-background:new 0 0 512 512;" xml:space="preserve" width="512" height="512">
<g id="XMLID_1253_">
	<path id="XMLID_2409_" style="fill:#36D28F;" d="M93.5,406h325c16.292,0,29.5-13.208,29.5-29.5v-337   c0-16.292-13.208-29.5-29.5-29.5l-325,0C77.208,10,64,23.208,64,39.5v337C64,392.792,77.208,406,93.5,406z"/>
	<rect id="XMLID_1461_" x="232" y="406" style="fill:#4DBAF6;" width="48" height="96"/>
	<rect id="XMLID_2410_" x="108" y="54" style="fill:#FFFFFF;" width="296" height="308"/>
	<g id="XMLID_315_">
		<path id="XMLID_316_" d="M418.5,0h-325C71.72,0,54,17.72,54,39.5v219.399c0,5.523,4.478,10,10,10s10-4.477,10-10V39.5    C74,28.748,82.748,20,93.5,20h325c10.752,0,19.5,8.748,19.5,19.5v337c0,10.752-8.748,19.5-19.5,19.5H280h-48H93.5    c-10.752,0-19.5-8.748-19.5-19.5v-37.601c0-5.523-4.478-10-10-10s-10,4.477-10,10V376.5c0,21.78,17.72,39.5,39.5,39.5H222v86    c0,5.523,4.478,10,10,10s10-4.477,10-10v-86h28v86c0,5.523,4.478,10,10,10s10-4.477,10-10v-86h128.5c21.78,0,39.5-17.72,39.5-39.5    v-337C458,17.72,440.28,0,418.5,0z"/>
		<path id="XMLID_317_" d="M64,308.9c2.63,0,5.21-1.07,7.069-2.93c1.86-1.86,2.931-4.44,2.931-7.07s-1.07-5.21-2.931-7.07    c-1.859-1.86-4.439-2.93-7.069-2.93s-5.21,1.07-7.07,2.93c-1.86,1.86-2.93,4.44-2.93,7.07s1.069,5.21,2.93,7.07    S61.37,308.9,64,308.9z"/>
		<path id="XMLID_318_" d="M404,131.67c-2.63,0-5.21,1.06-7.07,2.93c-1.86,1.86-2.93,4.43-2.93,7.07c0,2.63,1.069,5.21,2.93,7.07    s4.44,2.93,7.07,2.93s5.21-1.07,7.069-2.93c1.86-1.87,2.931-4.44,2.931-7.07s-1.07-5.21-2.931-7.07    C409.21,132.73,406.63,131.67,404,131.67z"/>
		<path id="XMLID_319_" d="M414,54c0-5.523-4.478-10-10-10H108c-5.522,0-10,4.477-10,10v308c0,5.523,4.478,10,10,10h296    c5.522,0,10-4.477,10-10V181.667c0-5.523-4.478-10-10-10s-10,4.477-10,10V352H118V64h276v37.667c0,5.523,4.478,10,10,10    s10-4.477,10-10V54z"/>
		<path id="XMLID_322_" d="M213.853,125.956c-5.522,0-10,4.477-10,10v79.912v80.088c0,5.523,4.478,10,10,10s10-4.477,10-10v-70.088    h34.34c27.545,0,49.955-22.41,49.955-49.956c0-27.545-22.41-49.956-49.955-49.956H213.853z M288.147,175.912    c0,16.518-13.438,29.956-29.955,29.956h-34.34v-59.912h34.34C274.71,145.956,288.147,159.394,288.147,175.912z"/>
	</g>
</g>















</svg>
