<?xml version="1.0" encoding="iso-8859-1"?>
<!-- Generator: Adobe Illustrator 19.0.0, SVG Export Plug-In . SVG Version: 6.00 Build 0)  -->
<svg xmlns="http://www.w3.org/2000/svg" xmlns:xlink="http://www.w3.org/1999/xlink" version="1.1" id="Layer_1" x="0px" y="0px" viewBox="0 0 512 512" style="enable-background:new 0 0 512 512;" xml:space="preserve" width="512" height="512">
<g id="XMLID_1162_">
	<rect id="XMLID_1204_" x="84" y="10" style="fill:#898998;" width="344" height="492"/>
	<g id="XMLID_1000_">
		<path id="XMLID_46_" d="M428,363c-5.523,0-10-4.477-10-10V10c0-5.523,4.477-10,10-10s10,4.477,10,10v343    C438,358.522,433.523,363,428,363z"/>
	</g>
	<g id="XMLID_999_">
		<path id="XMLID_45_" d="M428,403c-2.63,0-5.21-1.07-7.07-2.93c-1.86-1.86-2.93-4.44-2.93-7.07c0-2.63,1.07-5.21,2.93-7.07    c1.86-1.86,4.44-2.93,7.07-2.93c2.63,0,5.21,1.07,7.07,2.93c1.86,1.86,2.93,4.44,2.93,7.07c0,2.63-1.07,5.21-2.93,7.07    S430.63,403,428,403z"/>
	</g>
	<g id="XMLID_997_">
		<path id="XMLID_44_" d="M428,512c-5.523,0-10-4.477-10-10v-69c0-5.523,4.477-10,10-10s10,4.477,10,10v69    C438,507.523,433.523,512,428,512z"/>
	</g>
	<g id="XMLID_1232_">
		<path id="XMLID_43_" d="M84,512c-5.523,0-10-4.477-10-10V10c0-5.523,4.477-10,10-10s10,4.477,10,10v492    C94,507.523,89.523,512,84,512z"/>
	</g>
	<polygon id="XMLID_1166_" style="fill:#686C83;" points="136,10 136,502 376,502 376,10 300.916,10  "/>
	<g id="XMLID_1165_">
		<path id="XMLID_42_" d="M376,512c-5.523,0-10-4.477-10-10V10c0-5.523,4.477-10,10-10s10,4.477,10,10v492    C386,507.523,381.523,512,376,512z"/>
	</g>
	<g id="XMLID_1001_">
		<path id="XMLID_41_" d="M136,20c-2.63,0-5.21-1.07-7.07-2.93C127.07,15.21,126,12.63,126,10c0-2.63,1.07-5.21,2.93-7.07    C130.79,1.07,133.37,0,136,0c2.63,0,5.21,1.07,7.07,2.93C144.93,4.79,146,7.37,146,10c0,2.63-1.07,5.21-2.93,7.07    S138.63,20,136,20z"/>
	</g>
	<g id="XMLID_998_">
		<path id="XMLID_40_" d="M136,512c-5.523,0-10-4.477-10-10V50c0-5.523,4.477-10,10-10s10,4.477,10,10v452    C146,507.523,141.523,512,136,512z"/>
	</g>
	<g id="XMLID_1163_">
		<path id="XMLID_33_" d="M256,512c-5.523,0-10-4.477-10-10v-32c0-5.523,4.477-10,10-10s10,4.477,10,10v32    C266,507.523,261.523,512,256,512z M256,420c-5.523,0-10-4.477-10-10v-32c0-5.523,4.477-10,10-10s10,4.477,10,10v32    C266,415.523,261.523,420,256,420z M256,328c-5.523,0-10-4.477-10-10v-32c0-5.523,4.477-10,10-10s10,4.477,10,10v32    C266,323.523,261.523,328,256,328z M256,236c-5.523,0-10-4.477-10-10v-32c0-5.523,4.477-10,10-10s10,4.477,10,10v32    C266,231.523,261.523,236,256,236z M256,144c-5.523,0-10-4.477-10-10v-32c0-5.523,4.477-10,10-10s10,4.477,10,10v32    C266,139.523,261.523,144,256,144z M256,52c-5.523,0-10-4.477-10-10V10c0-5.523,4.477-10,10-10s10,4.477,10,10v32    C266,47.523,261.523,52,256,52z"/>
	</g>
</g>















</svg>
