<?xml version="1.0" encoding="iso-8859-1"?>
<!-- Generator: Adobe Illustrator 19.0.0, SVG Export Plug-In . SVG Version: 6.00 Build 0)  -->
<svg xmlns="http://www.w3.org/2000/svg" xmlns:xlink="http://www.w3.org/1999/xlink" version="1.1" id="Layer_1" x="0px" y="0px" viewBox="0 0 512 512" style="enable-background:new 0 0 512 512;" xml:space="preserve" width="512" height="512">
<g id="XMLID_1471_">
	<path id="XMLID_889_" style="fill:#72D8FF;" d="M96,10c-17.673,0-32,14.327-32,32v428c0-17.673,14.327-32,32-32h352V10H96z"/>
	<path id="XMLID_2637_" style="fill:#FFFFFF;" d="M96,438h352v64H96c-17.673,0-32-14.327-32-32v0C64,452.327,78.327,438,96,438z"/>
	<path id="XMLID_841_" style="fill:#FFFFFF;" d="M369.563,72H142.69c-10.252,0-18.563,8.311-18.563,18.563v178.873   c0,10.252,8.311,18.563,18.563,18.563h226.873c10.252,0,18.563-8.311,18.563-18.563V90.563C388.127,80.311,379.816,72,369.563,72z"/>
	<g id="XMLID_2002_">
		<path id="XMLID_2008_" style="fill:#72D8FF;" d="M316.076,170.372H195.924h0c-9.905,0-17.935,8.03-17.935,17.935v40.353h156.022    v-40.353C334.011,178.402,325.981,170.372,316.076,170.372L316.076,170.372z"/>
		<path id="XMLID_2007_" style="fill:#C9F3FF;" d="M316.076,170.372l-9.798-39.894c-2.102-8.559-9.776-14.576-18.589-14.576h-63.377    c-8.813,0-16.487,6.017-18.589,14.576l-9.798,39.894H316.076z"/>
	</g>
	<g id="XMLID_170_">
		<path id="XMLID_384_" d="M177.989,238.66h18.563v4.908c0,5.523,4.478,10,10,10s10-4.477,10-10v-4.908h78.895v4.908    c0,5.523,4.478,10,10,10s10-4.477,10-10v-4.908h18.563c5.522,0,10-4.477,10-10v-40.353c0-8.665-3.966-16.422-10.178-21.55    l2.577-2.577c3.905-3.905,3.905-10.237,0-14.143c-3.906-3.905-10.236-3.905-14.143,0l-0.713,0.713l-5.565-22.658    c-3.209-13.065-14.847-22.191-28.301-22.191h-63.377c-13.454,0-25.092,9.125-28.3,22.19l-5.565,22.659l-0.714-0.714    c-3.906-3.905-10.236-3.905-14.143,0c-3.905,3.905-3.905,10.237,0,14.143l2.577,2.577c-6.212,5.128-10.178,12.884-10.178,21.55    v40.353C167.989,234.183,172.467,238.66,177.989,238.66z M324.011,218.66H187.989v-30.353c0-4.375,3.56-7.936,7.935-7.936h120.087    c0.019,0,0.038,0.002,0.058,0.002c0.008,0,0.017-0.002,0.017-0.002c4.375,0.01,7.925,3.565,7.925,7.935V218.66z M224.312,125.902    h63.377c4.221,0,7.871,2.862,8.878,6.961l6.757,27.509h-94.646l6.757-27.509C216.44,128.764,220.091,125.902,224.312,125.902z"/>
		<path id="XMLID_392_" d="M217,189.52c-2.63,0-5.21,1.06-7.07,2.92c-1.86,1.87-2.93,4.44-2.93,7.08c0,2.63,1.069,5.21,2.93,7.07    s4.44,2.93,7.07,2.93s5.21-1.07,7.069-2.93c1.86-1.86,2.931-4.44,2.931-7.07c0-2.64-1.07-5.21-2.931-7.08    C222.21,190.58,219.63,189.52,217,189.52z"/>
		<path id="XMLID_393_" d="M295,189.52c-2.63,0-5.21,1.06-7.07,2.93c-1.86,1.86-2.93,4.43-2.93,7.07c0,2.63,1.069,5.2,2.93,7.07    c1.86,1.86,4.44,2.93,7.07,2.93s5.21-1.07,7.069-2.93c1.86-1.87,2.931-4.44,2.931-7.07c0-2.64-1.07-5.21-2.931-7.07    C300.21,190.58,297.63,189.52,295,189.52z"/>
		<path id="XMLID_772_" d="M448,0H96C72.841,0,54,18.841,54,42v428c0,23.159,18.841,42,42,42h352c5.522,0,10-4.477,10-10v-64V10    C458,4.477,453.522,0,448,0z M96,20h342v408H96c-8.062,0-15.597,2.288-22,6.242V42C74,29.869,83.869,20,96,20z M438,492H96    c-12.131,0-22-9.869-22-22s9.869-22,22-22h342V492z"/>
		<path id="XMLID_804_" d="M142.69,298h226.873c15.75,0,28.563-12.813,28.563-28.563V90.563c0-15.75-12.813-28.563-28.563-28.563    H235.92c-5.522,0-10,4.477-10,10s4.478,10,10,10h133.644c4.722,0,8.563,3.842,8.563,8.563v178.873    c0,4.722-3.842,8.563-8.563,8.563H142.69c-4.722,0-8.563-3.842-8.563-8.563V90.563c0-4.722,3.842-8.563,8.563-8.563h13.233    c5.522,0,10-4.477,10-10s-4.478-10-10-10H142.69c-15.75,0-28.563,12.813-28.563,28.563v178.873    C114.127,285.187,126.94,298,142.69,298z"/>
		<path id="XMLID_811_" d="M195.92,82c2.63,0,5.21-1.07,7.07-2.93c1.859-1.86,2.93-4.43,2.93-7.07c0-2.63-1.07-5.21-2.93-7.07    c-1.86-1.86-4.44-2.93-7.07-2.93s-5.21,1.07-7.07,2.93c-1.859,1.86-2.93,4.44-2.93,7.07c0,2.64,1.07,5.21,2.93,7.07    C190.71,80.93,193.29,82,195.92,82z"/>
		<path id="XMLID_814_" d="M313.717,343.05h-155.18c-5.522,0-10,4.477-10,10s4.478,10,10,10h155.18c5.522,0,10-4.477,10-10    S319.239,343.05,313.717,343.05z"/>
		<path id="XMLID_870_" d="M353.72,343.05c-2.64,0-5.21,1.07-7.07,2.93c-1.859,1.86-2.93,4.44-2.93,7.07s1.07,5.21,2.93,7.07    c1.86,1.86,4.431,2.93,7.07,2.93c2.63,0,5.21-1.07,7.07-2.93c1.859-1.86,2.93-4.44,2.93-7.07s-1.07-5.21-2.93-7.07    C358.93,344.12,356.35,343.05,353.72,343.05z"/>
	</g>
</g>















</svg>
