<?xml version="1.0" encoding="iso-8859-1"?>
<!-- Generator: Adobe Illustrator 19.0.0, SVG Export Plug-In . SVG Version: 6.00 Build 0)  -->
<svg xmlns="http://www.w3.org/2000/svg" xmlns:xlink="http://www.w3.org/1999/xlink" version="1.1" id="Layer_1" x="0px" y="0px" viewBox="0 0 512 512" style="enable-background:new 0 0 512 512;" xml:space="preserve" width="512" height="512">
<g id="XMLID_905_">
	<path id="XMLID_1383_" style="fill:#C9F3FF;" d="M135.25,232.905l16.596-55.472c7.281-24.339,29.674-41.012,55.078-41.012h88.15   c24.293,0,47.398,10.508,63.364,28.818l58.9,67.547L135.25,232.905z"/>
	<path id="XMLID_2301_" style="fill:#4DBAF6;" d="M467.873,340.55H502v-23.166c0-46.637-37.807-84.444-84.444-84.444H126.419   l-0.02,0c-15.675,0.01-28.377,12.721-28.377,28.396v79.214h37.613H467.873z"/>
	<path id="XMLID_1936_" style="fill:#FFFFFF;" d="M136.929,232.94h-10.51h-0.02c-15.675,0.01-28.377,12.721-28.377,28.396v11.011   h17.022c12.087,0,21.885-9.798,21.885-21.885V232.94z"/>
	<circle id="XMLID_2022_" style="fill:#898998;" cx="174.218" cy="340.482" r="35.098"/>
	<circle id="XMLID_2021_" style="fill:#898998;" cx="410.011" cy="340.482" r="35.098"/>
	<path id="XMLID_2258_" style="fill:#FF5D5D;" d="M438.974,235.353v25.445c0,10.85,8.796,19.646,19.646,19.646H493.5   C481.613,259.406,462.231,243.165,438.974,235.353z"/>
	<g id="XMLID_220_">
		<path id="XMLID_604_" d="M23.5,273.649c2.63,0,5.21-1.06,7.07-2.93c1.86-1.86,2.93-4.43,2.93-7.07c0-2.63-1.07-5.21-2.93-7.07    s-4.44-2.92-7.07-2.92s-5.21,1.06-7.07,2.92c-1.86,1.86-2.93,4.44-2.93,7.07c0,2.641,1.07,5.21,2.93,7.07    C18.29,272.59,20.87,273.649,23.5,273.649z"/>
		<path id="XMLID_608_" d="M422.093,223.021l-56.118-64.356c-17.869-20.493-43.711-32.246-70.9-32.246h-88.15    c-14.633,0-28.571,4.619-40.308,13.358c-11.736,8.739-20.157,20.769-24.352,34.788l-14.464,48.346h-1.396    c-18.545,0.006-34.059,13.231-37.616,30.743H63.499c-5.523,0-10,4.478-10,10s4.477,10,10,10h24.523v28H10c-5.523,0-10,4.478-10,10    s4.477,10,10,10h78.022v18.827c0,5.522,4.477,10,10,10h32.229c4.563,20.069,22.537,35.099,43.967,35.099    s39.404-15.03,43.967-35.099h147.859c4.563,20.069,22.537,35.099,43.967,35.099s39.404-15.03,43.967-35.099H502    c5.523,0,10-4.478,10-10v-23.157C512,266.775,472.068,225.382,422.093,223.021z M474.477,269.43h-15.908    c-4.675,0-8.479-3.804-8.479-8.479v-10.552C459.498,254.987,467.794,261.505,474.477,269.43z M350.901,171.81l44.56,51.102    H264.329V146.42h30.746C316.483,146.42,336.831,155.674,350.901,171.81z M161.426,180.298    c5.968-19.947,24.677-33.878,45.498-33.878h37.405v76.492h-95.651L161.426,180.298z M126.409,242.912h0.521v7.55    c0,6.554-5.332,11.886-11.885,11.886h-7.022v-1.04C108.022,251.167,116.271,242.915,126.409,242.912z M174.218,365.58    c-13.839,0-25.098-11.259-25.098-25.099c0-13.839,11.259-25.098,25.098-25.098s25.098,11.259,25.098,25.098    C199.316,354.321,188.057,365.58,174.218,365.58z M174.218,295.384c-21.43,0-39.404,15.029-43.967,35.098h-22.229v-48.134h7.022    c17.582,0,31.885-14.304,31.885-31.886v-7.55h97.4v87.57h-26.144C213.622,310.413,195.648,295.384,174.218,295.384z     M410.011,365.58c-13.839,0-25.098-11.259-25.098-25.099c0-13.839,11.259-25.098,25.098-25.098s25.098,11.259,25.098,25.098    C435.109,354.321,423.85,365.58,410.011,365.58z M492,330.481h-38.022c-4.563-20.069-22.537-35.098-43.967-35.098    s-39.404,15.029-43.967,35.098H264.329v-87.57h153.258c4.262,0,8.435,0.38,12.503,1.071v16.968    c0,15.703,12.775,28.479,28.479,28.479h27.986c3.5,8.621,5.445,18.032,5.445,27.895V330.481z"/>
		<path id="XMLID_949_" d="M301.18,258.77c-2.63,0-5.21,1.07-7.07,2.931c-1.86,1.859-2.93,4.439-2.93,7.069s1.07,5.21,2.93,7.07    s4.44,2.93,7.07,2.93c2.63,0,5.21-1.069,7.07-2.93c1.86-1.86,2.93-4.44,2.93-7.07s-1.07-5.21-2.93-7.069    C306.39,259.84,303.81,258.77,301.18,258.77z"/>
		<path id="XMLID_1048_" d="M410.01,330.479c-2.63,0-5.21,1.07-7.07,2.931c-1.86,1.859-2.93,4.439-2.93,7.069s1.07,5.21,2.93,7.07    s4.44,2.93,7.07,2.93s5.21-1.069,7.07-2.93c1.86-1.86,2.93-4.44,2.93-7.07s-1.07-5.21-2.93-7.069    C415.22,331.55,412.64,330.479,410.01,330.479z"/>
		<path id="XMLID_1050_" d="M174.22,330.479c-2.63,0-5.21,1.07-7.07,2.931c-1.86,1.859-2.93,4.439-2.93,7.069s1.07,5.21,2.93,7.07    s4.43,2.93,7.07,2.93c2.63,0,5.21-1.069,7.07-2.93c1.86-1.86,2.93-4.44,2.93-7.07s-1.07-5.21-2.93-7.069    C179.43,331.55,176.85,330.479,174.22,330.479z"/>
	</g>
</g>















</svg>
