<?xml version="1.0" encoding="iso-8859-1"?>
<!-- Generator: Adobe Illustrator 19.0.0, SVG Export Plug-In . SVG Version: 6.00 Build 0)  -->
<svg xmlns="http://www.w3.org/2000/svg" xmlns:xlink="http://www.w3.org/1999/xlink" version="1.1" id="Layer_1" x="0px" y="0px" viewBox="0 0 512 512" style="enable-background:new 0 0 512 512;" xml:space="preserve" width="512" height="512">
<g id="XMLID_1421_">
	<rect id="XMLID_1898_" x="64.127" y="10" style="fill:#FFFFFF;" width="384" height="468"/>
	<g id="XMLID_1604_">
		<rect id="XMLID_1602_" x="334.143" y="188.767" style="fill:#B2F0BF;" width="167.857" height="313.233"/>
		<path id="XMLID_1601_" style="fill:#36D28F;" d="M461.534,502H502v-40.466C479.651,461.534,461.534,479.652,461.534,502z"/>
		<path id="XMLID_1600_" style="fill:#36D28F;" d="M334.143,461.534V502h40.466C374.608,479.652,356.491,461.534,334.143,461.534z"/>
		<path id="XMLID_1599_" style="fill:#36D28F;" d="M374.608,188.767h-40.466v40.466    C356.491,229.232,374.608,211.115,374.608,188.767z"/>
		<path id="XMLID_1598_" style="fill:#36D28F;" d="M502,229.232v-40.466h-40.466C461.534,211.115,479.652,229.232,502,229.232z"/>
		<circle id="XMLID_1593_" style="fill:#36D28F;" cx="418.071" cy="345.383" r="40"/>
	</g>
	<g id="XMLID_1779_">
		<path id="XMLID_1790_" style="fill:#4DBAF6;" d="M73.316,161.423h104.711h29.26L234,161.468v-29.83    c0-14.451-11.715-26.166-26.166-26.166h-82.162h-0.007H36.166C21.715,105.473,10,117.188,10,131.639v29.83l31.07-0.046H73.316z"/>
		<path id="XMLID_1789_" style="fill:#C9F3FF;" d="M152.113,50h-68.06c-8.4,0-15.986,5.021-19.269,12.753l-18.136,42.72h142.868    l-18.136-42.72C168.099,55.021,160.513,50,152.113,50z"/>
		<circle id="XMLID_1788_" style="fill:#898998;" cx="58.686" cy="161.423" r="18.221"/>
		<circle id="XMLID_1787_" style="fill:#898998;" cx="192.657" cy="161.423" r="18.221"/>
	</g>
	<rect id="XMLID_1954_" x="294.143" y="188.767" style="fill:#36D28F;" width="40" height="313.233"/>
	<g id="XMLID_408_">
		<path id="XMLID_458_" d="M418.071,295.384c-27.57,0-50,22.43-50,50s22.43,50,50,50s50-22.43,50-50    S445.642,295.384,418.071,295.384z M418.071,375.384c-16.542,0-30-13.458-30-30s13.458-30,30-30s30,13.458,30,30    S434.613,375.384,418.071,375.384z"/>
		<path id="XMLID_459_" d="M418.071,280.943c5.523,0,10-4.478,10-10V254c0-5.523-4.477-10-10-10s-10,4.477-10,10v16.943    C408.071,276.466,412.548,280.943,418.071,280.943z"/>
		<path id="XMLID_867_" d="M418.071,409.823c-5.523,0-10,4.478-10,10v16.943c0,5.522,4.477,10,10,10s10-4.478,10-10v-16.943    C428.071,414.301,423.594,409.823,418.071,409.823z"/>
		<path id="XMLID_1053_" d="M502,178.767H334.143h-40c-5.523,0-10,4.477-10,10V468h-54.476c-5.523,0-10,4.478-10,10s4.477,10,10,10    h54.476v14c0,5.522,4.477,10,10,10h40H502c5.523,0,10-4.478,10-10V188.767C512,183.244,507.523,178.767,502,178.767z M452.534,492    H383.61c-4-19.819-19.647-35.467-39.466-39.467V238.234c19.819-4,35.466-19.648,39.466-39.467h68.924    c4,19.819,19.647,35.467,39.466,39.467v214.299C472.181,456.533,456.534,472.181,452.534,492z M344.143,217.538v-18.771h18.771    C359.859,207.532,352.909,214.483,344.143,217.538z M492,217.538c-8.766-3.055-15.716-10.006-18.771-18.771H492V217.538z     M304.143,198.767h20V492h-20V198.767z M344.143,473.229c8.766,3.055,15.716,10.006,18.771,18.771h-18.771V473.229z M473.229,492    c3.055-8.766,10.006-15.716,18.771-18.771V492H473.229z"/>
		<path id="XMLID_1136_" d="M189.67,468c-2.64,0-5.21,1.069-7.07,2.93c-1.87,1.86-2.93,4.44-2.93,7.07s1.06,5.21,2.93,7.069    c1.86,1.86,4.43,2.931,7.07,2.931c2.63,0,5.21-1.07,7.07-2.931c1.86-1.859,2.93-4.439,2.93-7.069s-1.07-5.21-2.93-7.07    C194.88,469.069,192.3,468,189.67,468z"/>
		<path id="XMLID_1161_" d="M448,138.77c-2.63,0-5.21,1.06-7.07,2.93c-1.86,1.86-2.93,4.43-2.93,7.07c0,2.63,1.07,5.21,2.93,7.07    c1.86,1.86,4.44,2.93,7.07,2.93c2.63,0,5.21-1.07,7.07-2.93s2.93-4.44,2.93-7.07c0-2.63-1.07-5.21-2.93-7.07    C453.21,139.83,450.63,138.77,448,138.77z"/>
		<path id="XMLID_1173_" d="M192.657,189.644c12.023,0,22.309-7.561,26.366-18.175H234c5.523,0,10-4.477,10-10v-29.83    c0-19.942-16.224-36.166-36.167-36.166h-11.698l-15.549-36.627C175.727,47.397,164.55,40,152.113,40H84.054    c-3.49,0-6.874,0.602-10.054,1.693V20h364v88.768c0,5.523,4.477,10,10,10s10-4.477,10-10V10c0-5.523-4.477-10-10-10H64    c-5.523,0-10,4.477-10,10v52.566L40.031,95.473h-3.864C16.224,95.473,0,111.697,0,131.639v29.83c0,2.655,1.056,5.201,2.935,7.077    c1.875,1.872,4.416,2.923,7.065,2.923c0.005,0,0.01,0,0.016,0l22.29-0.035c3.512,9.222,11.723,16.14,21.695,17.814V478    c0,5.522,4.477,10,10,10h85.667c5.523,0,10-4.478,10-10s-4.477-10-10-10H74V185.108c5.005-3.247,8.92-8.033,11.07-13.685h81.203    C170.319,182.061,180.617,189.644,192.657,189.644z M192.657,169.644c-4.533,0-8.221-3.688-8.221-8.221    c0-4.533,3.688-8.221,8.221-8.221s8.221,3.688,8.221,8.221C200.878,165.956,197.19,169.644,192.657,169.644z M224,131.639v19.83    h-4.94c-4.034-10.663-14.344-18.267-26.402-18.267c-12.041,0-22.339,7.583-26.384,18.221h-38.19v-35.95h61.434h18.316    C216.748,115.473,224,122.725,224,131.639z M162.176,66.661l12.232,28.812h-46.325V60h24.03    C156.509,60,160.459,62.614,162.176,66.661z M73.989,66.661C75.708,62.615,79.658,60,84.054,60h24.029v35.473H61.758    L73.989,66.661z M20,131.639c0-8.914,7.252-16.166,16.167-16.166h10.483h61.434v35.95H85.07    c-4.046-10.639-14.344-18.221-26.384-18.221c-12.045,0-22.346,7.588-26.389,18.232L20,151.453V131.639z M50.465,161.423    c0-4.533,3.688-8.221,8.221-8.221s8.221,3.688,8.221,8.221c0,4.533-3.688,8.221-8.221,8.221S50.465,165.956,50.465,161.423z"/>
		<path id="XMLID_1206_" d="M128.684,234.889h16.455c5.523,0,10-4.477,10-10s-4.477-10-10-10h-5.302    c-1.326-3.969-5.065-6.833-9.48-6.833c-4.881,0-8.939,3.498-9.818,8.123c-10.597,3.442-18.282,13.406-18.282,25.136    c0,14.571,11.855,26.426,26.426,26.426c0.005,0,0.01-0.001,0.014-0.001s0.01,0.001,0.014,0.001c3.543,0,6.426,2.883,6.426,6.427    c0,3.543-2.883,6.426-6.426,6.426h-16.455c-5.523,0-10,4.478-10,10s4.477,10,10,10h8.437c1.125,4.291,5.018,7.462,9.662,7.462    c5.523,0,10-4.478,10-10v-0.173c8.747-4.313,14.782-13.32,14.782-23.714c0-14.571-11.855-26.427-26.426-26.427    c-0.005,0-0.01,0.001-0.014,0.001s-0.01-0.001-0.014-0.001c-3.543,0-6.426-2.883-6.426-6.426S125.141,234.889,128.684,234.889z"/>
		<path id="XMLID_1251_" d="M256.127,270.056h-66.61c-5.523,0-10,4.478-10,10s4.477,10,10,10h66.61c5.523,0,10-4.478,10-10    S261.65,270.056,256.127,270.056z"/>
		<path id="XMLID_1252_" d="M256.127,226.056h-66.61c-5.523,0-10,4.477-10,10s4.477,10,10,10h66.61c5.523,0,10-4.477,10-10    S261.65,226.056,256.127,226.056z"/>
		<path id="XMLID_1255_" d="M128.684,360.833h16.455c5.523,0,10-4.478,10-10s-4.477-10-10-10h-5.302    c-1.326-3.969-5.065-6.833-9.48-6.833c-4.881,0-8.939,3.499-9.818,8.123c-10.597,3.442-18.282,13.406-18.282,25.136    c0,14.571,11.855,26.427,26.426,26.427c0.005,0,0.01-0.001,0.014-0.001s0.01,0.001,0.014,0.001c3.543,0,6.426,2.883,6.426,6.427    c0,3.543-2.883,6.426-6.426,6.426h-16.455c-5.523,0-10,4.478-10,10s4.477,10,10,10h8.437c1.125,4.291,5.018,7.462,9.662,7.462    c5.523,0,10-4.478,10-10v-0.173c8.747-4.313,14.782-13.321,14.782-23.715c0-14.571-11.855-26.426-26.426-26.426    c-0.005,0-0.01,0.001-0.014,0.001s-0.01-0.001-0.014-0.001c-3.543,0-6.426-2.883-6.426-6.427    C122.258,363.716,125.141,360.833,128.684,360.833z"/>
		<path id="XMLID_1256_" d="M189.517,416h66.61c5.523,0,10-4.478,10-10s-4.477-10-10-10h-66.61c-5.523,0-10,4.478-10,10    S183.994,416,189.517,416z"/>
		<path id="XMLID_1257_" d="M256.127,352h-66.61c-5.523,0-10,4.478-10,10s4.477,10,10,10h66.61c5.523,0,10-4.478,10-10    S261.65,352,256.127,352z"/>
	</g>
</g>















</svg>
