<?xml version="1.0" encoding="iso-8859-1"?>
<!-- Generator: Adobe Illustrator 19.0.0, SVG Export Plug-In . SVG Version: 6.00 Build 0)  -->
<svg xmlns="http://www.w3.org/2000/svg" xmlns:xlink="http://www.w3.org/1999/xlink" version="1.1" id="Layer_1" x="0px" y="0px" viewBox="0 0 512 512" style="enable-background:new 0 0 512 512;" xml:space="preserve" width="512" height="512">
<g id="XMLID_1720_">
	<g id="XMLID_1403_">
		<path id="XMLID_1404_" style="fill:#D8D8E4;" d="M502,88H345.808C337.922,76.219,327.781,66.078,316,58.192V10H196v48.192    C184.219,66.078,174.078,76.219,166.192,88H10v120h156.192c7.886,11.781,18.027,21.922,29.808,29.808V502h120V237.808    c11.781-7.886,21.922-18.027,29.808-29.808H502V88z"/>
		<path id="XMLID_1273_" style="fill:#4DBAF6;" d="M267.563,502H244.69c-6.939,0-12.563-5.625-12.563-12.563v-51.673    c0-6.939,5.625-12.563,12.563-12.563h22.873c6.939,0,12.563,5.625,12.563,12.563v51.673C280.127,496.375,274.502,502,267.563,502z    "/>
		<circle id="XMLID_1227_" style="fill:#686C83;" cx="256" cy="148" r="42.64"/>
		<g id="XMLID_438_">
			<path id="XMLID_439_" d="M502,198H345.808c-3.337,0-6.454,1.665-8.31,4.437c-7.2,10.756-16.305,19.861-27.061,27.061     c-2.772,1.856-4.437,4.973-4.437,8.31v36.58c0,5.522,4.477,10,10,10s10-4.478,10-10V243c9.57-7.051,17.949-15.431,25-25h151     c5.523,0,10-4.477,10-10S507.523,198,502,198z"/>
			<path id="XMLID_484_" d="M316,304.39c-2.63,0-5.21,1.061-7.07,2.92c-1.86,1.87-2.93,4.45-2.93,7.08s1.07,5.21,2.93,7.07     c1.86,1.859,4.44,2.93,7.07,2.93c2.63,0,5.21-1.07,7.07-2.93c1.86-1.86,2.93-4.44,2.93-7.07s-1.07-5.21-2.93-7.08     C321.21,305.45,318.63,304.39,316,304.39z"/>
			<path id="XMLID_485_" d="M316,345c-5.523,0-10,4.478-10,10v147c0,5.522,4.477,10,10,10s10-4.478,10-10V355     C326,349.478,321.523,345,316,345z"/>
			<path id="XMLID_486_" d="M201.563,229.498c-10.757-7.201-19.861-16.306-27.061-27.061c-1.856-2.773-4.973-4.438-8.31-4.438H10     c-5.523,0-10,4.477-10,10s4.477,10,10,10h151c7.051,9.569,15.431,17.948,25,25v259c0,5.522,4.477,10,10,10s10-4.478,10-10     V237.808C206,234.471,204.336,231.354,201.563,229.498z"/>
			<path id="XMLID_487_" d="M10,98h156.192c3.337,0,6.454-1.665,8.31-4.437c7.2-10.756,16.304-19.86,27.061-27.061     c2.772-1.856,4.437-4.973,4.437-8.31V10c0-5.523-4.477-10-10-10s-10,4.477-10,10v43c-9.57,7.052-17.949,15.431-25,25H10     C4.477,78,0,82.477,0,88S4.477,98,10,98z"/>
			<path id="XMLID_488_" d="M310.438,66.502c10.755,7.199,19.86,16.304,27.061,27.061c1.856,2.773,4.973,4.437,8.31,4.437H502     c5.523,0,10-4.477,10-10s-4.477-10-10-10H351c-7.052-9.57-15.431-17.949-25-25V10c0-5.523-4.477-10-10-10s-10,4.477-10,10v48.192     C306,61.529,307.665,64.646,310.438,66.502z"/>
			<path id="XMLID_491_" d="M256,95.36c-29.025,0-52.64,23.614-52.64,52.64s23.614,52.64,52.64,52.64s52.64-23.614,52.64-52.64     S285.025,95.36,256,95.36z M256,180.64c-17.998,0-32.64-14.642-32.64-32.64s14.642-32.64,32.64-32.64s32.64,14.642,32.64,32.64     S273.998,180.64,256,180.64z"/>
			<path id="XMLID_492_" d="M246,377.68c0,5.522,4.477,10,10,10s10-4.478,10-10v-32c0-5.522-4.477-10-10-10s-10,4.478-10,10V377.68z     "/>
			<path id="XMLID_493_" d="M256,295.68c5.523,0,10-4.478,10-10v-29.807c0-5.523-4.477-10-10-10s-10,4.477-10,10v29.807     C246,291.202,250.477,295.68,256,295.68z"/>
			<path id="XMLID_494_" d="M256,52c5.523,0,10-4.477,10-10V10c0-5.523-4.477-10-10-10s-10,4.477-10,10v32     C246,47.523,250.477,52,256,52z"/>
			<path id="XMLID_495_" d="M43.141,138c-5.523,0-10,4.477-10,10s4.477,10,10,10h32c5.523,0,10-4.477,10-10s-4.477-10-10-10H43.141z     "/>
			<path id="XMLID_499_" d="M167.141,138h-32c-5.523,0-10,4.477-10,10s4.477,10,10,10h32c5.523,0,10-4.477,10-10     S172.664,138,167.141,138z"/>
			<path id="XMLID_500_" d="M351.12,138c-5.523,0-10,4.477-10,10s4.477,10,10,10h32c5.523,0,10-4.477,10-10s-4.477-10-10-10H351.12z     "/>
			<path id="XMLID_501_" d="M443.12,138c-5.523,0-10,4.477-10,10s4.477,10,10,10h32c5.523,0,10-4.477,10-10s-4.477-10-10-10H443.12z     "/>
			<path id="XMLID_504_" d="M267.563,415.2H244.69c-12.441,0-22.563,10.122-22.563,22.563v51.673     c0,12.441,10.122,22.563,22.563,22.563h22.873c12.441,0,22.563-10.122,22.563-22.563v-51.673     C290.127,425.322,280.005,415.2,267.563,415.2z M244.69,435.2h22.873c1.15,0,2.114,0.766,2.438,1.811l-7.962,7.962h-11.824     l-7.962-7.962C242.577,435.966,243.541,435.2,244.69,435.2z M267.563,492H244.69c-1.414,0-2.563-1.15-2.563-2.563v-25.281     c1.235,0.531,2.575,0.817,3.946,0.817h20.108c1.371,0,2.71-0.287,3.946-0.817v25.281C270.127,490.85,268.977,492,267.563,492z"/>
		</g>
	</g>
	<g id="XMLID_1721_">
		
			<path id="XMLID_3_" style="fill:none;stroke:#000000;stroke-width:20;stroke-linecap:round;stroke-linejoin:round;stroke-miterlimit:10;" d="    M318,355"/>
	</g>
</g>















</svg>
