<?xml version="1.0" encoding="iso-8859-1"?>
<!-- Generator: Adobe Illustrator 19.0.0, SVG Export Plug-In . SVG Version: 6.00 Build 0)  -->
<svg xmlns="http://www.w3.org/2000/svg" xmlns:xlink="http://www.w3.org/1999/xlink" version="1.1" id="Layer_1" x="0px" y="0px" viewBox="0 0 512 512" style="enable-background:new 0 0 512 512;" xml:space="preserve" width="512" height="512">
<g id="XMLID_1002_">
	<rect id="XMLID_1880_" x="10" y="407" style="fill:#D8D8E4;" width="96" height="95"/>
	<path id="XMLID_2872_" style="fill:#FEDA9B;" d="M61.036,203.701L61.036,203.701c19.168,0,34.707,15.539,34.707,34.707v4.628   c0,19.168-15.539,34.707-34.707,34.707h0c-19.168,0-34.707-15.539-34.707-34.707v-4.628   C26.329,219.24,41.868,203.701,61.036,203.701z"/>
	<path id="XMLID_2819_" style="fill:#B3B6C3;" d="M431.362,417.061h9.276c33.889,0,61.362,27.473,61.362,61.362V502H370v-23.577   C370,444.533,397.473,417.061,431.362,417.061z"/>
	<path id="XMLID_2818_" style="fill:#D8D8E4;" d="M299.362,417.061h9.276c33.889,0,61.362,27.473,61.362,61.362V502H238v-23.577   C238,444.533,265.473,417.061,299.362,417.061z"/>
	<path id="XMLID_2817_" style="fill:#B3B6C3;" d="M167.362,417.061h9.276c33.889,0,61.362,27.473,61.362,61.362V502H106v-23.577   C106,444.533,133.473,417.061,167.362,417.061z"/>
	<path id="XMLID_1879_" style="fill:#FEDA9B;" d="M436,347.463L436,347.463c18.018,0,32.624,14.606,32.624,32.624v4.35   c0,18.018-14.606,32.624-32.624,32.624h0c-18.018,0-32.624-14.606-32.624-32.624v-4.35C403.376,362.07,417.982,347.463,436,347.463   z"/>
	<path id="XMLID_2774_" style="fill:#FEDA9B;" d="M304,347.463L304,347.463c18.018,0,32.624,14.606,32.624,32.624v4.35   c0,18.018-14.606,32.624-32.624,32.624h0c-18.018,0-32.624-14.606-32.624-32.624v-4.35C271.376,362.07,285.982,347.463,304,347.463   z"/>
	<path id="XMLID_2773_" style="fill:#FEDA9B;" d="M172,347.463L172,347.463c18.018,0,32.624,14.606,32.624,32.624v4.35   c0,18.018-14.606,32.624-32.624,32.624h0c-18.018,0-32.624-14.606-32.624-32.624v-4.35C139.376,362.07,153.982,347.463,172,347.463   z"/>
	<rect id="XMLID_1878_" x="102" y="10" style="fill:#FFFFFF;" width="400" height="300"/>
	<path id="XMLID_1866_" style="fill:#FF5D5D;" d="M191.966,258.147l-9.424,13.578c-11.494,16.561-27.125,29.822-45.337,38.465   L106,325v82H10v-97.714c0-17.428,14.129-31.557,31.557-31.557h47.401l16.563-4.156c23.039-5.781,43.734-18.529,59.26-36.506l0,0   c6.395-7.404,17.664-8.001,24.806-1.315l0,0C195.827,241.593,196.839,251.126,191.966,258.147z"/>
	<g id="XMLID_1951_">
		<path id="XMLID_1964_" style="fill:#4DBAF6;" d="M266.622,181.32h123.409h34.486L456,181.374v-35.156    c0-17.032-13.807-30.839-30.839-30.839h-96.834h-0.008h-105.48c-17.032,0-30.839,13.807-30.839,30.839v35.156l36.618-0.054    H266.622z"/>
		<path id="XMLID_1963_" style="fill:#C9F3FF;" d="M359.49,50h-80.213c-9.9,0-18.841,5.918-22.709,15.03l-21.374,50.348h168.38    L382.2,65.03C378.331,55.918,369.39,50,359.49,50z"/>
		<circle id="XMLID_1962_" style="fill:#898998;" cx="249.38" cy="191.794" r="22"/>
		<circle id="XMLID_1961_" style="fill:#898998;" cx="407.275" cy="191.794" r="22"/>
	</g>
	<g id="XMLID_511_">
		<path id="XMLID_555_" d="M468.015,412.53c6.596-7.508,10.609-17.338,10.609-28.093v-4.35c0-23.502-19.121-42.623-42.624-42.623    s-42.624,19.121-42.624,42.623v4.35c0,10.755,4.013,20.586,10.609,28.093c-14.247,5.941-26.163,16.373-33.985,29.518    c-7.822-13.145-19.738-23.576-33.985-29.518c6.596-7.508,10.609-17.338,10.609-28.093v-4.35c0-23.502-19.121-42.623-42.624-42.623    s-42.624,19.121-42.624,42.623v4.35c0,10.755,4.013,20.586,10.609,28.093c-14.247,5.941-26.163,16.373-33.985,29.518    c-7.822-13.145-19.738-23.576-33.985-29.518c6.596-7.508,10.609-17.338,10.609-28.093v-4.35c0-23.502-19.121-42.623-42.624-42.623    s-42.624,19.121-42.624,42.623v4.35c0,10.755,4.013,20.586,10.609,28.093c-9.101,3.795-17.243,9.429-23.985,16.426V407v-75.677    L139.858,320h196.766c5.522,0,10-4.478,10-10s-4.478-10-10-10H170.623c7.568-6.668,14.348-14.236,20.135-22.573l9.424-13.579    l-0.001,0.001c7.646-11.016,6.03-26.233-3.759-35.397c-5.46-5.111-12.591-7.704-20.048-7.312    c-7.468,0.396-14.272,3.731-19.161,9.391c-14.256,16.505-32.972,28.035-54.125,33.343l-2.907,0.729    c3.54-6.4,5.563-13.751,5.563-21.568v-4.628c0-24.651-20.056-44.707-44.707-44.707s-44.707,20.055-44.707,44.707v4.628    c0,10.467,3.626,20.098,9.675,27.725C10.774,276.931,0,291.87,0,309.286V407v95c0,5.522,4.478,10,10,10h492    c5.522,0,10-4.478,10-10v-23.577C512,448.769,493.816,423.29,468.015,412.53z M413.376,380.087    c0-12.475,10.149-22.623,22.624-22.623s22.624,10.148,22.624,22.623v4.35c0,12.475-10.149,22.624-22.624,22.624    s-22.624-10.149-22.624-22.624V380.087z M281.376,380.087c0-12.475,10.149-22.623,22.624-22.623s22.624,10.148,22.624,22.623v4.35    c0,12.475-10.149,22.624-22.624,22.624s-22.624-10.149-22.624-22.624V380.087z M149.376,380.087    c0-12.475,10.149-22.623,22.624-22.623s22.624,10.148,22.624,22.623v4.35c0,12.475-10.149,22.624-22.624,22.624    s-22.624-10.149-22.624-22.624V380.087z M36.329,238.408c0-13.623,11.084-24.707,24.707-24.707s24.707,11.083,24.707,24.707v4.628    c0,13.455-10.814,24.426-24.207,24.694h-1c-13.393-0.268-24.207-11.239-24.207-24.694V238.408z M20,309.286    c0-11.887,9.67-21.557,21.557-21.557h18.979c0.167,0.002,28.422,0,28.422,0c0.82,0,1.638-0.101,2.434-0.301l16.563-4.156    c25.167-6.315,47.434-20.032,64.395-39.669c1.297-1.501,3.103-2.386,5.084-2.491c1.981-0.11,3.871,0.584,5.32,1.94    c2.597,2.431,3.025,6.469,0.997,9.393h-0.001l-9.423,13.579c-10.482,15.103-24.802,27.251-41.409,35.133l-31.205,14.81    C98.224,317.621,96,321.139,96,325v72H20V309.286z M20,417h76v61.423V492H68v-37.5c0-5.522-4.478-10-10-10s-10,4.478-10,10V492H20    V417z M116,478.423c0-28.321,23.041-51.362,51.362-51.362h9.275c28.321,0,51.362,23.041,51.362,51.362V492H116V478.423z     M248,478.423c0-28.321,23.041-51.362,51.362-51.362h9.275c28.321,0,51.362,23.041,51.362,51.362V492H248V478.423z M492,492H380    v-13.577c0-28.321,23.041-51.362,51.362-51.362h9.275c28.321,0,51.362,23.041,51.362,51.362V492z"/>
		<path id="XMLID_582_" d="M376.62,300c-2.63,0-5.2,1.069-7.07,2.93c-1.86,1.86-2.93,4.44-2.93,7.07s1.069,5.21,2.93,7.069    c1.87,1.86,4.44,2.931,7.07,2.931c2.64,0,5.21-1.07,7.069-2.931c1.87-1.859,2.931-4.439,2.931-7.069s-1.061-5.21-2.931-7.07    C381.83,301.069,379.26,300,376.62,300z"/>
		<path id="XMLID_583_" d="M502,0H102c-5.522,0-10,4.477-10,10v112c0,5.523,4.478,10,10,10s10-4.477,10-10V20h380v280h-75.376    c-5.522,0-10,4.478-10,10s4.478,10,10,10H502c5.522,0,10-4.478,10-10V10C512,4.477,507.522,0,502,0z"/>
		<path id="XMLID_584_" d="M102,172c2.63,0,5.21-1.07,7.069-2.93c1.86-1.86,2.931-4.44,2.931-7.07c0-2.63-1.07-5.21-2.931-7.07    C107.21,153.07,104.63,152,102,152s-5.21,1.07-7.07,2.93c-1.86,1.86-2.93,4.44-2.93,7.07c0,2.63,1.069,5.21,2.93,7.07    S99.37,172,102,172z"/>
		<path id="XMLID_821_" d="M182,171.374h-38.333c-5.522,0-10,4.477-10,10s4.478,10,10,10H192c0.005,0,0.011,0,0.016,0l25.376-0.04    c-0.002,0.154-0.012,0.306-0.012,0.46c0,17.645,14.355,32,32,32s32-14.355,32-32c0-0.159-0.01-0.316-0.012-0.475h93.918    c-0.002,0.159-0.012,0.315-0.012,0.475c0,17.645,14.355,32,32,32s32-14.355,32-32c0-0.141-0.009-0.28-0.011-0.42H456    c5.522,0,10-4.477,10-10v-35.156c0-22.519-18.32-40.839-40.839-40.839h-14.968l-18.788-44.256C385.957,48.291,373.43,40,359.49,40    h-80.213c-13.94,0-26.467,8.292-31.914,21.123l-18.789,44.256h-5.736h-55.006c-5.522,0-10,4.477-10,10s4.478,10,10,10h19.903    c-3.638,6.105-5.736,13.23-5.736,20.839V171.374z M249.38,203.794c-6.617,0-12-5.383-12-12s5.383-12,12-12s12,5.383,12,12    S255.997,203.794,249.38,203.794z M407.274,203.794c-6.617,0-12-5.383-12-12s5.383-12,12-12s12,5.383,12,12    S413.892,203.794,407.274,203.794z M446,146.217v25.156h-14.109c-5.875-7.07-14.728-11.58-24.617-11.58    c-9.863,0-18.695,4.488-24.57,11.525h-53.321v-45.941h74.19h21.587C436.651,125.378,446,134.727,446,146.217z M372.995,68.938    l15.47,36.44h-59.081V60h30.106C365.389,60,370.69,63.508,372.995,68.938z M265.773,68.938c2.305-5.429,7.605-8.938,13.504-8.938    h30.106v45.378h-59.081L265.773,68.938z M235.193,125.378h74.19v45.941H273.95c-5.875-7.038-14.707-11.525-24.57-11.525    c-9.864,0-18.697,4.489-24.572,11.528L202,171.358v-25.141c0-11.491,9.349-20.839,20.839-20.839H235.193z"/>
	</g>
</g>















</svg>
