<?xml version="1.0" encoding="iso-8859-1"?>
<!-- Generator: Adobe Illustrator 19.0.0, SVG Export Plug-In . SVG Version: 6.00 Build 0)  -->
<svg xmlns="http://www.w3.org/2000/svg" xmlns:xlink="http://www.w3.org/1999/xlink" version="1.1" id="Layer_1" x="0px" y="0px" viewBox="0 0 512 512" style="enable-background:new 0 0 512 512;" xml:space="preserve" width="512" height="512">
<g id="XMLID_952_">
	<rect id="XMLID_2515_" x="37" y="10" style="fill:#72D8FF;" width="438" height="48"/>
	<rect id="XMLID_2514_" x="51" y="58" style="fill:#FFFFFF;" width="410" height="258"/>
	<g id="XMLID_1519_">
		<path id="XMLID_1518_" style="fill:#B3B6C3;" d="M383.362,432.061h9.276c33.889,0,61.362,27.473,61.362,61.362V502H322v-8.577    C322,459.533,349.473,432.061,383.362,432.061z"/>
		<path id="XMLID_1517_" style="fill:#D8D8E4;" d="M251.362,432.061h9.276c33.889,0,61.362,27.473,61.362,61.362V502H190v-8.577    C190,459.533,217.473,432.061,251.362,432.061z"/>
		<path id="XMLID_1516_" style="fill:#B3B6C3;" d="M119.362,432.061h9.276c33.889,0,61.362,27.473,61.362,61.362V502H58v-8.577    C58,459.533,85.473,432.061,119.362,432.061z"/>
		<path id="XMLID_1515_" style="fill:#FEDA9B;" d="M388,362.463L388,362.463c18.018,0,32.624,14.606,32.624,32.624v4.35    c0,18.018-14.606,32.624-32.624,32.624h0c-18.018,0-32.624-14.606-32.624-32.624v-4.35    C355.376,377.07,369.982,362.463,388,362.463z"/>
		<path id="XMLID_1514_" style="fill:#FEDA9B;" d="M256,362.463L256,362.463c18.018,0,32.624,14.606,32.624,32.624v4.35    c0,18.018-14.606,32.624-32.624,32.624h0c-18.018,0-32.624-14.606-32.624-32.624v-4.35    C223.376,377.07,237.982,362.463,256,362.463z"/>
		<path id="XMLID_1513_" style="fill:#FEDA9B;" d="M124,362.463L124,362.463c18.018,0,32.624,14.606,32.624,32.624v4.35    c0,18.018-14.606,32.624-32.624,32.624h0c-18.018,0-32.624-14.606-32.624-32.624v-4.35C91.376,377.07,105.982,362.463,124,362.463    z"/>
	</g>
	<g id="XMLID_1592_">
		<path id="XMLID_1611_" style="fill:#72D8FF;" d="M238.065,170.372H117.913h0c-9.905,0-17.935,8.03-17.935,17.935v40.353H256    v-40.353C256,178.402,247.97,170.372,238.065,170.372L238.065,170.372z"/>
		<path id="XMLID_1608_" style="fill:#C9F3FF;" d="M238.065,170.372l-9.798-39.894c-2.102-8.559-9.776-14.576-18.589-14.576H146.3    c-8.813,0-16.487,6.017-18.589,14.576l-9.798,39.894H238.065z"/>
	</g>
	<g id="XMLID_572_">
		<path id="XMLID_630_" d="M420.016,427.53c6.596-7.508,10.608-17.338,10.608-28.093v-4.35c0-23.502-19.121-42.623-42.624-42.623    s-42.624,19.121-42.624,42.623v4.35c0,10.755,4.013,20.586,10.608,28.093c-14.247,5.941-26.163,16.373-33.984,29.518    c-7.822-13.145-19.738-23.576-33.984-29.518c6.596-7.508,10.608-17.338,10.608-28.093v-4.35c0-23.502-19.121-42.623-42.624-42.623    s-42.624,19.121-42.624,42.623v4.35c0,10.755,4.013,20.586,10.608,28.093c-14.247,5.941-26.163,16.373-33.984,29.518    c-7.822-13.145-19.738-23.576-33.984-29.518c6.596-7.508,10.608-17.338,10.608-28.093v-4.35c0-23.502-19.121-42.623-42.624-42.623    s-42.624,19.121-42.624,42.623v4.35c0,10.755,4.013,20.586,10.608,28.093C66.185,438.29,48,463.769,48,493.423V502    c0,5.522,4.478,10,10,10h396c5.522,0,10-4.478,10-10v-8.577C464,463.769,445.815,438.29,420.016,427.53z M365.376,395.087    c0-12.475,10.149-22.623,22.624-22.623s22.624,10.148,22.624,22.623v4.35c0,12.475-10.149,22.624-22.624,22.624    s-22.624-10.149-22.624-22.624V395.087z M233.376,395.087c0-12.475,10.149-22.623,22.624-22.623s22.624,10.148,22.624,22.623v4.35    c0,12.475-10.149,22.624-22.624,22.624s-22.624-10.149-22.624-22.624V395.087z M101.376,395.087    c0-12.475,10.149-22.623,22.624-22.623s22.624,10.148,22.624,22.623v4.35c0,12.475-10.149,22.624-22.624,22.624    s-22.624-10.149-22.624-22.624V395.087z M68.02,492c0.756-27.667,23.497-49.939,51.343-49.939h9.275    c27.846,0,50.587,22.272,51.343,49.939H68.02z M200.02,492c0.756-27.667,23.497-49.939,51.343-49.939h9.275    c27.846,0,50.587,22.272,51.343,49.939H200.02z M332.02,492c0.756-27.667,23.497-49.939,51.343-49.939h9.275    c27.846,0,50.587,22.272,51.343,49.939H332.02z"/>
		<path id="XMLID_688_" d="M475,0H37c-5.522,0-10,4.477-10,10v48c0,5.523,4.478,10,10,10h4v248c0,5.522,4.478,10,10,10h410    c5.522,0,10-4.478,10-10V68h4c5.522,0,10-4.477,10-10V10C485,4.477,480.522,0,475,0z M47,20h418v28H47V20z M451,306H61V68h390V306    z"/>
		<path id="XMLID_692_" d="M99.978,238.66h18.563v4.908c0,5.523,4.478,10,10,10s10-4.477,10-10v-4.908h78.896v4.908    c0,5.523,4.478,10,10,10s10-4.477,10-10v-4.908H256c5.522,0,10-4.477,10-10v-40.353c0-8.666-3.966-16.422-10.178-21.55    l2.577-2.577c3.905-3.905,3.905-10.237,0-14.143c-3.906-3.905-10.236-3.905-14.143,0l-0.713,0.713l-5.565-22.659    c-3.209-13.065-14.847-22.19-28.3-22.19h-63.377c-13.454,0-25.092,9.125-28.301,22.19l-5.565,22.659l-0.713-0.713    c-3.906-3.905-10.236-3.905-14.143,0c-3.905,3.905-3.905,10.237,0,14.143l2.577,2.577c-6.212,5.128-10.178,12.885-10.178,21.55    v40.353C89.978,234.183,94.455,238.66,99.978,238.66z M246,218.66H109.978v-30.353c0-4.375,3.56-7.936,7.936-7.936h120.086    c0.019,0,0.038,0.002,0.058,0.002c0,0,0.017-0.001,0.025-0.001c4.368,0.01,7.918,3.565,7.918,7.935V218.66z M146.301,125.902    h63.377c4.22,0,7.871,2.863,8.878,6.961l6.756,27.509h-94.646l6.756-27.508C138.429,128.765,142.08,125.902,146.301,125.902z"/>
		<path id="XMLID_694_" d="M131.37,189.52c-2.63,0-5.2,1.06-7.07,2.93c-1.86,1.86-2.92,4.43-2.92,7.07c0,2.63,1.06,5.2,2.92,7.07    c1.87,1.86,4.44,2.93,7.07,2.93c2.64,0,5.21-1.07,7.069-2.93c1.87-1.86,2.931-4.44,2.931-7.07c0-2.64-1.061-5.21-2.931-7.07    C136.58,190.58,134.01,189.52,131.37,189.52z"/>
		<path id="XMLID_695_" d="M224.6,189.52c-2.63,0-5.21,1.06-7.07,2.92c-1.859,1.87-2.93,4.44-2.93,7.08c0,2.63,1.07,5.21,2.93,7.07    c1.86,1.86,4.44,2.93,7.07,2.93s5.21-1.07,7.07-2.93c1.859-1.87,2.93-4.44,2.93-7.07c0-2.64-1.07-5.21-2.93-7.08    C229.81,190.58,227.229,189.52,224.6,189.52z"/>
		<path id="XMLID_696_" d="M303,125.902h52.376c5.522,0,10-4.477,10-10s-4.478-10-10-10H303c-5.522,0-10,4.477-10,10    S297.478,125.902,303,125.902z"/>
		<path id="XMLID_697_" d="M303,190.5h52.376c5.522,0,10-4.477,10-10s-4.478-10-10-10H303c-5.522,0-10,4.477-10,10    S297.478,190.5,303,190.5z"/>
		<path id="XMLID_698_" d="M395.38,125.9c2.63,0,5.2-1.07,7.07-2.93c1.859-1.86,2.93-4.44,2.93-7.07s-1.07-5.21-2.93-7.07    c-1.87-1.86-4.44-2.93-7.07-2.93c-2.64,0-5.21,1.07-7.07,2.93c-1.87,1.86-2.93,4.44-2.93,7.07c0,2.64,1.06,5.21,2.93,7.07    C390.17,124.83,392.74,125.9,395.38,125.9z"/>
		<path id="XMLID_699_" d="M395.38,190.5c2.63,0,5.2-1.07,7.07-2.93c1.859-1.86,2.93-4.44,2.93-7.07c0-2.63-1.07-5.21-2.93-7.07    c-1.87-1.86-4.44-2.93-7.07-2.93c-2.64,0-5.21,1.07-7.07,2.93c-1.87,1.86-2.93,4.44-2.93,7.07c0,2.63,1.06,5.21,2.93,7.07    C390.17,189.43,392.74,190.5,395.38,190.5z"/>
		<path id="XMLID_700_" d="M303,255.098h52.376c5.522,0,10-4.477,10-10s-4.478-10-10-10H303c-5.522,0-10,4.477-10,10    S297.478,255.098,303,255.098z"/>
		<path id="XMLID_701_" d="M395.38,255.1c2.63,0,5.2-1.07,7.07-2.93c1.859-1.86,2.93-4.44,2.93-7.07c0-2.63-1.07-5.21-2.93-7.07    c-1.87-1.86-4.44-2.93-7.07-2.93c-2.64,0-5.21,1.07-7.07,2.93c-1.87,1.86-2.93,4.44-2.93,7.07c0,2.63,1.06,5.21,2.93,7.07    C390.17,254.03,392.74,255.1,395.38,255.1z"/>
	</g>
</g>















</svg>
