<?xml version="1.0" encoding="iso-8859-1"?>
<!-- Generator: Adobe Illustrator 19.0.0, SVG Export Plug-In . SVG Version: 6.00 Build 0)  -->
<svg xmlns="http://www.w3.org/2000/svg" xmlns:xlink="http://www.w3.org/1999/xlink" version="1.1" id="Layer_1" x="0px" y="0px" viewBox="0 0 512.002 512.002" style="enable-background:new 0 0 512.002 512.002;" xml:space="preserve" width="512" height="512">
<g id="XMLID_1978_">
	<circle id="XMLID_2764_" style="fill:#FEDA9B;" cx="115.489" cy="152.958" r="38.147"/>
	<path id="XMLID_2763_" style="fill:#36D28F;" d="M202.727,104.002c-10.076,0-18.244,8.169-18.244,18.244   c0,19.024-7.735,36.27-20.231,48.764c-12.492,12.49-29.744,20.231-48.763,20.23c-38.043,0-68.993-30.95-68.993-68.993   c-0.001-10.076-8.169-18.244-18.244-18.244c-10.076,0-18.244,8.168-18.244,18.244c0.001,43.808,26.847,81.46,64.951,97.379v90.712   h91.609v-95.83c8.637-4.801,16.537-10.773,23.475-17.711c19.1-19.1,30.93-45.47,30.931-74.551   C220.971,112.171,212.803,104.003,202.727,104.002z"/>
	<g id="XMLID_2735_">
		<path id="XMLID_2736_" style="fill:#D8D8E4;" d="M166.566,311.464v167.635c0,12.649-10.254,22.904-22.904,22.904h0    c-12.649,0-22.904-10.254-22.904-22.904v-67.591v-43.185v110.776c0,12.649-10.254,22.904-22.904,22.904h0    c-12.649,0-22.904-10.254-22.904-22.904V311.464H166.566z"/>
	</g>
	<g id="XMLID_2898_">
		<path id="XMLID_2915_" style="fill:#4DBAF6;" d="M470.825,255.934H249.166h0c-17.215,0-31.171,13.956-31.171,31.171v41.07    c0,8.704,7.056,15.76,15.76,15.76h252.481c8.704,0,15.76-7.056,15.76-15.76v-41.07    C501.995,269.889,488.04,255.934,470.825,255.934L470.825,255.934z"/>
		<path id="XMLID_2914_" style="fill:#C9F3FF;" d="M475.433,255.934l-15.903-61.147c-4.113-15.814-18.39-26.853-34.73-26.853    H295.184c-16.324,0-30.591,11.017-34.719,26.811l-15.994,61.189H475.433z"/>
		<g id="XMLID_863_">
			<path id="XMLID_2917_" style="fill:#898998;" d="M276.727,383.932h-11.062c-7.184,0-13.008-5.824-13.008-13.008v-26.99h37.078     v26.99C289.735,378.108,283.911,383.932,276.727,383.932z"/>
			<path id="XMLID_2916_" style="fill:#898998;" d="M454.238,383.932h-11.062c-7.184,0-13.008-5.824-13.008-13.008v-26.99h37.078     v26.99C467.246,378.108,461.422,383.932,454.238,383.932z"/>
		</g>
	</g>
	<g id="XMLID_1353_">
		<path id="XMLID_1480_" d="M202.728,94.002C202.728,94.002,202.728,94.002,202.728,94.002c-7.545,0-14.638,2.938-19.973,8.272    c-5.334,5.335-8.272,12.428-8.272,19.972c0,12.445-3.86,24.303-10.99,34.241c0.085-1.167,0.143-2.341,0.143-3.53    c0-26.548-21.599-48.146-48.147-48.146c-26.548,0-48.146,21.599-48.146,48.146c0,1.183,0.058,2.353,0.142,3.515    c-6.907-9.66-10.989-21.472-10.989-34.226c-0.001-15.573-12.671-28.243-28.244-28.243c-15.574,0-28.245,12.67-28.245,28.244    c0,44.462,25.28,84.512,64.951,103.829v84.262c0,0.167,0.017,0.33,0.025,0.495c-0.013,0.209-0.032,0.418-0.032,0.631v167.635    c0,18.143,14.761,32.903,32.904,32.903c8.897,0,16.975-3.555,22.904-9.313c5.928,5.757,14.007,9.313,22.904,9.313    c18.143,0,32.904-14.761,32.904-32.903V311.464c0-0.19-0.018-0.375-0.028-0.563c0.01-0.188,0.028-0.373,0.028-0.563v-90.123    c7.44-4.651,14.333-10.133,20.546-16.346c21.834-21.835,33.859-50.822,33.859-81.623    C230.97,106.674,218.301,94.004,202.728,94.002z M115.489,124.811c15.521,0,28.147,12.626,28.147,28.146    s-12.626,28.147-28.147,28.147c-15.52,0-28.146-12.627-28.146-28.147S99.969,124.811,115.489,124.811z M143.662,492.002    c-7.115,0-12.904-5.788-12.904-12.903v-67.592v-43.185c0-5.522-4.477-10-10-10s-10,4.478-10,10v43.185v67.592    c0,7.115-5.789,12.903-12.904,12.903s-12.904-5.788-12.904-12.903V320.338h71.615v158.761    C156.566,486.214,150.778,492.002,143.662,492.002z M182.969,189.727c-6.308,6.309-13.461,11.705-21.262,16.041    c-3.173,1.764-5.142,5.109-5.142,8.74v85.83H84.958v-80.712c0-4.033-2.423-7.672-6.145-9.228    c-35.723-14.924-58.805-49.525-58.806-88.151c0-4.546,3.699-8.244,8.245-8.244c4.545,0,8.244,3.698,8.244,8.244    c0,43.557,35.436,78.993,78.993,78.993c21.068,0,40.896-8.225,55.833-23.159c14.936-14.933,23.161-34.762,23.161-55.835    c0-2.202,0.857-4.272,2.415-5.829c1.557-1.558,3.627-2.415,5.829-2.415c4.546,0.001,8.245,3.699,8.245,8.244    C210.971,147.705,201.027,171.67,182.969,189.727z"/>
		<path id="XMLID_1491_" d="M359.997,333.932c-2.64,0-5.21,1.07-7.07,2.93c-1.86,1.86-2.93,4.44-2.93,7.07s1.07,5.21,2.93,7.07    c1.86,1.859,4.44,2.93,7.07,2.93s5.21-1.07,7.07-2.93c1.86-1.86,2.93-4.44,2.93-7.07s-1.07-5.21-2.93-7.07    C365.207,335.002,362.627,333.932,359.997,333.932z"/>
		<path id="XMLID_1495_" d="M254.057,292.862c-1.86,1.86-2.93,4.44-2.93,7.07s1.07,5.21,2.93,7.07c1.86,1.859,4.43,2.93,7.07,2.93    c2.63,0,5.21-1.07,7.07-2.93c1.86-1.86,2.93-4.44,2.93-7.07s-1.07-5.21-2.93-7.07c-1.86-1.859-4.44-2.93-7.07-2.93    C258.487,289.932,255.917,291.002,254.057,292.862z"/>
		<path id="XMLID_1496_" d="M428.867,299.933c0-5.522-4.477-10-10-10H301.124c-5.523,0-10,4.478-10,10s4.477,10,10,10h117.743    C424.39,309.933,428.867,305.456,428.867,299.933z"/>
		<path id="XMLID_1497_" d="M465.937,307.002c1.86-1.86,2.93-4.44,2.93-7.07s-1.07-5.21-2.93-7.07c-1.86-1.859-4.44-2.93-7.07-2.93    s-5.21,1.07-7.07,2.93c-1.86,1.86-2.93,4.44-2.93,7.07s1.07,5.21,2.93,7.07c1.86,1.859,4.44,2.93,7.07,2.93    S464.077,308.862,465.937,307.002z"/>
		<path id="XMLID_1508_" d="M489.752,250.56l4.002-7.34h8.242c5.523,0,10-4.478,10-10s-4.477-10-10-10h-14.179    c-3.66,0-7.028,2-8.78,5.213l-0.286,0.525l-9.542-36.688c-5.258-20.217-23.52-34.337-44.409-34.337H295.184    c-20.863,0-39.119,14.098-44.394,34.282l-9.586,36.675l-0.249-0.457c-1.752-3.213-5.12-5.213-8.78-5.213h-14.179    c-5.523,0-10,4.478-10,10s4.477,10,10,10h8.242l4.001,7.34c-13.201,6.865-22.243,20.664-22.243,36.544v41.07    c0,14.203,11.556,25.759,25.76,25.759h8.902v16.99c0,12.688,10.321,23.009,23.008,23.009h11.062    c12.687,0,23.008-10.321,23.008-23.009v-16.99h20.26c5.523,0,10-4.478,10-10s-4.477-10-10-10h-30.26h-37.078h-18.902    c-3.176,0-5.76-2.583-5.76-5.759v-41.07c0-11.674,9.497-21.171,21.171-21.171h221.658c11.674,0,21.171,9.497,21.171,21.171v41.07    c0,3.176-2.584,5.759-5.76,5.759h-18.989h-37.078h-30.173c-5.523,0-10,4.478-10,10s4.477,10,10,10h20.173v16.99    c0,12.688,10.321,23.009,23.008,23.009h11.062c12.687,0,23.008-10.321,23.008-23.009v-16.99h8.989    c14.204,0,25.76-11.556,25.76-25.759v-41.07C511.995,271.224,502.953,257.426,489.752,250.56z M279.736,353.933v16.99    c0,1.659-1.35,3.009-3.008,3.009h-11.062c-1.659,0-3.008-1.35-3.008-3.009v-16.99H279.736z M270.139,197.273    c2.977-11.387,13.275-19.34,25.044-19.34H424.8c11.785,0,22.086,7.966,25.052,19.37l12.647,48.63H257.42L270.139,197.273z     M457.246,370.923c0,1.659-1.35,3.009-3.008,3.009h-11.062c-1.659,0-3.008-1.35-3.008-3.009v-16.99h17.078V370.923z"/>
		<path id="XMLID_1511_" d="M449.455,136.653c1.527,3.976,5.317,6.416,9.336,6.416c1.192,0,2.405-0.215,3.584-0.668    c5.155-1.981,7.729-7.766,5.749-12.922L420.842,6.416c-1.981-5.155-7.767-7.728-12.921-5.748    c-5.155,1.981-7.729,7.766-5.748,12.922L449.455,136.653z"/>
		<path id="XMLID_1512_" d="M257.615,142.401c1.18,0.453,2.392,0.668,3.584,0.668c4.019,0,7.809-2.44,9.336-6.416l47.283-123.063    c1.981-5.156-0.593-10.94-5.748-12.922c-5.154-1.979-10.94,0.593-12.921,5.748l-47.283,123.063    C249.885,134.635,252.459,140.419,257.615,142.401z"/>
		<path id="XMLID_1520_" d="M359.952,138.002c5.523,0,10-4.478,10-10v-26c0-5.522-4.477-10-10-10s-10,4.478-10,10v26    C349.952,133.525,354.429,138.002,359.952,138.002z"/>
		<path id="XMLID_1524_" d="M359.952,52.002c5.523,0,10-4.478,10-10v-32c0-5.522-4.477-10-10-10s-10,4.478-10,10v32    C349.952,47.525,354.429,52.002,359.952,52.002z"/>
	</g>
</g>















</svg>
