<?xml version="1.0" encoding="iso-8859-1"?>
<!-- Generator: Adobe Illustrator 19.0.0, SVG Export Plug-In . SVG Version: 6.00 Build 0)  -->
<svg xmlns="http://www.w3.org/2000/svg" xmlns:xlink="http://www.w3.org/1999/xlink" version="1.1" id="Layer_1" x="0px" y="0px" viewBox="0 0 512.031 512.031" style="enable-background:new 0 0 512.031 512.031;" xml:space="preserve" width="512" height="512">
<g id="XMLID_954_">
	<polygon id="XMLID_2172_" style="fill:#FFFFFF;" points="110,106.016 66,10.016 22,106.016  "/>
	<polygon id="XMLID_2171_" style="fill:#FF5D5D;" points="22,106.016 110,106.016 90.75,64.016 41.25,64.016  "/>
	<polygon id="XMLID_2170_" style="fill:#FFFFFF;" points="490.031,106.016 446.031,10.016 402.031,106.016  "/>
	<polygon id="XMLID_2169_" style="fill:#FF5D5D;" points="402.031,106.016 490.031,106.016 470.781,64.016 421.281,64.016  "/>
	<polygon id="XMLID_2168_" style="fill:#FFFFFF;" points="109,502.016 65,406.016 21,502.016  "/>
	<polygon id="XMLID_2167_" style="fill:#FF5D5D;" points="21,502.016 109,502.016 89.75,460.016 40.25,460.016  "/>
	<polygon id="XMLID_1986_" style="fill:#FFFFFF;" points="490.031,502.016 446.031,406.016 402.031,502.016  "/>
	<polygon id="XMLID_1989_" style="fill:#FF5D5D;" points="402.031,502.016 490.031,502.016 470.781,460.016 421.281,460.016  "/>
	<g id="XMLID_866_">
		<path id="XMLID_2166_" style="fill:#72D8FF;" d="M287,416.016h-76c-30.376,0-55-24.624-55-55v-210c0-30.376,24.624-55,55-55h76    c30.376,0,55,24.624,55,55v210C342,391.391,317.376,416.016,287,416.016z"/>
		<rect id="XMLID_1615_" x="156" y="158.516" style="fill:#FFFFFF;" width="186" height="202.5"/>
		<polygon id="XMLID_858_" style="fill:#C9F3FF;" points="156,362.016 342,362.016 309.351,306.094 188.649,306.094   "/>
		<polygon id="XMLID_914_" style="fill:#C9F3FF;" points="342,158.516 156,158.516 188.649,220.887 309.351,220.887   "/>
		<g id="XMLID_1098_">
			<path id="XMLID_1350_" d="M10,116.016h12h88h12c5.522,0,10-4.478,10-10s-4.478-10-10-10h-5.583L75.091,5.849     C73.462,2.295,69.91,0.016,66,0.016s-7.462,2.279-9.091,5.833L15.583,96.016H10c-5.522,0-10,4.478-10,10     S4.478,116.016,10,116.016z M66,34.017l9.166,19.999H56.834L66,34.017z M47.667,74.016h36.666l10.083,22H37.584L47.667,74.016z"/>
			<path id="XMLID_1358_" d="M390.031,116.016h12h88h12c5.522,0,10-4.478,10-10s-4.478-10-10-10h-5.583L455.122,5.849     c-1.629-3.554-5.181-5.833-9.091-5.833s-7.462,2.279-9.091,5.833l-41.327,90.167h-5.583c-5.522,0-10,4.478-10,10     S384.509,116.016,390.031,116.016z M446.031,34.017l9.166,19.999h-18.332L446.031,34.017z M427.698,74.016h36.666l10.083,22     h-56.832L427.698,74.016z"/>
			<path id="XMLID_1362_" d="M122,492.016h-5.583l-41.327-90.167c-1.629-3.554-5.181-5.833-9.091-5.833s-7.462,2.279-9.091,5.833     l-41.327,90.167H10c-5.522,0-10,4.478-10,10s4.478,10,10,10h12h88h12c5.522,0,10-4.478,10-10S127.522,492.016,122,492.016z      M66,430.017l9.166,19.999H56.834L66,430.017z M37.584,492.016l10.083-22h36.666l10.083,22H37.584z"/>
			<path id="XMLID_1367_" d="M502.031,492.016h-5.583l-41.327-90.167c-1.629-3.554-5.181-5.833-9.091-5.833     s-7.462,2.279-9.091,5.833l-41.327,90.167h-5.583c-5.522,0-10,4.478-10,10s4.478,10,10,10h12h88h12c5.522,0,10-4.478,10-10     S507.554,492.016,502.031,492.016z M446.031,430.017l9.166,19.999h-18.332L446.031,430.017z M417.615,492.016l10.083-22h36.666     l10.083,22H417.615z"/>
			<path id="XMLID_1371_" d="M137,60.016h15c5.522,0,10-4.478,10-10s-4.478-10-10-10h-15c-5.522,0-10,4.478-10,10     S131.478,60.016,137,60.016z"/>
			<path id="XMLID_1372_" d="M205,60.016h15c5.522,0,10-4.478,10-10s-4.478-10-10-10h-15c-5.522,0-10,4.478-10,10     S199.478,60.016,205,60.016z"/>
			<path id="XMLID_1374_" d="M273,60.016h15c5.522,0,10-4.478,10-10s-4.478-10-10-10h-15c-5.522,0-10,4.478-10,10     S267.478,60.016,273,60.016z"/>
			<path id="XMLID_1375_" d="M356,40.016h-15c-5.522,0-10,4.478-10,10s4.478,10,10,10h15c5.522,0,10-4.478,10-10     S361.522,40.016,356,40.016z"/>
			<path id="XMLID_1376_" d="M356,452.016h-15c-5.522,0-10,4.478-10,10s4.478,10,10,10h15c5.522,0,10-4.478,10-10     S361.522,452.016,356,452.016z"/>
			<path id="XMLID_1378_" d="M288,452.016h-15c-5.522,0-10,4.478-10,10s4.478,10,10,10h15c5.522,0,10-4.478,10-10     S293.522,452.016,288,452.016z"/>
			<path id="XMLID_1379_" d="M220,452.016h-15c-5.522,0-10,4.478-10,10s4.478,10,10,10h15c5.522,0,10-4.478,10-10     S225.522,452.016,220,452.016z"/>
			<path id="XMLID_1380_" d="M152,452.016h-15c-5.522,0-10,4.478-10,10s4.478,10,10,10h15c5.522,0,10-4.478,10-10     S157.522,452.016,152,452.016z"/>
			<path id="XMLID_1382_" d="M458,146.016c0-5.522-4.478-10-10-10s-10,4.478-10,10v15c0,5.522,4.478,10,10,10s10-4.478,10-10     V146.016z"/>
			<path id="XMLID_1384_" d="M458,214.016c0-5.522-4.478-10-10-10s-10,4.478-10,10v15c0,5.522,4.478,10,10,10s10-4.478,10-10     V214.016z"/>
			<path id="XMLID_1385_" d="M458,282.016c0-5.522-4.478-10-10-10s-10,4.478-10,10v15c0,5.522,4.478,10,10,10s10-4.478,10-10     V282.016z"/>
			<path id="XMLID_1392_" d="M448,340.016c-5.522,0-10,4.478-10,10v15c0,5.522,4.478,10,10,10s10-4.478,10-10v-15     C458,344.493,453.522,340.016,448,340.016z"/>
			<path id="XMLID_1393_" d="M64,340.016c-5.522,0-10,4.478-10,10v15c0,5.522,4.478,10,10,10s10-4.478,10-10v-15     C74,344.493,69.522,340.016,64,340.016z"/>
			<path id="XMLID_1395_" d="M74,146.016c0-5.522-4.478-10-10-10s-10,4.478-10,10v15c0,5.522,4.478,10,10,10s10-4.478,10-10V146.016     z"/>
			<path id="XMLID_1413_" d="M74,214.016c0-5.522-4.478-10-10-10s-10,4.478-10,10v15c0,5.522,4.478,10,10,10s10-4.478,10-10V214.016     z"/>
			<path id="XMLID_1414_" d="M74,282.016c0-5.522-4.478-10-10-10s-10,4.478-10,10v15c0,5.522,4.478,10,10,10s10-4.478,10-10V282.016     z"/>
			<path id="XMLID_1419_" d="M287,426.016c35.293,0,64.086-28.28,64.958-63.367c0.02-0.309,0.033-0.617,0.023-0.926     c0.003-0.237,0.018-0.47,0.018-0.707v-210c0-35.841-29.159-65-65-65h-76c-35.841,0-65,29.159-65,65v210     c0,0.183,0.012,0.364,0.014,0.547c-0.02,0.451-0.006,0.901,0.034,1.348c1.009,34.966,29.747,63.105,64.952,63.105H287z      M178.648,223.345v80.044L166,325.054V199.182L178.648,223.345z M303.299,210.887h-32.694l42.371-42.371h12.503L303.299,210.887z      M242.319,210.887h-29.747l42.371-42.371h29.747L242.319,210.887z M191.123,204.051l-18.601-35.535h54.137L191.123,204.051z      M198.648,230.887h100.703v65.208H198.648V230.887z M319.352,223.345L332,199.182v125.872l-12.648-21.665V223.345z M211,106.016     h76c23.974,0,43.625,18.845,44.927,42.5H166.073C167.375,124.861,187.026,106.016,211,106.016z M166.146,364.471l28.244-48.376     H303.61l20.972,35.921H236c-5.522,0-10,4.478-10,10s4.478,10,10,10h94.635c-4.921,19.513-22.615,34-43.635,34h-76     C187.35,406.016,167.918,387.674,166.146,364.471z"/>
			<path id="XMLID_1429_" d="M196,352.016c-2.63,0-5.21,1.069-7.07,2.93s-2.93,4.44-2.93,7.07s1.069,5.21,2.93,7.069     c1.86,1.86,4.44,2.931,7.07,2.931s5.21-1.07,7.069-2.931c1.86-1.859,2.931-4.439,2.931-7.069s-1.07-5.21-2.931-7.07     C201.21,353.085,198.63,352.016,196,352.016z"/>
		</g>
	</g>
</g>















</svg>
