<?xml version="1.0" encoding="iso-8859-1"?>
<!-- Generator: Adobe Illustrator 19.0.0, SVG Export Plug-In . SVG Version: 6.00 Build 0)  -->
<svg xmlns="http://www.w3.org/2000/svg" xmlns:xlink="http://www.w3.org/1999/xlink" version="1.1" id="Layer_1" x="0px" y="0px" viewBox="0 0 512 512" style="enable-background:new 0 0 512 512;" xml:space="preserve" width="512" height="512">
<g id="XMLID_1118_">
	<path id="XMLID_1942_" style="fill:#FFC66C;" d="M497.667,400c-56.104,0-111.866,8.72-165.291,25.848L256,450.333l-76.375-24.485   C126.2,408.72,70.437,400,14.333,400L10,394.889V478h222.001c0,13.255,10.751,24,24.013,24s24.012-10.745,24.012-24H502v-79.351   L497.667,400z"/>
	<circle id="XMLID_2024_" style="fill:#898998;" cx="256" cy="182.672" r="172.672"/>
	<circle id="XMLID_2023_" style="fill:#FFFFFF;" cx="256" cy="182.672" r="128"/>
	<path id="XMLID_2270_" style="fill:#686C83;" d="M381.857,159.25l-83.279-20.093c-13.943-3.364-28.235-5.064-42.578-5.064h0   c-14.343,0-28.636,1.7-42.579,5.064l-83.277,20.093l3.639,45.11h67.519c18.285,0,33.108,14.823,33.108,33.108v69.873h43.181   v-69.873c0-18.285,14.823-33.108,33.108-33.108h67.519L381.857,159.25z"/>
	<g id="XMLID_668_">
		<path id="XMLID_824_" d="M502,390h-27.094c-53.746,0-107.641,8.678-158.842,25.368C370.646,378.203,435.575,358,502,358    c5.522,0,10-4.478,10-10s-4.478-10-10-10c-81.649,0-161.184,28.759-223.949,80.979L256,437.325l-22.051-18.345    C171.184,366.759,91.649,338,10,338c-5.522,0-10,4.478-10,10s4.478,10,10,10c66.425,0,131.354,20.203,185.936,57.368    C144.735,398.678,90.839,390,37.094,390H10c-5.522,0-10,4.478-10,10v78c0,5.522,4.478,10,10,10h213.503    c4.281,13.883,17.236,24,32.511,24s28.23-10.117,32.512-24h89.695c5.522,0,10-4.478,10-10s-4.478-10-10-10H286.81l-14.338-14.338    C335.778,425.066,405.474,410,474.906,410H492v58h-33.78c-5.522,0-10,4.478-10,10s4.478,10,10,10H502c5.522,0,10-4.478,10-10v-78    C512,394.478,507.522,390,502,390z M20,410h17.094c69.433,0,139.128,15.066,202.435,43.662L225.19,468H20V410z M256.014,492    c-7.253,0-13.234-5.534-13.94-12.597L256,465.476l13.954,13.954C269.235,486.48,263.257,492,256.014,492z"/>
		<path id="XMLID_836_" d="M418.22,468c-2.63,0-5.21,1.069-7.07,2.93c-1.859,1.86-2.93,4.44-2.93,7.07s1.07,5.21,2.93,7.069    c1.86,1.86,4.44,2.931,7.07,2.931s5.21-1.07,7.07-2.931c1.859-1.859,2.93-4.439,2.93-7.069s-1.07-5.21-2.93-7.07    C423.43,469.069,420.85,468,418.22,468z"/>
		<path id="XMLID_837_" d="M256,20h0.394c5.522,0,10-4.478,10-10s-4.478-10-10-10H256c-5.522,0-10,4.478-10,10S250.478,20,256,20z"/>
		<path id="XMLID_838_" d="M256,365.343c100.726,0,182.672-81.946,182.672-182.671c0-41.354-14.206-81.871-40.001-114.089    c-25.399-31.723-61.042-54.33-100.363-63.657c-5.367-1.271-10.763,2.049-12.038,7.423c-1.274,5.373,2.049,10.763,7.423,12.038    c73.586,17.454,124.979,82.543,124.979,158.285c0,89.697-72.975,162.671-162.672,162.671S93.328,272.369,93.328,182.672    c0-75.742,51.394-140.831,124.979-158.285c5.374-1.275,8.697-6.665,7.423-12.038c-1.274-5.375-6.668-8.692-12.038-7.423    c-39.321,9.327-74.964,31.935-100.363,63.657c-25.795,32.218-40.001,72.735-40.001,114.089    C73.328,283.396,155.274,365.343,256,365.343z"/>
		<path id="XMLID_1025_" d="M120.359,157.233c-0.035,0.17-0.072,0.34-0.098,0.512c-1.482,8.087-2.261,16.417-2.261,24.926    c0,76.094,61.906,138,138,138s138-61.906,138-138c0-8.5-0.778-16.821-2.256-24.9c-0.032-0.21-0.075-0.417-0.12-0.623    C379.618,93.207,323.375,44.672,256,44.672C188.596,44.672,132.332,93.25,120.359,157.233z M142.327,214.359h58.975    c12.741,0,23.107,10.366,23.107,23.108v58.903C184.726,285.332,153.399,254.029,142.327,214.359z M244.409,300.102v-62.635    c0-23.771-19.338-43.108-43.107-43.108h-62.724c-0.38-3.846-0.578-7.744-0.578-11.688c0-5.173,0.337-10.269,0.986-15.269    l76.781-18.525c26.318-6.35,54.146-6.35,80.465,0l76.781,18.525c0.648,5,0.986,10.095,0.986,15.269    c0,3.944-0.198,7.842-0.578,11.688h-62.724c-23.77,0-43.107,19.338-43.107,43.108v62.635c-3.814,0.374-7.68,0.57-11.591,0.57    S248.224,300.476,244.409,300.102z M287.591,296.371v-58.903c0-12.742,10.366-23.108,23.107-23.108h58.975    C358.601,254.029,327.274,285.332,287.591,296.371z M368.038,145.629l-67.114-16.193c-29.389-7.092-60.459-7.092-89.848,0    l-67.114,16.193C159.532,98.655,203.869,64.672,256,64.672S352.467,98.655,368.038,145.629z"/>
		<path id="XMLID_1066_" d="M283.221,181.129c0-15.01-12.211-27.221-27.221-27.221s-27.221,12.211-27.221,27.221    S240.99,208.351,256,208.351S283.221,196.139,283.221,181.129z M248.779,181.129c0-3.981,3.239-7.221,7.221-7.221    s7.221,3.239,7.221,7.221c0,3.982-3.239,7.222-7.221,7.222S248.779,185.111,248.779,181.129z"/>
	</g>
</g>















</svg>
