<?xml version="1.0" encoding="iso-8859-1"?>
<!-- Generator: Adobe Illustrator 19.0.0, SVG Export Plug-In . SVG Version: 6.00 Build 0)  -->
<svg xmlns="http://www.w3.org/2000/svg" xmlns:xlink="http://www.w3.org/1999/xlink" version="1.1" id="Layer_1" x="0px" y="0px" viewBox="0 0 512 512" style="enable-background:new 0 0 512 512;" xml:space="preserve" width="512" height="512">
<g id="XMLID_1398_">
	<polygon id="XMLID_1748_" style="fill:#FFC66C;" points="335,380 502,380 502,271.667 459,156 335,156  "/>
	<path id="XMLID_2347_" style="fill:#C9F3FF;" d="M469,196h-82.167c-6.535,0-11.833,5.298-11.833,11.833v52   c0,6.535,5.298,11.833,11.833,11.833H499.75L469,196z"/>
	<polygon id="XMLID_1238_" style="fill:#EDF2FA;" points="62.527,380 10,380 10,316 335,316 335,380 191.315,380  "/>
	<polygon id="XMLID_1237_" style="fill:#4DBAF6;" points="62.527,84 10,84 10,316 335,316 335,84 191.315,84  "/>
	<circle id="XMLID_1214_" style="fill:#898998;" cx="426" cy="392" r="36"/>
	<circle id="XMLID_1212_" style="fill:#898998;" cx="96" cy="392" r="36"/>
	<g id="XMLID_742_">
		<path id="XMLID_1060_" d="M511.373,268.183l-43-115.667C466.917,148.599,463.179,146,459,146H345V84c0-5.522-4.477-10-10-10H130    c-5.523,0-10,4.478-10,10s4.477,10,10,10h195v276H136.387C128.573,355.713,113.4,346,96,346s-32.573,9.713-40.387,24H20v-44h235    c5.523,0,10-4.478,10-10s-4.477-10-10-10H20V94h30c5.523,0,10-4.478,10-10s-4.477-10-10-10H10C4.477,74,0,78.478,0,84v296    c0,5.522,4.477,10,10,10h40.051c-0.029,0.664-0.051,1.329-0.051,2c0,25.364,20.636,46,46,46s46-20.636,46-46    c0-0.671-0.022-1.336-0.051-2H335h45.051c-0.029,0.664-0.051,1.329-0.051,2c0,25.364,20.636,46,46,46s46-20.636,46-46    c0-0.671-0.022-1.336-0.051-2H502c5.523,0,10-4.478,10-10V271.667C512,270.478,511.788,269.298,511.373,268.183z M96,418    c-14.336,0-26-11.663-26-26c0-2.199,0.277-4.334,0.793-6.375c0.928-1.361,1.527-2.963,1.687-4.693    C76.645,372.116,85.62,366,96,366c14.336,0,26,11.663,26,26S110.336,418,96,418z M487.614,261.667h-100.78    c-1.011,0-1.833-0.822-1.833-1.834v-52c0-1.011,0.822-1.833,1.833-1.833h80.086L487.614,261.667z M426,418    c-14.336,0-26-11.663-26-26s11.664-26,26-26s26,11.663,26,26S440.336,418,426,418z M466.387,370    c-7.814-14.287-22.987-24-40.387-24s-32.573,9.713-40.387,24H345V166h107.049l7.435,20h-72.65    C374.794,186,365,195.794,365,207.833v52c0,12.039,9.794,21.834,21.833,21.834H492v15h-11c-5.523,0-10,4.478-10,10s4.477,10,10,10    h11V370H466.387z"/>
		<path id="XMLID_1324_" d="M90,94c2.63,0,5.21-1.07,7.07-2.931C98.93,89.21,100,86.63,100,84s-1.07-5.21-2.93-7.07S92.63,74,90,74    c-2.63,0-5.21,1.069-7.07,2.93C81.07,78.79,80,81.37,80,84s1.07,5.21,2.93,7.069C84.79,92.93,87.37,94,90,94z"/>
		<path id="XMLID_1522_" d="M302.07,323.069c1.86-1.859,2.93-4.439,2.93-7.069s-1.07-5.21-2.93-7.07S297.63,306,295,306    c-2.63,0-5.21,1.069-7.07,2.93c-1.86,1.86-2.93,4.44-2.93,7.07s1.07,5.21,2.93,7.069c1.86,1.86,4.44,2.931,7.07,2.931    C297.63,326,300.21,324.93,302.07,323.069z"/>
		<path id="XMLID_1525_" d="M375,296.667c-5.523,0-10,4.478-10,10V311c0,5.522,4.477,10,10,10s10-4.478,10-10v-4.333    C385,301.145,380.523,296.667,375,296.667z"/>
	</g>
</g>















</svg>
