<?xml version="1.0" encoding="iso-8859-1"?>
<!-- Generator: Adobe Illustrator 19.0.0, SVG Export Plug-In . SVG Version: 6.00 Build 0)  -->
<svg xmlns="http://www.w3.org/2000/svg" xmlns:xlink="http://www.w3.org/1999/xlink" version="1.1" id="Layer_1" x="0px" y="0px" viewBox="0 0 512 512" style="enable-background:new 0 0 512 512;" xml:space="preserve" width="512" height="512">
<g id="XMLID_1390_">
	<g id="XMLID_2092_">
		<path id="XMLID_2110_" style="fill:#898998;" d="M90.565,216.114h-40v-44c0-11.046,8.954-20,20-20h0c11.046,0,20,8.954,20,20    V216.114z"/>
		<g id="XMLID_2559_">
			<g id="XMLID_1818_">
				<path id="XMLID_1819_" style="fill:#C9F3FF;" d="M99.755,332.961H83.696c-11.046,0-20-8.954-20-20v0c0-11.046,8.954-20,20-20      h29.231h299.277h29.231c11.046,0,20,8.954,20,20v0c0,11.046-8.954,20-20,20h-16.059"/>
			</g>
			<path id="XMLID_1813_" style="fill:#898998;" d="M147.053,502h-18.732c-8.621,0-15.61-6.989-15.61-15.61v-32.453h49.951v32.453     C162.663,495.011,155.674,502,147.053,502z"/>
			<path id="XMLID_1778_" style="fill:#898998;" d="M396.809,502h-18.732c-8.621,0-15.61-6.989-15.61-15.61v-32.453h49.951v32.453     C412.419,495.011,405.43,502,396.809,502z"/>
			<path id="XMLID_1777_" style="fill:#72D8FF;" d="M412.419,332.961H112.712h0c-23.277,0-42.146,18.87-42.146,42.146v59.447     c0,10.704,8.678,19.382,19.382,19.382h345.236c10.704,0,19.382-8.678,19.382-19.382v-59.447     C454.565,351.831,435.696,332.961,412.419,332.961L412.419,332.961z"/>
			<path id="XMLID_1776_" style="fill:#C9F3FF;" d="M420.338,332.961l-24.747-88.608c-3.862-13.829-16.463-23.392-30.821-23.392     H160.367c-14.343,0-26.933,9.543-30.809,23.352l-24.882,88.648H420.338z"/>
			<circle id="XMLID_1769_" style="fill:#FF5D5D;" cx="122.084" cy="393.449" r="21.854"/>
			<circle id="XMLID_1768_" style="fill:#FF5D5D;" cx="403.064" cy="393.449" r="21.854"/>
			<path id="XMLID_1760_" style="fill:#FFFFFF;" d="M313.136,408.425H211.994c-5.076,0-8.836-4.718-7.702-9.666l4.964-21.66     c0.823-3.591,4.018-6.136,7.702-6.136h91.214c3.684,0,6.879,2.546,7.702,6.136l4.964,21.66     C321.972,403.706,318.212,408.425,313.136,408.425z"/>
		</g>
		<polygon id="XMLID_1032_" style="fill:#FF5D5D;" points="162.565,125 162.565,203.564 262.535,243.229 362.565,203.541     362.565,125   "/>
		<path id="XMLID_1033_" style="fill:#FE8F8D;" d="M454.507,86.166l-191.971,76.167L70.565,86.166L262.536,10L454.507,86.166z"/>
	</g>
	<g id="XMLID_1553_">
		<path id="XMLID_1661_" d="M471.434,312.961c0-16.542-13.458-30-30-30h-24.678l-11.533-41.297    c-4.666-16.706-19.226-28.746-36.22-30.479c2.216-1.866,3.562-4.642,3.562-7.645v-74.105l85.629-33.974    c3.811-1.512,6.313-5.195,6.313-9.295s-2.502-7.783-6.313-9.295L388.26,49.125c-5.133-2.037-10.945,0.474-12.982,5.607    c-2.037,5.133,0.474,10.946,5.607,12.982l46.506,18.452l-164.855,65.407L97.68,86.167l164.855-65.408l43.942,17.435    c5.136,2.037,10.946-0.474,12.983-5.606c2.037-5.134-0.474-10.946-5.606-12.983L266.224,0.705c-2.369-0.939-5.009-0.939-7.376,0    L66.878,76.872c-3.811,1.512-6.313,5.195-6.313,9.295v57.667c-11.639,4.128-20,15.243-20,28.28v44c0,5.522,4.478,10,10,10h40    c5.522,0,10-4.478,10-10v-44c0-13.036-8.361-24.152-20-28.28v-42.942l72,28.567v74.106c0,2.992,1.337,5.758,3.538,7.624    c-16.957,1.744-31.495,13.759-36.173,30.423l-11.606,41.35H83.696c-16.542,0-30,13.458-30,30c0,12.868,8.146,23.868,19.551,28.119    c-7.892,9.141-12.682,21.031-12.682,34.027v59.447c0,16.201,13.181,29.382,29.382,29.382h12.765v22.453    c0,14.121,11.488,25.609,25.609,25.609h18.732c14.121,0,25.609-11.488,25.609-25.609v-22.453h49.844c5.522,0,10-4.478,10-10    s-4.478-10-10-10H89.947c-5.173,0-9.382-4.209-9.382-9.382v-59.447c0-17.726,14.421-32.146,32.146-32.146h299.707    c17.726,0,32.146,14.421,32.146,32.146v59.447c0,5.173-4.209,9.382-9.382,9.382H302.507c-5.522,0-10,4.478-10,10s4.478,10,10,10    h49.961v22.453c0,14.121,11.488,25.609,25.609,25.609h18.732c14.121,0,25.609-11.488,25.609-25.609v-22.453h12.765    c16.201,0,29.382-13.181,29.382-29.382v-59.447c0-12.996-4.79-24.886-12.682-34.027    C463.288,336.829,471.434,325.83,471.434,312.961z M80.565,206.114h-20v-34c0-5.514,4.486-10,10-10s10,4.486,10,10V206.114z     M152.663,463.937v22.453c0,3.093-2.517,5.609-5.609,5.609h-18.732c-3.093,0-5.609-2.517-5.609-5.609v-22.453H152.663z     M402.419,486.39c0,3.093-2.517,5.609-5.609,5.609h-18.732c-3.093,0-5.609-2.517-5.609-5.609v-22.453h29.951V486.39z     M441.434,302.961c5.514,0,10,4.486,10,10s-4.486,10-10,10h-13.507l-5.585-20H441.434z M385.96,247.043l21.202,75.918H283.816    l90.019-90.02C379.624,235.576,384.176,240.655,385.96,247.043z M187.746,322.961l70.626-70.626l0.475,0.189    c1.184,0.47,2.436,0.705,3.688,0.705s2.504-0.235,3.688-0.705l54.346-21.563h26.962l-91.999,92H187.746z M258.848,171.627    c1.184,0.47,2.436,0.705,3.688,0.705s2.504-0.235,3.688-0.705l86.342-34.257v59.379l-37.799,14.997c0,0-0.001,0-0.001,0.001    l-52.229,20.723l-89.97-35.696v-59.38L258.848,171.627z M139.186,247.016c2.653-9.453,11.363-16.055,21.181-16.055h44.134    l33.62,13.339l-78.627,78.627c-0.011,0.011-0.02,0.022-0.03,0.033h-41.595L139.186,247.016z M83.696,302.961h19.014l-5.614,20    h-13.4c-5.514,0-10-4.486-10-10S78.182,302.961,83.696,302.961z"/>
		<path id="XMLID_1670_" d="M262.565,443.939c-2.63,0-5.21,1.07-7.07,2.931c-1.86,1.859-2.93,4.43-2.93,7.069    c0,2.63,1.069,5.21,2.93,7.07s4.44,2.93,7.07,2.93s5.21-1.069,7.069-2.93c1.86-1.86,2.931-4.44,2.931-7.07    c0-2.64-1.07-5.21-2.931-7.069C267.775,445.009,265.195,443.939,262.565,443.939z"/>
		<path id="XMLID_1674_" d="M90.23,393.449c0,17.564,14.289,31.854,31.854,31.854s31.854-14.29,31.854-31.854    s-14.289-31.854-31.854-31.854S90.23,375.884,90.23,393.449z M133.937,393.449c0,6.536-5.317,11.854-11.854,11.854    s-11.854-5.318-11.854-11.854s5.317-11.854,11.854-11.854S133.937,386.913,133.937,393.449z"/>
		<path id="XMLID_1685_" d="M434.918,393.449c0-17.564-14.289-31.854-31.854-31.854s-31.854,14.289-31.854,31.854    s14.289,31.854,31.854,31.854S434.918,411.013,434.918,393.449z M391.211,393.449c0-6.536,5.317-11.854,11.854-11.854    s11.854,5.317,11.854,11.854s-5.317,11.854-11.854,11.854S391.211,399.985,391.211,393.449z"/>
		<path id="XMLID_1691_" d="M327.136,411.678c3.416-4.287,4.673-9.81,3.448-15.153l-4.964-21.663    c-1.877-8.185-9.053-13.9-17.449-13.9h-91.213c-8.396,0-15.572,5.716-17.449,13.902l-4.964,21.661    c-1.225,5.344,0.032,10.866,3.448,15.153s8.519,6.746,14.001,6.746h101.141C318.618,418.424,323.72,415.965,327.136,411.678z     M214.629,398.424l4.002-17.463H306.5l4.002,17.463H214.629z"/>
		<path id="XMLID_1692_" d="M347.135,53.561c5.523,0,10-4.478,10-10s-4.477-10-10-10h-0.01c-5.522,0-9.995,4.478-9.995,10    S341.612,53.561,347.135,53.561z"/>
	</g>
</g>















</svg>
