<?xml version="1.0" encoding="iso-8859-1"?>
<!-- Generator: Adobe Illustrator 19.0.0, SVG Export Plug-In . SVG Version: 6.00 Build 0)  -->
<svg xmlns="http://www.w3.org/2000/svg" xmlns:xlink="http://www.w3.org/1999/xlink" version="1.1" id="Layer_1" x="0px" y="0px" viewBox="0 0 512 512" style="enable-background:new 0 0 512 512;" xml:space="preserve" width="512" height="512">
<g id="XMLID_784_">
	<path id="XMLID_2126_" style="fill:#36D28F;" d="M369.667,60h-47.333C313.313,60,306,67.313,306,76.333V100h80V76.333   C386,67.313,378.687,60,369.667,60z"/>
	<path id="XMLID_1502_" style="fill:#FF5D5D;" d="M266,100V44c0-18.778-15.222-34-34-34H98c-18.778,0-34,15.222-34,34v46v364   c0,26.51,21.49,48,48,48h288c26.51,0,48-21.49,48-48V148c0-26.51-21.49-48-48-48H266z"/>
	<g id="XMLID_1503_">
		<rect id="XMLID_1504_" x="104" y="50" style="fill:#FFFFFF;" width="122" height="50"/>
	</g>
	<path id="XMLID_2523_" style="fill:#FF5D5D;" d="M400,100H266H64v354c0,26.51,21.49,48,48,48h288c26.51,0,48-21.49,48-48V148   C448,121.49,426.51,100,400,100z"/>
	<path id="XMLID_1821_" style="fill:#FFFFFF;" d="M341.766,194.572H170.234c-8.698,0-15.749,7.051-15.749,15.749v181.357   c0,8.698,7.051,15.749,15.749,15.749h171.533c8.698,0,15.749-7.051,15.749-15.749V210.322   C357.516,201.624,350.464,194.572,341.766,194.572z"/>
	<path id="XMLID_1541_" style="fill:#36D28F;" d="M208.388,315.888c0,26.295,21.317,47.612,47.612,47.612   s47.612-21.317,47.612-47.612c0-11.399-4.008-21.86-10.688-30.057h0.003L256,238.5l-36.751,47.083l0.028,0   C212.475,293.816,208.388,304.375,208.388,315.888z"/>
	<g id="XMLID_1370_">
		<path id="XMLID_1391_" d="M448,286.13c-2.63,0-5.21,1.06-7.07,2.93c-1.86,1.86-2.93,4.431-2.93,7.07c0,2.63,1.069,5.21,2.93,7.07    c1.86,1.859,4.44,2.93,7.07,2.93s5.21-1.07,7.069-2.93c1.86-1.86,2.931-4.44,2.931-7.07s-1.07-5.21-2.931-7.07    C453.21,287.189,450.63,286.13,448,286.13z"/>
		<path id="XMLID_1628_" d="M400,90h-4V76.333C396,61.813,384.188,50,369.667,50h-47.334C307.813,50,296,61.813,296,76.333V90h-20    V44c0-24.262-19.738-44-44-44H98C73.738,0,54,19.738,54,44v410c0,31.981,26.019,58,58,58h288c31.981,0,58-26.019,58-58V336.127    c0-5.522-4.478-10-10-10s-10,4.478-10,10V454c0,20.953-17.047,38-38,38H112c-20.953,0-38-17.047-38-38V44    c0-13.233,10.767-24,24-24h134c13.233,0,24,10.767,24,24v56c0,5.522,4.478,10,10,10h40h80h14c20.953,0,38,17.047,38,38v108.127    c0,5.522,4.478,10,10,10s10-4.478,10-10V148C458,116.019,431.981,90,400,90z M316,90V76.333c0-3.492,2.841-6.333,6.333-6.333    h47.334c3.492,0,6.333,2.841,6.333,6.333V90H316z"/>
		<path id="XMLID_1652_" d="M154.479,311c2.63,0,5.21-1.07,7.08-2.931c1.86-1.859,2.92-4.439,2.92-7.069s-1.06-5.21-2.92-7.07    c-1.87-1.86-4.439-2.93-7.08-2.93c-2.63,0-5.21,1.069-7.069,2.93c-1.86,1.86-2.931,4.44-2.931,7.07s1.07,5.21,2.931,7.069    C149.27,309.93,151.85,311,154.479,311z"/>
		<path id="XMLID_1653_" d="M387.071,164.585c-3.904-3.903-10.234-3.904-14.143,0l-21.77,21.769    c-2.912-1.145-6.079-1.781-9.393-1.781H170.233c-3.314,0-6.48,0.636-9.393,1.781l-21.77-21.769    c-3.906-3.904-10.236-3.904-14.143,0c-3.905,3.905-3.905,10.237,0,14.143l21.582,21.581c-1.305,3.079-2.026,6.463-2.026,10.012    V261c0,5.522,4.478,10,10,10s10-4.478,10-10v-50.679c0-3.17,2.579-5.749,5.749-5.749h171.533c3.17,0,5.749,2.579,5.749,5.749    v181.357c0,3.17-2.579,5.749-5.749,5.749H170.233c-3.17,0-5.749-2.579-5.749-5.749V341c0-5.522-4.478-10-10-10s-10,4.478-10,10    v50.679c0,3.549,0.722,6.933,2.026,10.012l-21.582,21.581c-3.905,3.905-3.905,10.237,0,14.143    c1.953,1.952,4.512,2.929,7.071,2.929c2.559,0,5.118-0.977,7.071-2.929l21.77-21.769c2.912,1.145,6.079,1.781,9.393,1.781h171.533    c3.314,0,6.48-0.636,9.393-1.781l21.77,21.769c1.953,1.952,4.512,2.929,7.071,2.929s5.118-0.977,7.071-2.929    c3.905-3.905,3.905-10.237,0-14.143l-21.582-21.581c1.305-3.079,2.026-6.463,2.026-10.012V210.321    c0-3.549-0.722-6.933-2.026-10.012l21.582-21.581C390.977,174.822,390.977,168.49,387.071,164.585z"/>
		<path id="XMLID_1694_" d="M313.612,315.888c0-13.143-4.539-25.984-12.788-36.19c-0.004-0.006-0.009-0.012-0.013-0.018    l-36.927-47.331c-1.896-2.429-4.804-3.849-7.884-3.849c0,0,0,0-0.001,0c-3.08,0-5.988,1.419-7.883,3.847l-36.751,47.083    c-0.094,0.12-0.184,0.241-0.271,0.364c-8.199,10.194-12.707,22.981-12.707,36.094c0,31.768,25.845,57.612,57.612,57.612    S313.612,347.655,313.612,315.888z M218.388,315.888c0-8.724,3.054-17.224,8.599-23.936c0.202-0.244,0.391-0.496,0.566-0.756    l28.445-36.441l28.91,37.055c0.085,0.115,0.173,0.228,0.265,0.34c5.521,6.773,8.439,14.982,8.439,23.738    c0,20.739-16.873,37.612-37.612,37.612S218.388,336.627,218.388,315.888z"/>
		<path id="XMLID_1697_" d="M236,100V50c0-5.522-4.478-10-10-10H104c-5.522,0-10,4.478-10,10v50c0,5.522,4.478,10,10,10h122    C231.522,110,236,105.522,236,100z M216,60v30H114V60H216z"/>
	</g>
</g>















</svg>
