<?xml version="1.0" encoding="iso-8859-1"?>
<!-- Generator: Adobe Illustrator 19.0.0, SVG Export Plug-In . SVG Version: 6.00 Build 0)  -->
<svg xmlns="http://www.w3.org/2000/svg" xmlns:xlink="http://www.w3.org/1999/xlink" version="1.1" id="Layer_1" x="0px" y="0px" viewBox="0 0 511.998 511.998" style="enable-background:new 0 0 511.998 511.998;" xml:space="preserve" width="512" height="512">
<g id="XMLID_1207_">
	<circle id="XMLID_1676_" style="fill:#898998;" cx="255.998" cy="255.997" r="246"/>
	<circle id="XMLID_1675_" style="fill:#686C83;" cx="255.998" cy="255.997" r="192"/>
	<path id="XMLID_1681_" style="fill:#FFFFFF;" d="M447.016,275.519c-5.033-1.342-10.318-2.067-15.773-2.067   c-33.74,0-61.091,27.351-61.091,61.091c0,21.336,10.945,40.107,27.52,51.033C424.8,355.93,442.752,317.747,447.016,275.519z"/>
	<path id="XMLID_1680_" style="fill:#FFFFFF;" d="M255.998,447.997c28.928,0,56.355-6.41,80.957-17.868   c-8.174-37.197-41.305-65.042-80.957-65.042s-72.784,27.844-80.957,65.042C199.642,441.587,227.069,447.997,255.998,447.997z"/>
	<path id="XMLID_1679_" style="fill:#FFFFFF;" d="M255.998,63.997c-50.93,0-97.221,19.838-131.588,52.198   c33.406,34.187,80.014,55.418,131.588,55.418s98.183-21.231,131.588-55.418C353.219,83.835,306.928,63.997,255.998,63.997z"/>
	<path id="XMLID_1678_" style="fill:#FFFFFF;" d="M80.753,273.452c-5.456,0-10.741,0.725-15.773,2.067   c4.264,42.228,22.216,80.411,49.345,110.057c16.574-10.926,27.52-29.697,27.52-51.033   C141.844,300.803,114.492,273.452,80.753,273.452z"/>
	<circle id="XMLID_1730_" style="fill:#898998;" cx="255.998" cy="255.997" r="45.818"/>
	<g id="XMLID_1139_">
		<path id="XMLID_1140_" d="M437.017,74.978C393.832,31.793,336.558,5.433,275.745,0.755c-60.144-4.624-120.114,12.1-168.852,47.1    c-4.486,3.222-5.511,9.47-2.29,13.956c3.222,4.487,9.47,5.51,13.956,2.29C212.751-3.541,340.734,6.979,422.875,89.12    c44.574,44.574,69.123,103.839,69.123,166.877S467.449,378.3,422.875,422.875c-92.017,92.016-241.739,92.016-333.754,0    C6.894,340.648-3.568,212.58,64.245,118.358c3.226-4.482,2.208-10.731-2.275-13.958c-4.482-3.227-10.732-2.209-13.958,2.275    C12.931,155.417-3.854,215.415,0.746,275.617c4.651,60.861,31.014,118.181,74.232,161.399    c48.352,48.352,112.639,74.98,181.02,74.98s132.667-26.629,181.02-74.98c48.352-48.352,74.98-112.64,74.98-181.02    C511.998,187.617,485.369,123.33,437.017,74.978z"/>
		<path id="XMLID_1141_" d="M82.049,92.049c2.565,0,5.13-0.981,7.083-2.941l0.375-0.374c3.919-3.891,3.941-10.223,0.05-14.142    c-3.892-3.919-10.223-3.941-14.142-0.05l-0.45,0.449c-3.898,3.912-3.887,10.244,0.025,14.142    C76.942,91.077,79.496,92.049,82.049,92.049z"/>
		<path id="XMLID_1305_" d="M225.78,66.096c-1.145-5.403-6.454-8.85-11.856-7.709c-36.085,7.647-69.528,25.302-96.377,50.544    c-0.042,0.039-0.086,0.072-0.127,0.112c-0.012,0.012-0.022,0.025-0.034,0.037c-6.274,5.911-12.188,12.235-17.688,18.945    c-29.471,35.954-45.701,81.402-45.701,127.973c0,6.776,0.341,13.473,0.996,20.079c0.002,0.032,0.006,0.063,0.009,0.095    c4.389,44.062,22.996,83.999,51.155,115.149c0.518,0.736,1.117,1.379,1.779,1.93c17.475,18.837,38.486,34.345,61.972,45.456    c0.572,0.342,1.184,0.631,1.832,0.857c25.66,11.825,54.2,18.435,84.258,18.435s58.597-6.609,84.258-18.435    c0.648-0.226,1.26-0.514,1.832-0.857c23.486-11.111,44.498-26.618,61.972-45.456c0.662-0.551,1.261-1.194,1.779-1.93    c28.159-31.15,46.766-71.087,51.155-115.149c0.002-0.032,0.007-0.063,0.009-0.095c0.655-6.606,0.996-13.303,0.996-20.079    c0-46.511-16.193-91.914-45.597-127.845c-5.523-6.749-11.466-13.108-17.772-19.051c-0.019-0.019-0.035-0.04-0.054-0.058    c-0.062-0.06-0.129-0.111-0.192-0.169c-26.754-25.131-60.051-42.738-95.979-50.415c-5.401-1.153-10.715,2.289-11.869,7.689    c-1.154,5.401,2.289,10.715,7.689,11.869c29.637,6.333,56.378,19.891,78.539,38.568c-32.046,29.108-73.108,45.028-116.766,45.028    c-43.663,0-84.728-15.923-116.776-45.037c22.236-18.734,49.086-32.315,78.849-38.623C223.474,76.807,226.925,71.499,225.78,66.096    z M115.687,371.791c-20.455-24.742-34.506-54.964-39.586-88.101c1.547-0.141,3.097-0.238,4.652-0.238    c28.171,0,51.091,22.919,51.091,51.091C131.844,348.818,125.918,362.209,115.687,371.791z M187.03,424.412    c9.954-29.007,37.752-49.324,68.968-49.324s59.014,20.317,68.968,49.324c-21.282,8.748-44.569,13.586-68.968,13.586    S208.312,433.159,187.03,424.412z M396.308,371.791c-10.231-9.581-16.157-22.973-16.157-37.248    c0-28.171,22.919-51.091,51.091-51.091c1.555,0,3.106,0.097,4.652,0.238C430.815,316.827,416.763,347.048,396.308,371.791z     M387.382,130.329c31.517,33.07,50.616,77.714,50.616,125.668c0,2.602-0.068,5.189-0.177,7.764    c-2.186-0.203-4.381-0.31-6.579-0.31c-39.2,0-71.091,31.891-71.091,71.091c0,19.92,8.273,38.613,22.575,51.947    c-11.783,11.446-25.1,21.32-39.618,29.268c-5.746-15.473-15.593-29.333-28.514-39.853c-16.488-13.424-37.298-20.817-58.597-20.817    s-42.108,7.393-58.597,20.817c-12.921,10.52-22.768,24.379-28.514,39.853c-14.518-7.948-27.835-17.822-39.618-29.268    c14.302-13.334,22.575-32.027,22.575-51.947c0-39.2-31.891-71.091-71.091-71.091c-2.198,0-4.393,0.107-6.579,0.31    c-0.109-2.576-0.177-5.162-0.177-7.764c0-47.978,19.093-92.616,50.606-125.677c35.901,33.151,82.17,51.292,131.394,51.292    C305.217,181.612,351.482,163.474,387.382,130.329z"/>
		<path id="XMLID_1309_" d="M256.054,73.997c5.523,0,10-4.477,10-10s-4.477-10-10-10h-0.113c-5.523,0-10,4.477-10,10s4.477,10,10,10    H256.054z"/>
		<path id="XMLID_1312_" d="M255.998,311.816c30.778,0,55.818-25.04,55.818-55.818s-25.04-55.818-55.818-55.818    s-55.818,25.04-55.818,55.818S225.219,311.816,255.998,311.816z M255.998,220.179c19.75,0,35.818,16.068,35.818,35.818    s-16.068,35.818-35.818,35.818s-35.818-16.068-35.818-35.818S236.247,220.179,255.998,220.179z"/>
		<path id="XMLID_1319_" d="M255.998,265.997c2.63,0,5.21-1.07,7.07-2.93s2.93-4.44,2.93-7.07c0-2.63-1.07-5.21-2.93-7.07    c-1.86-1.86-4.44-2.93-7.07-2.93c-2.63,0-5.21,1.07-7.07,2.93c-1.86,1.86-2.93,4.44-2.93,7.07c0,2.63,1.07,5.21,2.93,7.07    C250.788,264.927,253.367,265.997,255.998,265.997z"/>
	</g>
</g>















</svg>
