<?xml version="1.0" encoding="iso-8859-1"?>
<!-- Generator: Adobe Illustrator 19.0.0, SVG Export Plug-In . SVG Version: 6.00 Build 0)  -->
<svg xmlns="http://www.w3.org/2000/svg" xmlns:xlink="http://www.w3.org/1999/xlink" version="1.1" id="Layer_1" x="0px" y="0px" viewBox="0 0 512 512" style="enable-background:new 0 0 512 512;" xml:space="preserve" width="512" height="512">
<g id="XMLID_1923_">
	<g id="XMLID_805_">
		<path id="XMLID_890_" style="fill:#72D8FF;" d="M144,42H30v0c0,53.019,42.981,96,96,96h18V42z"/>
		<path id="XMLID_820_" style="fill:#72D8FF;" d="M144,178H30v0c0,53.019,42.981,96,96,96h18V178z"/>
		<path id="XMLID_810_" style="fill:#72D8FF;" d="M144,314H30v0c0,53.019,42.981,96,96,96h18V314z"/>
	</g>
	<g id="XMLID_786_">
		<path id="XMLID_803_" style="fill:#72D8FF;" d="M368,42h114v0c0,53.019-42.981,96-96,96h-18V42z"/>
		<path id="XMLID_799_" style="fill:#72D8FF;" d="M368,178h114v0c0,53.019-42.981,96-96,96h-18V178z"/>
		<path id="XMLID_797_" style="fill:#72D8FF;" d="M368,314h114v0c0,53.019-42.981,96-96,96h-18V314z"/>
	</g>
	<path id="XMLID_785_" style="fill:#FFFFFF;" d="M336,10H176c-17.673,0-32,14.327-32,32v384c0,17.673,14.327,32,32,32h160   c17.673,0,32-14.327,32-32V42C368,24.327,353.673,10,336,10z"/>
	<rect id="XMLID_857_" x="228.127" y="458" style="fill:#72D8FF;" width="56" height="44"/>
	<circle id="XMLID_854_" style="fill:#36D28F;" cx="256" cy="370" r="48"/>
	<circle id="XMLID_853_" style="fill:#FFB954;" cx="256" cy="234" r="48"/>
	<circle id="XMLID_852_" style="fill:#FF5D5D;" cx="256" cy="98" r="48"/>
	<g id="XMLID_2654_">
		<path id="XMLID_2657_" d="M256,312c-31.981,0-58,26.019-58,58s26.019,58,58,58s58-26.019,58-58S287.981,312,256,312z M256,408    c-20.953,0-38-17.047-38-38s17.047-38,38-38s38,17.047,38,38S276.953,408,256,408z"/>
		<path id="XMLID_2660_" d="M256,176c-31.981,0-58,26.019-58,58s26.019,58,58,58s58-26.019,58-58S287.981,176,256,176z M256,272    c-20.953,0-38-17.047-38-38s17.047-38,38-38s38,17.047,38,38S276.953,272,256,272z"/>
		<path id="XMLID_2663_" d="M256,40c-31.981,0-58,26.019-58,58s26.019,58,58,58s58-26.019,58-58S287.981,40,256,40z M256,136    c-20.953,0-38-17.047-38-38s17.047-38,38-38s38,17.047,38,38S276.953,136,256,136z"/>
		<path id="XMLID_2664_" d="M256.13,20c2.63,0,5.21-1.07,7.07-2.93c1.86-1.86,2.93-4.44,2.93-7.07c0-2.63-1.07-5.21-2.93-7.07    C261.34,1.07,258.76,0,256.13,0c-2.64,0-5.21,1.07-7.07,2.93c-1.87,1.86-2.93,4.44-2.93,7.07c0,2.63,1.06,5.21,2.93,7.07    C250.92,18.93,253.5,20,256.13,20z"/>
		<path id="XMLID_2667_" d="M386,284c58.449,0,106-47.551,106-106c0-5.523-4.477-10-10-10H378v-20h8c58.449,0,106-47.551,106-106    c0-5.523-4.477-10-10-10H376.787C372.288,13.655,355.713,0,336,0h-39.873c-5.523,0-10,4.477-10,10s4.477,10,10,10H336    c12.131,0,22,9.869,22,22v384c0,12.131-9.869,22-22,22h-51.873h-56H176c-12.131,0-22-9.869-22-22V42c0-12.131,9.869-22,22-22    h40.127c5.523,0,10-4.477,10-10s-4.477-10-10-10H176c-19.713,0-36.288,13.655-40.787,32H30c-5.523,0-10,4.477-10,10    c0,58.449,47.551,106,106,106h8v20H30c-5.523,0-10,4.477-10,10c0,58.449,47.551,106,106,106h8v20H30c-5.523,0-10,4.477-10,10    c0,58.449,47.551,106,106,106h8v6c0,23.159,18.841,42,42,42h42.127v34c0,5.523,4.477,10,10,10s10-4.477,10-10v-34h36v34    c0,5.523,4.477,10,10,10s10-4.477,10-10v-34H336c23.159,0,42-18.841,42-42v-6h8c58.449,0,106-47.551,106-106    c0-5.523-4.477-10-10-10H378v-20H386z M126,128c-44.04,0-80.454-33.271-85.422-76H134v76H126z M126,264    c-44.04,0-80.454-33.271-85.422-76H134v76H126z M126,400c-44.04,0-80.454-33.271-85.422-76H134v76H126z M471.422,188    c-4.968,42.729-41.382,76-85.422,76h-8v-76H471.422z M386,128h-8V52h93.422C466.454,94.729,430.04,128,386,128z M471.422,324    c-4.968,42.729-41.382,76-85.422,76h-8v-76H471.422z"/>
	</g>
</g>















</svg>
