<?xml version="1.0" encoding="iso-8859-1"?>
<!-- Generator: Adobe Illustrator 19.0.0, SVG Export Plug-In . SVG Version: 6.00 Build 0)  -->
<svg xmlns="http://www.w3.org/2000/svg" xmlns:xlink="http://www.w3.org/1999/xlink" version="1.1" id="Layer_1" x="0px" y="0px" viewBox="0 0 511.859 511.859" style="enable-background:new 0 0 511.859 511.859;" xml:space="preserve" width="512" height="512">
<g id="XMLID_771_">
	<path id="XMLID_882_" style="fill:#C9F3FF;" d="M215.844,298.324l33.031,33.031l25.099,0l105.743,105.743l4.11,12.007   c1.448,4.231,5.426,7.074,9.898,7.074l11.348,0l2.111,10.951c0.949,4.923,5.258,8.481,10.272,8.481l11.499,0l0,8.134   c0,5.143,3.739,9.524,8.818,10.331l47.77,7.597c9.447,1.502,17.607-6.657,16.104-16.104l-7.597-47.77   c-0.808-5.079-5.188-8.818-10.331-8.818l-8.134,0l0-11.499c0-5.014-3.558-9.323-8.481-10.272l-10.951-2.111l0-11.348   c0-4.472-2.843-8.449-7.074-9.898l-12.007-4.11L331.327,274.001l0-25.099l-33.031-33.031L215.844,298.324z"/>
	<path id="XMLID_880_" style="fill:#898998;" d="M78.715,78.686L78.715,78.686c-49.029,49.029-49.029,128.519,0,177.548   l77.375,77.375c6.296,6.296,16.503,6.296,22.799,0L333.637,178.86c6.296-6.296,6.296-16.503,0-22.799l-77.375-77.375   C207.234,29.658,127.743,29.658,78.715,78.686z"/>
	<circle id="XMLID_855_" style="fill:#686C83;" cx="180.479" cy="180.45" r="48.24"/>
	<g id="XMLID_155_">
		<path id="XMLID_173_" d="M180.478,122.21c-15.556,0-30.182,6.058-41.182,17.058c-22.707,22.708-22.707,59.656,0,82.365    c11.355,11.355,26.267,17.032,41.183,17.031c14.912-0.001,29.829-5.678,41.182-17.031c11-11,17.059-25.626,17.059-41.183    s-6.059-30.182-17.059-41.182C210.661,128.268,196.035,122.21,180.478,122.21z M207.518,207.49    c-14.91,14.91-39.169,14.91-54.079,0c-14.91-14.91-14.91-39.17,0-54.081c7.223-7.223,16.825-11.2,27.039-11.2    c10.215,0,19.817,3.978,27.04,11.2v0c7.224,7.223,11.201,16.825,11.201,27.04S214.742,200.267,207.518,207.49z"/>
		<path id="XMLID_180_" d="M180.475,170.451c-2.63,0-5.21,1.07-7.069,2.93c-1.86,1.86-2.931,4.44-2.931,7.07    c0,2.63,1.07,5.21,2.931,7.07c1.859,1.86,4.439,2.93,7.069,2.93c2.641,0,5.21-1.07,7.08-2.93c1.86-1.86,2.931-4.44,2.931-7.07    c0-2.63-1.07-5.21-2.931-7.07C185.685,171.52,183.116,170.451,180.475,170.451z"/>
		<path id="XMLID_181_" d="M378.385,331.06c2.63,0,5.21-1.07,7.07-2.93c1.87-1.86,2.93-4.44,2.93-7.07s-1.06-5.21-2.93-7.07    c-1.86-1.86-4.44-2.93-7.07-2.93s-5.21,1.07-7.07,2.93c-1.859,1.86-2.93,4.44-2.93,7.07s1.07,5.21,2.93,7.07    C373.175,329.991,375.756,331.06,378.385,331.06z"/>
		<path id="XMLID_184_" d="M511.523,483.999l-7.598-47.769c-1.49-9.374-9.059-16.337-18.342-17.165v-1.583    c0-9.79-6.977-18.239-16.588-20.091l-2.845-0.548v-3.091c0-8.746-5.56-16.526-13.835-19.358l-9.814-3.359l-29.158-29.159    c-3.904-3.905-10.234-3.905-14.143,0c-3.905,3.905-3.905,10.237,0,14.142l30.798,30.798c1.079,1.079,2.39,1.896,3.833,2.39    l12.007,4.11c0.188,0.064,0.313,0.239,0.313,0.437v11.348c0,4.793,3.4,8.912,8.106,9.819l10.953,2.111    c0.216,0.042,0.373,0.232,0.373,0.453v11.5c0,5.523,4.478,10,10,10h8.135c0.228,0,0.419,0.164,0.455,0.389l7.598,47.769    c0.283,1.783-0.594,2.969-1.142,3.517c-0.548,0.548-1.731,1.426-3.517,1.141l-47.77-7.597c-0.226-0.036-0.389-0.228-0.389-0.456    v-8.134c0-5.523-4.478-10-10-10h-11.499c-0.221,0-0.411-0.157-0.453-0.375l-2.111-10.951c-0.907-4.706-5.026-8.107-9.819-8.107    h-11.348c-0.197,0-0.372-0.125-0.437-0.312l-4.109-12.007c-0.494-1.443-1.312-2.754-2.39-3.833L281.046,324.284    c-1.876-1.875-4.419-2.929-7.071-2.929h-20.957l-23.866-23.866l27.084-27.084l164.502,164.503    c1.953,1.953,4.512,2.929,7.071,2.929c2.559,0,5.119-0.977,7.071-2.929c3.905-3.905,3.905-10.237,0-14.142L270.377,256.262    l27.084-27.084l23.866,23.866l-0.001,20.957c0,2.652,1.054,5.196,2.929,7.072l18.358,18.358c1.953,1.953,4.512,2.929,7.071,2.929    s5.118-0.977,7.071-2.929c3.905-3.905,3.905-10.237,0-14.142l-15.43-15.429l0.001-20.957c0-2.652-1.054-5.196-2.929-7.072    l-26.795-26.795l29.105-29.105c10.185-10.185,10.185-26.757,0-36.942l-77.375-77.375c-36.03-36.03-87.462-47.487-133.297-34.39    c-3.232-6.266-7.394-11.998-12.483-17.088c-26.852-26.849-70.539-26.849-97.389,0s-26.85,70.538,0,97.388    c5.154,5.154,10.932,9.308,17.088,12.483c-13.097,45.835-1.64,97.267,34.39,133.297l77.375,77.375    c5.093,5.092,11.781,7.638,18.471,7.638s13.378-2.546,18.471-7.638l29.049-29.049l26.795,26.795    c1.876,1.875,4.419,2.929,7.071,2.929h20.957L371.007,442.53l3.359,9.813c2.832,8.275,10.612,13.835,19.358,13.835h3.092    l0.548,2.844c1.854,9.612,10.303,16.588,20.092,16.588h1.582c0.829,9.283,7.792,16.851,17.165,18.342l47.769,7.597    c1.3,0.207,2.595,0.309,3.878,0.309c6.323,0,12.337-2.474,16.922-7.059C510.287,499.285,512.748,491.703,511.523,483.999z     M34.307,103.383c-19.052-19.052-19.052-50.052,0-69.104c19.052-19.051,50.052-19.051,69.104-0.001    c3.012,3.013,5.561,6.343,7.66,9.936c-14.294,6.525-27.68,15.654-39.427,27.4v0c-11.747,11.746-20.875,25.133-27.4,39.426    C40.693,108.971,37.347,106.422,34.307,103.383z M171.817,326.537c-2.387,2.387-6.27,2.387-8.656,0l-77.375-77.375    c-30.464-30.464-40.321-73.845-29.585-112.675c4.181,0.776,8.419,1.174,12.658,1.174c17.635,0,35.269-6.712,48.694-20.137    c3.905-3.905,3.905-10.237,0-14.142s-10.235-3.905-14.143,0c-10.92,10.92-25.765,15.568-40.037,13.97    c5.487-11.428,12.952-22.136,22.412-31.595v0c45.052-45.05,118.355-45.051,163.405,0l77.375,77.375    c2.387,2.387,2.387,6.27,0,8.657L171.817,326.537z"/>
		<path id="XMLID_186_" d="M463.156,463.181c1.859-1.86,2.92-4.44,2.92-7.07c0-2.63-1.061-5.21-2.92-7.07    c-1.87-1.86-4.44-2.93-7.07-2.93c-2.64,0-5.21,1.07-7.07,2.93c-1.87,1.86-2.93,4.44-2.93,7.07c0,2.63,1.06,5.21,2.93,7.07    c1.86,1.86,4.431,2.93,7.07,2.93C458.716,466.11,461.286,465.04,463.156,463.181z"/>
		<path id="XMLID_187_" d="M413.543,86.355h9.908c5.522,0,10-4.477,10-10s-4.478-10-10-10h-9.908c-5.522,0-10,4.477-10,10    S408.02,86.355,413.543,86.355z"/>
		<path id="XMLID_188_" d="M483.634,86.355h9.908c5.522,0,10-4.477,10-10s-4.478-10-10-10h-9.908c-5.522,0-10,4.477-10,10    S478.112,86.355,483.634,86.355z"/>
		<path id="XMLID_189_" d="M453.543,126.355c5.522,0,10-4.477,10-10v-9.908c0-5.523-4.478-10-10-10s-10,4.477-10,10v9.908    C443.543,121.878,448.02,126.355,453.543,126.355z"/>
		<path id="XMLID_190_" d="M453.543,56.263c5.522,0,10-4.477,10-10v-9.908c0-5.523-4.478-10-10-10s-10,4.477-10,10v9.908    C443.543,51.786,448.02,56.263,453.543,56.263z"/>
		<path id="XMLID_191_" d="M76.327,403.57c-5.522,0-10,4.477-10,10v9.908c0,5.523,4.478,10,10,10s10-4.477,10-10v-9.908    C86.327,408.047,81.849,403.57,76.327,403.57z"/>
		<path id="XMLID_192_" d="M76.327,473.662c-5.522,0-10,4.477-10,10v9.908c0,5.523,4.478,10,10,10s10-4.477,10-10v-9.908    C86.327,478.139,81.849,473.662,76.327,473.662z"/>
		<path id="XMLID_193_" d="M116.327,443.57h-9.908c-5.522,0-10,4.477-10,10s4.478,10,10,10h9.908c5.522,0,10-4.477,10-10    S121.849,443.57,116.327,443.57z"/>
		<path id="XMLID_798_" d="M46.236,443.57h-9.909c-5.522,0-10,4.477-10,10s4.478,10,10,10h9.909c5.522,0,10-4.477,10-10    S51.758,443.57,46.236,443.57z"/>
	</g>
</g>















</svg>
