<?xml version="1.0" encoding="iso-8859-1"?>
<!-- Generator: Adobe Illustrator 19.0.0, SVG Export Plug-In . SVG Version: 6.00 Build 0)  -->
<svg xmlns="http://www.w3.org/2000/svg" xmlns:xlink="http://www.w3.org/1999/xlink" version="1.1" id="Layer_1" x="0px" y="0px" viewBox="0 0 512 512" style="enable-background:new 0 0 512 512;" xml:space="preserve" width="512" height="512">
<g id="XMLID_2142_">
	<g id="XMLID_2393_">
		<g id="XMLID_2218_">
			<path id="XMLID_1240_" style="fill:#FFFFFF;" d="M178,501.974h304c11.046,0,20-8.954,20-20V74.026c0-11.046-8.954-20-20-20H30     c-11.046,0-20,8.954-20,20v407.948c0,11.046,8.954,20,20,20h68H178z"/>
			<path id="XMLID_1246_" style="fill:#FFC66C;" d="M482,54.026H30c-11.046,0-20,8.954-20,20v102.07h492V74.026     C502,62.98,493.046,54.026,482,54.026z"/>
		</g>
	</g>
	<g id="XMLID_1937_">
		<path id="XMLID_2869_" style="fill:#72D8FF;" d="M272.959,440.526h123.409h34.486l31.483,0.054v-35.156    c0-17.032-13.807-30.839-30.839-30.839h-96.834h-0.008h-105.48c-17.032,0-30.839,13.807-30.839,30.839v35.156l36.618-0.054    H272.959z"/>
		<path id="XMLID_2868_" style="fill:#C9F3FF;" d="M365.827,309.206h-80.213c-9.9,0-18.841,5.918-22.709,15.03l-21.374,50.348    h168.38l-21.374-50.348C384.668,315.124,375.727,309.206,365.827,309.206z"/>
		<circle id="XMLID_2867_" style="fill:#898998;" cx="255.716" cy="440.526" r="21.474"/>
		<circle id="XMLID_2866_" style="fill:#898998;" cx="413.611" cy="440.526" r="21.474"/>
	</g>
	<g id="XMLID_261_">
		<path id="XMLID_262_" d="M469.07,183.1c1.86-1.86,2.93-4.44,2.93-7.07c0-2.64-1.07-5.21-2.93-7.07c-1.86-1.87-4.44-2.93-7.07-2.93    c-2.63,0-5.21,1.06-7.07,2.93c-1.86,1.86-2.93,4.43-2.93,7.07c0,2.63,1.07,5.21,2.93,7.07c1.86,1.86,4.44,2.93,7.07,2.93    C464.63,186.03,467.21,184.96,469.07,183.1z"/>
		<path id="XMLID_265_" d="M482,44.026h-34.254v-10c0-18.748-15.252-34-34-34s-34,15.252-34,34v10h-89.873v-10    c0-18.748-15.252-34-34-34s-34,15.252-34,34v10H132v-10c0-18.748-15.252-34-34-34s-34,15.252-34,34v10H30    c-16.542,0-30,13.458-30,30v407.947c0,16.542,13.458,30,30,30h67.667c5.523,0,10-4.477,10-10s-4.477-10-10-10H30    c-5.514,0-10-4.486-10-10V186.026h402c5.523,0,10-4.477,10-10s-4.477-10-10-10H20v-92c0-5.514,4.486-10,10-10h34v34.168    c0,18.748,15.252,34,34,34s34-15.252,34-34c0-5.523-4.477-10-10-10s-10,4.477-10,10c0,7.72-6.28,14-14,14s-14-6.28-14-14V64.026    h137.873v34.168c0,18.748,15.252,34,34,34s34-15.252,34-34c0-5.523-4.477-10-10-10s-10,4.477-10,10c0,7.72-6.28,14-14,14    s-14-6.28-14-14V64.026h137.873v34.168c0,18.748,15.252,34,34,34s34-15.252,34-34c0-5.523-4.477-10-10-10s-10,4.477-10,10    c0,7.72-6.28,14-14,14s-14-6.28-14-14V64.026H482c5.514,0,10,4.486,10,10v407.947c0,5.514-4.486,10-10,10H178    c-5.523,0-10,4.477-10,10s4.477,10,10,10h304c16.542,0,30-13.458,30-30V74.026C512,57.484,498.542,44.026,482,44.026z M84,34.026    c0-7.72,6.28-14,14-14s14,6.28,14,14v10H84V34.026z M241.873,34.026c0-7.72,6.28-14,14-14s14,6.28,14,14v10h-28V34.026z     M399.746,34.026c0-7.72,6.28-14,14-14s14,6.28,14,14v10h-28V34.026z"/>
		<path id="XMLID_268_" d="M137.87,491.97c-2.63,0-5.21,1.07-7.07,2.93s-2.93,4.44-2.93,7.07c0,2.64,1.07,5.21,2.93,7.07    c1.86,1.87,4.44,2.93,7.07,2.93c2.63,0,5.21-1.06,7.07-2.93c1.86-1.86,2.93-4.43,2.93-7.07c0-2.63-1.07-5.21-2.93-7.07    S140.5,491.97,137.87,491.97z"/>
		<path id="XMLID_271_" d="M198.353,450.58l27.531-0.043c4.193,12.46,15.977,21.464,29.833,21.464    c13.859,0,25.647-9.009,29.837-21.475h98.222c4.19,12.466,15.977,21.475,29.837,21.475c13.839,0,25.613-8.983,29.818-21.42h18.907    c5.523,0,10-4.477,10-10v-35.156c0-22.519-18.32-40.839-40.839-40.839h-14.969l-18.788-44.256    c-5.448-12.832-17.975-21.123-31.915-21.123h-80.213c-13.94,0-26.467,8.291-31.915,21.123l-18.788,44.256h-5.736    c-14.028,0-26.424,7.111-33.779,17.916H151c-5.523,0-10,4.477-10,10s4.477,10,10,10h37.453c-0.069,0.967-0.116,1.939-0.116,2.923    v25.156H117c-5.523,0-10,4.477-10,10s4.477,10,10,10h81.337C198.342,450.58,198.348,450.58,198.353,450.58z M255.716,452    c-6.327,0-11.475-5.147-11.475-11.475c0-6.327,5.147-11.474,11.475-11.474s11.475,5.147,11.475,11.474    C267.191,446.853,262.043,452,255.716,452z M413.611,452c-6.327,0-11.475-5.147-11.475-11.475c0-6.327,5.147-11.474,11.475-11.474    s11.475,5.147,11.475,11.474C425.086,446.853,419.938,452,413.611,452z M452.337,405.423v25.156h-8.871    c-4.174-12.494-15.975-21.528-29.855-21.528c-13.859,0-25.647,9.008-29.836,21.474h-48.054v-45.941h74.19h21.587    C442.989,384.584,452.337,393.933,452.337,405.423z M379.332,328.144l15.47,36.44h-59.081v-45.378h30.106    C371.726,319.206,377.027,322.714,379.332,328.144z M272.11,328.144c2.305-5.43,7.605-8.938,13.504-8.938h30.106v45.378H256.64    L272.11,328.144z M229.176,384.584h12.354h74.19v45.941h-30.168c-4.19-12.466-15.977-21.474-29.836-21.474    c-13.863,0-25.654,9.013-29.84,21.485l-17.539,0.028v-25.141C208.337,393.933,217.685,384.584,229.176,384.584z"/>
		<path id="XMLID_920_" d="M64,208c-5.523,0-10,4.477-10,10v48c0,5.523,4.477,10,10,10h48c5.523,0,10-4.477,10-10s-4.477-10-10-10    H74v-38C74,212.477,69.523,208,64,208z"/>
		<path id="XMLID_921_" d="M54,368.765c0,5.523,4.477,10,10,10h48c5.523,0,10-4.477,10-10s-4.477-10-10-10H74v-38    c0-5.523-4.477-10-10-10s-10,4.477-10,10V368.765z"/>
		<path id="XMLID_922_" d="M176,208c-5.523,0-10,4.477-10,10v48c0,5.523,4.477,10,10,10h48c5.523,0,10-4.477,10-10s-4.477-10-10-10    h-38v-38C186,212.477,181.523,208,176,208z"/>
		<path id="XMLID_1003_" d="M288,208c-5.523,0-10,4.477-10,10v48c0,5.523,4.477,10,10,10h48c5.523,0,10-4.477,10-10s-4.477-10-10-10    h-38v-38C298,212.477,293.523,208,288,208z"/>
		<path id="XMLID_1013_" d="M400,208c-5.523,0-10,4.477-10,10v48c0,5.523,4.477,10,10,10h48c5.523,0,10-4.477,10-10s-4.477-10-10-10    h-38v-38C410,212.477,405.523,208,400,208z"/>
	</g>
</g>















</svg>
