<?xml version="1.0" encoding="iso-8859-1"?>
<!-- Generator: Adobe Illustrator 19.0.0, SVG Export Plug-In . SVG Version: 6.00 Build 0)  -->
<svg xmlns="http://www.w3.org/2000/svg" xmlns:xlink="http://www.w3.org/1999/xlink" version="1.1" id="Layer_1" x="0px" y="0px" viewBox="0 0 512 512" style="enable-background:new 0 0 512 512;" xml:space="preserve" width="512" height="512">
<g id="XMLID_1364_">
	
		<rect id="XMLID_2039_" x="184.88" y="262.295" transform="matrix(0.7071 0.7071 -0.7071 0.7071 292.1234 -121.0136)" style="fill:#EDF2FA;" width="214.516" height="59.646"/>
	<g id="XMLID_497_">
		<g id="XMLID_2111_">
			<circle id="XMLID_2113_" style="fill:#4DBAF6;" cx="422.622" cy="422.601" r="79.399"/>
			<circle id="XMLID_2112_" style="fill:#FF5D5D;" cx="422.622" cy="422.601" r="26.466"/>
		</g>
	</g>
	<path id="XMLID_2033_" style="fill:#72D8FF;" d="M128.511,22.406L22.427,128.491c-16.542,16.542-16.542,43.361,0,59.903   L158.463,324.43l24.326-24.326L161.494,264.5L264.52,161.473l35.604,21.295l24.326-24.326L188.414,22.406   C171.873,5.865,145.053,5.865,128.511,22.406z"/>
	<path id="XMLID_1705_" style="fill:#EDF2FA;" d="M188.414,22.406c-16.542-16.542-43.361-16.542-59.903,0L22.427,128.491   c-16.542,16.542-16.542,43.361,0,59.903l6.799,6.799L195.213,29.205L188.414,22.406z"/>
	<circle id="XMLID_2029_" style="fill:#FFB954;" cx="160.694" cy="160.673" r="32.378"/>
	<g id="XMLID_364_">
		<path id="XMLID_367_" d="M190.66,190.639c16.521-16.523,16.521-43.408,0-59.931c0,0,0,0,0,0    c-16.523-16.522-43.409-16.521-59.933,0c-16.523,16.523-16.523,43.409,0,59.932c8.262,8.261,19.114,12.392,29.966,12.392    C171.546,203.031,182.399,198.9,190.66,190.639z M144.87,144.85c4.362-4.363,10.093-6.544,15.824-6.544    c5.73,0,11.461,2.182,15.823,6.544c8.725,8.726,8.725,22.922,0,31.647c-8.725,8.727-22.923,8.725-31.647,0    C136.145,167.771,136.145,153.575,144.87,144.85z"/>
		<path id="XMLID_368_" d="M57.2,157.22c-2.63,0-5.21,1.06-7.07,2.92c-1.859,1.87-2.93,4.44-2.93,7.08c0,2.63,1.07,5.2,2.93,7.06    c1.86,1.87,4.44,2.94,7.07,2.94c2.64,0,5.21-1.07,7.07-2.94c1.859-1.86,2.93-4.43,2.93-7.06c0-2.64-1.07-5.22-2.93-7.08    C62.41,158.28,59.83,157.22,57.2,157.22z"/>
		<path id="XMLID_371_" d="M422.622,386.135c-9.74,0-18.898,3.793-25.786,10.68c-14.218,14.218-14.218,37.354,0,51.572    c6.888,6.887,16.046,10.68,25.786,10.68s18.897-3.793,25.785-10.68c6.888-6.888,10.681-16.045,10.681-25.786    c0-9.74-3.793-18.898-10.681-25.785C441.52,389.928,432.362,386.135,422.622,386.135z M434.265,434.245    c-3.109,3.11-7.244,4.822-11.643,4.822s-8.534-1.713-11.644-4.823c-6.421-6.42-6.421-16.867,0-23.287    c3.109-3.11,7.245-4.823,11.644-4.823s8.533,1.712,11.643,4.822v0C440.686,417.378,440.686,427.825,434.265,434.245z"/>
		<path id="XMLID_374_" d="M485.837,359.387L485.837,359.387c-24.743-24.742-60.494-31.9-91.628-21.517l-45.628-45.628    c-3.906-3.905-10.236-3.905-14.143,0c-3.905,3.905-3.905,10.237,0,14.143l40.572,40.572c-5.538,3.486-10.785,7.613-15.603,12.431    c-4.818,4.818-8.945,10.064-12.431,15.602L206.061,234.074l28.033-28.033l43.777,43.776c1.953,1.953,4.512,2.929,7.071,2.929    s5.118-0.977,7.071-2.929c3.905-3.906,3.905-10.237,0-14.143l-43.777-43.776l17.841-17.841l28.913,17.293    c3.932,2.353,8.963,1.731,12.204-1.511l24.326-24.326c1.875-1.875,2.929-4.419,2.929-7.071s-1.054-5.196-2.929-7.071    L195.485,15.335C185.596,5.446,172.447,0,158.463,0c-13.985,0-27.134,5.446-37.022,15.335L15.356,121.419    c-9.889,9.889-15.335,23.038-15.335,37.023s5.446,27.133,15.335,37.022l136.036,136.036c1.876,1.875,4.419,2.929,7.071,2.929    s5.195-1.054,7.071-2.929l24.325-24.326c3.241-3.241,3.863-8.27,1.511-12.204l-17.293-28.914l17.841-17.841L337.89,394.188    c-10.384,31.134-3.225,66.885,21.517,91.628C376.292,502.701,398.742,512,422.622,512c23.879,0,46.329-9.299,63.215-26.184    C520.693,450.959,520.693,394.244,485.837,359.387z M152.911,269.632l17.293,28.914l-11.741,11.742L29.498,181.322    c-6.112-6.111-9.478-14.237-9.478-22.88s3.365-16.769,9.478-22.88L135.583,29.478c0,0,0,0,0,0    c6.111-6.111,14.236-9.477,22.88-9.477c8.514,0,16.522,3.272,22.601,9.212L78.432,131.843c-3.905,3.905-3.905,10.237,0,14.142    c1.953,1.953,4.512,2.929,7.071,2.929c2.559,0,5.119-0.977,7.071-2.929L195.213,43.348l115.095,115.095l-11.741,11.742    l-28.913-17.293c-3.932-2.352-8.962-1.729-12.204,1.511L154.422,257.428C151.181,260.669,150.559,265.699,152.911,269.632z     M471.694,471.673C458.587,484.781,441.159,492,422.622,492s-35.965-7.219-49.072-20.327c-27.059-27.058-27.059-71.085,0-98.144    c13.529-13.529,31.3-20.294,49.072-20.294c17.771,0,35.543,6.765,49.072,20.293C498.753,400.588,498.753,444.615,471.694,471.673z    "/>
		<path id="XMLID_376_" d="M305.79,263.59c-1.87,1.86-2.93,4.44-2.93,7.07c0,2.63,1.06,5.21,2.93,7.07    c1.86,1.86,4.44,2.93,7.07,2.93s5.21-1.07,7.07-2.93c1.859-1.86,2.93-4.43,2.93-7.07c0-2.63-1.07-5.21-2.93-7.07    c-1.86-1.86-4.44-2.93-7.07-2.93S307.651,261.73,305.79,263.59z"/>
	</g>
</g>















</svg>
