<?xml version="1.0" encoding="iso-8859-1"?>
<!-- Generator: Adobe Illustrator 19.0.0, SVG Export Plug-In . SVG Version: 6.00 Build 0)  -->
<svg xmlns="http://www.w3.org/2000/svg" xmlns:xlink="http://www.w3.org/1999/xlink" version="1.1" id="Layer_1" x="0px" y="0px" viewBox="0 0 512 512" style="enable-background:new 0 0 512 512;" xml:space="preserve" width="512" height="512">
<g id="XMLID_1012_">
	<path id="XMLID_1931_" style="fill:#FFC66C;" d="M223.991,97.197L223.991,97.197c-19.844,19.844-46.757,30.992-74.821,30.992H110   v-19.367c0-41.974,34.026-76,76-76h0c41.974,0,76,34.026,76,76v19.367h-32.599c-9.221,0-18.064-3.663-24.584-10.183l0,0   L223.991,97.197z"/>
	<path id="XMLID_1930_" style="fill:#FEDA9B;" d="M110,128.189v40.784c0,41.974,34.026,76,76,76h0c41.974,0,76-34.026,76-76v-40.784   h-28.757c-14.397,0-27.558-8.137-33.993-21.016l0,0l0,0c-14.627,13.512-33.809,21.016-53.722,21.016H110z"/>
	<path id="XMLID_1929_" style="fill:#FEDA9B;" d="M274,176.189h-12v-48h12c13.255,0,24,10.745,24,24v0   C298,165.444,287.255,176.189,274,176.189z"/>
	<path id="XMLID_1928_" style="fill:#FEDA9B;" d="M98,176.189h12v-48H98c-13.255,0-24,10.745-24,24v0   C74,165.444,84.745,176.189,98,176.189z"/>
	<polygon id="XMLID_1196_" style="fill:#FEDA9B;" points="222,239.173 222,287.173 186,323.173 150,287.173 150,239.173  "/>
	<path id="XMLID_815_" style="fill:#EDF2FA;" d="M274.333,287.173H222l-36,36l-36-36H97.667C49.25,287.173,10,326.422,10,374.839   v104.333h352V374.839C362,326.422,322.75,287.173,274.333,287.173z"/>
	<polygon id="XMLID_2829_" style="fill:#FF5D5D;" points="160.333,479.173 186,371.173 211.667,479.173  "/>
	<g id="XMLID_2805_">
		<polygon id="XMLID_2806_" style="fill:#FFFFFF;" points="185.692,322.864 150,287.173 143.024,287.173 114.377,315.921     153.525,355.031   "/>
		<polygon id="XMLID_2807_" style="fill:#FFFFFF;" points="186.308,322.864 218.475,355.031 257.623,315.921 228.976,287.173     222,287.173   "/>
	</g>
	<g id="XMLID_934_">
		<path id="XMLID_959_" style="fill:#4DBAF6;" d="M312.622,446.698h123.409h34.486L502,446.752v-35.156    c0-17.032-13.807-30.839-30.839-30.839h-96.834h-0.008h-105.48c-17.032,0-30.839,13.807-30.839,30.839v35.156l36.618-0.054    H312.622z"/>
		<path id="XMLID_957_" style="fill:#C9F3FF;" d="M405.49,315.378h-80.213c-9.9,0-18.841,5.918-22.709,15.03l-21.374,50.348h168.38    L428.2,330.409C424.331,321.296,415.39,315.378,405.49,315.378z"/>
		<circle id="XMLID_956_" style="fill:#898998;" cx="295.38" cy="457.173" r="22"/>
		<circle id="XMLID_955_" style="fill:#898998;" cx="453.275" cy="457.173" r="22"/>
	</g>
	
		<rect id="XMLID_883_" x="168.811" y="329.676" transform="matrix(0.7071 -0.7071 0.7071 0.7071 -190.7919 233.116)" style="fill:#FF5D5D;" width="34.377" height="34.377"/>
	<g id="XMLID_423_">
		<path id="XMLID_424_" d="M83.67,469.177c-2.64,0-5.21,1.061-7.07,2.92c-1.87,1.86-2.93,4.44-2.93,7.08c0,2.63,1.06,5.2,2.93,7.07    c1.86,1.859,4.44,2.93,7.07,2.93s5.2-1.07,7.07-2.93c1.86-1.87,2.93-4.44,2.93-7.07c0-2.64-1.07-5.21-2.93-7.08    C88.88,470.238,86.3,469.177,83.67,469.177z"/>
		<path id="XMLID_461_" d="M471.161,370.757h-14.969L437.404,326.5c-5.447-12.831-17.975-21.122-31.914-21.122h-62.641    c-0.288-0.366-0.594-0.723-0.94-1.055c-18.267-17.509-42.266-27.151-67.576-27.151h-41.206L232,276.041v-34.461    c19.377-12.32,33.527-32.157,38.266-55.392H274c18.748,0,34-15.252,34-34s-15.252-34-34-34h-2v-9.367c0-47.42-38.58-86-86-86    s-86,38.579-86,86v9.367h-2c-18.748,0-34,15.252-34,34s15.252,34,34,34h3.734c4.74,23.234,18.889,43.072,38.266,55.392v34.461    l-1.127,1.131H97.667C43.813,277.172,0,320.986,0,374.839v104.333c0,5.522,4.477,10,10,10h33.667c5.523,0,10-4.478,10-10    s-4.477-10-10-10H20v-94.333c0-42.826,34.841-77.667,77.667-77.667h21.276l-11.649,11.69c-3.895,3.908-3.888,10.233,0.016,14.133    l39.148,39.109c1.952,1.951,4.51,2.926,7.067,2.926c2.559,0,5.119-0.977,7.071-2.929l1.096-1.096l13.288,13.288l-22.548,94.878    h-28.765c-5.523,0-10,4.478-10,10s4.477,10,10,10h87.946c0.015,0,0.031,0.002,0.046,0.002c0.011,0,0.022-0.002,0.034-0.002H362    c5.523,0,10-4.478,10-10v-22.475h49.286c-0.002,0.159-0.012,0.315-0.012,0.475c0,17.645,14.355,32,32,32s32-14.355,32-32    c0-0.141-0.009-0.28-0.011-0.42H502c5.523,0,10-4.478,10-10v-35.156C512,389.078,493.68,370.757,471.161,370.757z     M418.995,334.316l15.47,36.441h-59.081v-45.379h30.106C411.389,325.378,416.69,328.887,418.995,334.316z M325.277,325.378h30.106    v45.379h-59.081l15.47-36.44C314.078,328.887,319.379,325.378,325.277,325.378z M274.333,297.172    c13.82,0,27.147,3.616,38.845,10.389c-8.766,3.259-16.016,9.989-19.816,18.94l-18.788,44.256h-5.736    c-22.519,0-40.839,18.32-40.839,40.839v35.156c0,2.655,1.056,5.201,2.935,7.077c1.875,1.872,4.416,2.923,7.065,2.923    c0.005,0,0.011,0,0.016,0l25.375-0.04c-0.002,0.154-0.012,0.306-0.012,0.46c0,4.243,0.837,8.292,2.343,12h-46.154l-22.548-94.878    l13.288-13.288l1.096,1.096c1.953,1.952,4.511,2.929,7.071,2.929c2.558,0,5.115-0.976,7.067-2.926l39.148-39.109    c3.903-3.899,3.911-10.225,0.016-14.133l-11.649-11.69H274.333z M283.379,457.172c0-6.617,5.383-12,12-12s12,5.383,12,12    s-5.383,12-12,12S283.379,463.79,283.379,457.172z M225.481,297.834l18.008,18.072l-25.011,24.986l-1.099-1.099l0,0l0,0    l-16.928-16.928L225.481,297.834z M288,152.189c0,7.72-6.28,14-14,14h-2v-28h2C281.72,138.189,288,144.469,288,152.189z     M120,108.822c0-36.392,29.607-66,66-66s66,29.607,66,66v9.367h-22.599c-3.997,0-7.849-0.94-11.303-2.716    c4.548-3.383,8.883-7.124,12.964-11.205c3.905-3.905,3.905-10.237,0-14.143c-3.905-3.905-10.237-3.905-14.143,0    c-18.096,18.097-42.157,28.063-67.749,28.063H120V108.822z M84,152.189c0-7.72,6.28-14,14-14h2v28h-2    C90.28,166.189,84,159.909,84,152.189z M120,168.973v-30.784h29.171c17.722,0,34.835-3.954,50.334-11.443    c8.225,7.397,18.75,11.443,29.896,11.443H252v30.784c0,36.393-29.607,66-66,66S120,205.365,120,168.973z M186,254.973    c9.06,0,17.793-1.418,26-4.027v32.084l-26,26l-26-26v-32.084C168.207,253.555,176.94,254.973,186,254.973z M128.511,315.906    l18.008-18.072l25.031,25.031l-16.928,16.928l0,0l0,0l-1.099,1.099L128.511,315.906z M186,336.698l10.166,10.166L186,357.03    l-10.166-10.166L186,336.698z M186,414.422l13.011,54.75h-26.023L186,414.422z M352,469.172h-26.964    c1.506-3.708,2.343-7.757,2.343-12c0-0.159-0.01-0.316-0.012-0.475H352V469.172z M453.274,469.172c-6.617,0-12-5.383-12-12    s5.383-12,12-12s12,5.383,12,12S459.891,469.172,453.274,469.172z M492,436.752h-14.109c-5.874-7.07-14.728-11.58-24.617-11.58    c-9.863,0-18.695,4.488-24.57,11.525H319.949c-5.875-7.038-14.707-11.525-24.57-11.525c-9.864,0-18.697,4.489-24.572,11.528    L248,436.737v-25.141c0-11.49,9.348-20.839,20.839-20.839h12.355h74.19v16.24c0,5.522,4.477,10,10,10s10-4.478,10-10v-16.24h74.19    h21.587c11.491,0,20.839,9.349,20.839,20.839V436.752z"/>
	</g>
</g>















</svg>
