<?xml version="1.0" encoding="iso-8859-1"?>
<!-- Generator: Adobe Illustrator 19.0.0, SVG Export Plug-In . SVG Version: 6.00 Build 0)  -->
<svg xmlns="http://www.w3.org/2000/svg" xmlns:xlink="http://www.w3.org/1999/xlink" version="1.1" id="Layer_1" x="0px" y="0px" viewBox="0 0 512 512" style="enable-background:new 0 0 512 512;" xml:space="preserve" width="512" height="512">
<g id="XMLID_1633_">
	<circle id="XMLID_2340_" style="fill:#72D8FF;" cx="256.127" cy="482" r="20"/>
	<rect id="XMLID_2284_" x="10" y="10" style="fill:#72D8FF;" width="492" height="64"/>
	<rect id="XMLID_2283_" x="24" y="74" style="fill:#FFFFFF;" width="464" height="344"/>
	<circle id="XMLID_2360_" style="fill:#FEDA9B;" cx="256.127" cy="321.002" r="44"/>
	<circle id="XMLID_1746_" style="fill:#FF5D5D;" cx="256.127" cy="181.794" r="44"/>
	<circle id="XMLID_1855_" style="fill:#FFB9B7;" cx="384" cy="321.002" r="44"/>
	<polygon id="XMLID_2346_" style="fill:#FFB954;" points="75.168,217.399 119.168,141.189 163.168,217.399  "/>
	<g id="XMLID_538_">
		<path id="XMLID_571_" d="M502,0H10C4.478,0,0,4.477,0,10v64c0,5.523,4.478,10,10,10h4v334c0,5.522,4.478,10,10,10h222.127v25.72    c-11.639,4.128-20,15.243-20,28.28c0,16.542,13.458,30,30,30s30-13.458,30-30c0-13.036-8.361-24.152-20-28.28V428H344    c5.522,0,10-4.478,10-10s-4.478-10-10-10H34V84h444v324h-54c-5.522,0-10,4.478-10,10s4.478,10,10,10h64c5.522,0,10-4.478,10-10V84    h4c5.522,0,10-4.477,10-10V10C512,4.477,507.522,0,502,0z M256.127,492c-5.514,0-10-4.486-10-10s4.486-10,10-10s10,4.486,10,10    S261.641,492,256.127,492z M24,64h-4V20h472v44h-4H24z"/>
		<path id="XMLID_588_" d="M384,408c-2.63,0-5.21,1.069-7.07,2.93S374,415.37,374,418s1.069,5.21,2.93,7.069    c1.86,1.86,4.44,2.931,7.07,2.931s5.21-1.07,7.069-2.931C392.93,423.21,394,420.63,394,418s-1.07-5.21-2.931-7.07    C389.21,409.069,386.63,408,384,408z"/>
		<path id="XMLID_591_" d="M294.311,143.61c-21.054-21.054-55.312-21.055-76.367,0c-10.199,10.199-15.816,23.76-15.816,38.184    c0,14.42,5.614,27.977,15.808,38.175c0.003,0.003,0.006,0.006,0.009,0.01c0.003,0.003,0.007,0.006,0.01,0.009    c10.198,10.193,23.754,15.807,38.174,15.807c14.424,0,27.984-5.617,38.184-15.816s15.816-23.76,15.816-38.184    S304.51,153.809,294.311,143.61z M270.269,181.794l15.917-15.918c2.573,4.845,3.941,10.276,3.941,15.918    s-1.367,11.073-3.941,15.918L270.269,181.794z M272.034,151.744l-15.907,15.908l-15.908-15.908    c4.958-2.621,10.432-3.934,15.908-3.934C261.602,147.81,267.076,149.123,272.034,151.744z M226.068,197.712    c-2.573-4.845-3.941-10.276-3.941-15.918s1.367-11.073,3.941-15.918l15.917,15.918L226.068,197.712z M240.21,211.854    l15.917-15.917l15.917,15.918c-4.845,2.573-10.275,3.94-15.917,3.94S245.055,214.427,240.21,211.854z"/>
		<path id="XMLID_597_" d="M217.943,282.817c-10.199,10.2-15.816,23.761-15.816,38.185s5.617,27.984,15.816,38.184    s23.76,15.816,38.184,15.816s27.984-5.617,38.184-15.816s15.816-23.76,15.816-38.184s-5.617-27.984-15.816-38.185    C273.256,261.763,238.998,261.763,217.943,282.817z M232.086,296.96c6.628-6.629,15.335-9.942,24.041-9.942    c5.475,0,10.949,1.313,15.907,3.934l-45.967,45.968c-2.573-4.845-3.94-10.276-3.94-15.917    C222.127,311.92,225.664,303.382,232.086,296.96z M280.168,345.043c-6.422,6.422-14.959,9.959-24.041,9.959    c-5.642,0-11.072-1.367-15.917-3.941l45.977-45.977c2.573,4.845,3.94,10.276,3.94,15.918    C290.127,330.083,286.59,338.621,280.168,345.043z"/>
		<path id="XMLID_601_" d="M330,321.002c0,29.775,24.225,54,54,54s54-24.225,54-54s-24.225-54-54-54S330,291.227,330,321.002z     M384,287.002c18.748,0,34,15.252,34,34s-15.252,34-34,34s-34-15.252-34-34S365.252,287.002,384,287.002z"/>
		<path id="XMLID_602_" d="M352,184.494v32.906c0,5.523,4.478,10,10,10s10-4.477,10-10v-32.906c0-12.487,9.625-22.762,21.845-23.811    l-0.402,0.402c-3.905,3.905-3.905,10.237,0,14.142c1.953,1.953,4.512,2.929,7.071,2.929s5.118-0.977,7.071-2.929l17.567-17.568    c3.905-3.905,3.905-10.236,0-14.142l-17.567-17.568c-3.905-3.905-10.235-3.905-14.143,0c-3.905,3.905-3.905,10.237,0,14.142    l0.546,0.546C370.666,141.645,352,160.927,352,184.494z"/>
		<path id="XMLID_603_" d="M375.5,331.002h17c5.522,0,10-4.478,10-10s-4.478-10-10-10h-17c-5.522,0-10,4.478-10,10    S369.978,331.002,375.5,331.002z"/>
		<path id="XMLID_613_" d="M171.828,222.399c1.786-3.094,1.786-6.906,0-10l-44-76.21c-1.786-3.094-5.088-5-8.66-5    s-6.874,1.906-8.66,5l-44,76.21c-1.786,3.094-1.786,6.906,0,10s5.088,5,8.66,5h88C166.74,227.399,170.042,225.494,171.828,222.399    z M92.488,207.399l26.68-46.21l26.68,46.21H92.488z"/>
		<path id="XMLID_616_" d="M96.168,267.002c-5.522,0-10,4.478-10,10v46v42c0,5.522,4.478,10,10,10s10-4.478,10-10v-32h13    c18.196,0,33-14.804,33-33s-14.804-33-33-33H96.168z M132.168,300.002c0,7.168-5.832,13-13,13h-13v-26h13    C126.336,287.002,132.168,292.834,132.168,300.002z"/>
	</g>
</g>















</svg>
