<?xml version="1.0" encoding="iso-8859-1"?>
<!-- Generator: Adobe Illustrator 19.0.0, SVG Export Plug-In . SVG Version: 6.00 Build 0)  -->
<svg xmlns="http://www.w3.org/2000/svg" xmlns:xlink="http://www.w3.org/1999/xlink" version="1.1" id="Layer_1" x="0px" y="0px" viewBox="0 0 512 512" style="enable-background:new 0 0 512 512;" xml:space="preserve" width="512" height="512">
<g id="XMLID_1828_">
	<rect id="XMLID_1301_" x="232" y="406" style="fill:#4DBAF6;" width="48" height="96"/>
	<polygon id="XMLID_1318_" style="fill:#FF5D5D;" points="173.986,406 58,290.014 58,125.986 173.986,10 338.014,10 454,125.986    454,290.014 338.014,406  "/>
	<polygon id="XMLID_1317_" style="fill:#FFFFFF;" points="192.073,362.333 101.667,271.927 101.667,144.073 192.073,53.667    319.927,53.667 410.333,144.073 410.333,271.927 319.927,362.333  "/>
	<g id="XMLID_28_">
		<path id="XMLID_29_" d="M256.13,43.67c-2.64,0-5.21,1.06-7.07,2.92c-1.87,1.87-2.93,4.45-2.93,7.08s1.06,5.21,2.93,7.07    c1.86,1.86,4.43,2.93,7.07,2.93c2.63,0,5.21-1.07,7.07-2.93c1.86-1.86,2.93-4.44,2.93-7.07s-1.07-5.21-2.93-7.08    C261.34,44.73,258.76,43.67,256.13,43.67z"/>
		<path id="XMLID_59_" d="M216,43.667h-23.926c-2.652,0-5.196,1.054-7.071,2.929l-90.407,90.407    c-1.875,1.875-2.929,4.419-2.929,7.071v127.854c0,2.652,1.054,5.196,2.929,7.071l90.407,90.407    c1.875,1.875,4.419,2.929,7.071,2.929h127.854c2.652,0,5.196-1.054,7.071-2.929l90.407-90.407    c1.875-1.875,2.929-4.419,2.929-7.071V144.073c0-2.652-1.054-5.196-2.929-7.071l-90.407-90.407    c-1.875-1.875-4.419-2.929-7.071-2.929H296c-5.523,0-10,4.477-10,10s4.477,10,10,10h19.785l84.549,84.549v119.569l-84.549,84.549    H196.215l-84.549-84.549V148.215l84.549-84.549H216c5.523,0,10-4.477,10-10S221.522,43.667,216,43.667z"/>
		<path id="XMLID_846_" d="M347.893,240v-22.027h6.481c14.233,0,25.812-11.579,25.812-25.812v-0.333    c0-14.233-11.579-25.812-25.812-25.812h-16.481c-5.523,0-10,4.477-10,10v31.957V240c0,5.523,4.477,10,10,10    S347.893,245.523,347.893,240z M347.893,186.017h6.481c3.205,0,5.812,2.607,5.812,5.812v0.333c0,3.205-2.607,5.812-5.812,5.812    h-6.481V186.017z"/>
		<path id="XMLID_847_" d="M159.647,230h-9.55c-5.523,0-10,4.477-10,10s4.477,10,10,10h9.55c14.336,0,26-11.664,26-26    s-11.664-26-26-26h-1.167c-3.309,0-6-2.691-6-6s2.691-6,6-6h9.395c5.523,0,10-4.477,10-10s-4.477-10-10-10h-9.395    c-14.336,0-26,11.664-26,26s11.664,26,26,26h1.167c3.309,0,6,2.691,6,6S162.956,230,159.647,230z"/>
		<path id="XMLID_848_" d="M207.106,166.017c-5.523,0-10,4.477-10,10s4.477,10,10,10h7.544V240c0,5.523,4.477,10,10,10    s10-4.477,10-10v-53.983h7.544c5.523,0,10-4.477,10-10s-4.477-10-10-10H207.106z"/>
		<path id="XMLID_950_" d="M257.948,222.184c0,15.338,12.478,27.816,27.816,27.816h0.375c15.337,0,27.815-12.478,27.815-27.816    v-28.369c0-15.337-12.478-27.815-27.815-27.815h-0.375c-15.338,0-27.816,12.478-27.816,27.815V222.184z M277.948,193.815    c0-4.31,3.506-7.815,7.816-7.815h0.375c4.31,0,7.815,3.506,7.815,7.815v28.369c0,4.31-3.506,7.816-7.815,7.816h-0.375    c-4.31,0-7.816-3.506-7.816-7.816V193.815z"/>
		<path id="XMLID_958_" d="M461.071,118.915L345.085,2.929C343.21,1.054,340.667,0,338.014,0H173.986    c-2.652,0-5.196,1.054-7.071,2.929L50.929,118.915C49.054,120.79,48,123.333,48,125.986v164.028c0,2.652,1.054,5.196,2.929,7.071    l26.034,26.034c3.905,3.905,10.237,3.905,14.143,0c3.905-3.905,3.905-10.237,0-14.142L68,285.872V130.128L178.128,20h155.744    L444,130.128v155.744L333.872,396H178.128l-29.695-29.695c-3.904-3.904-10.237-3.904-14.142,0c-3.905,3.905-3.905,10.237,0,14.143    l32.624,32.624c1.875,1.875,4.419,2.929,7.071,2.929H222v86c0,5.523,4.477,10,10,10s10-4.477,10-10v-86h28v86    c0,5.523,4.477,10,10,10s10-4.477,10-10v-86h48.014c2.652,0,5.196-1.054,7.071-2.929l115.986-115.986    c1.875-1.875,2.929-4.419,2.929-7.071V125.986C464,123.333,462.946,120.79,461.071,118.915z"/>
		<path id="XMLID_972_" d="M112.52,334.53c-2.64,0-5.21,1.07-7.07,2.93c-1.87,1.86-2.93,4.44-2.93,7.07s1.06,5.21,2.93,7.07    c1.86,1.86,4.43,2.93,7.07,2.93c2.63,0,5.21-1.07,7.07-2.93c1.86-1.86,2.93-4.44,2.93-7.07s-1.07-5.21-2.93-7.07    C117.73,335.6,115.15,334.53,112.52,334.53z"/>
	</g>
</g>















</svg>
