<?xml version="1.0" encoding="iso-8859-1"?>
<!-- Generator: Adobe Illustrator 19.0.0, SVG Export Plug-In . SVG Version: 6.00 Build 0)  -->
<svg xmlns="http://www.w3.org/2000/svg" xmlns:xlink="http://www.w3.org/1999/xlink" version="1.1" id="Layer_1" x="0px" y="0px" viewBox="0 0 511.993 511.993" style="enable-background:new 0 0 511.993 511.993;" xml:space="preserve" width="512" height="512">
<g id="XMLID_774_">
	<circle id="XMLID_2072_" style="fill:#FF5D5D;" cx="256" cy="207.993" r="198"/>
	<g id="XMLID_2069_">
		<path id="XMLID_2071_" style="fill:#FFFFFF;" d="M379.34,300.219C398.594,274.511,410,242.584,410,207.993    c0-85.052-68.948-154-154-154c-34.591,0-66.518,11.406-92.227,30.66L379.34,300.219z"/>
		<path id="XMLID_2070_" style="fill:#FFFFFF;" d="M132.661,115.766C113.406,141.475,102,173.401,102,207.993    c0,85.052,68.948,154,154,154c34.591,0,66.518-11.406,92.227-30.66L132.661,115.766z"/>
	</g>
	<rect id="XMLID_1041_" x="232" y="405.993" style="fill:#4DBAF6;" width="48" height="96"/>
	<g id="XMLID_1612_">
		<g id="XMLID_776_">
			<path id="XMLID_712_" d="M263.68,194.562c-2.63,0-5.21-1.07-7.07-2.93c-1.859-1.86-2.93-4.44-2.93-7.07s1.07-5.21,2.93-7.07     c1.86-1.86,4.44-2.93,7.07-2.93s5.21,1.07,7.07,2.93c1.859,1.86,2.93,4.44,2.93,7.07s-1.07,5.21-2.93,7.07     C268.89,193.493,266.31,194.562,263.68,194.562z"/>
		</g>
		<g id="XMLID_775_">
			<path id="XMLID_711_" d="M379.339,310.219c-2.642,0-5.188-1.047-7.07-2.929l-87.204-87.203c-3.905-3.905-3.905-10.237,0-14.143     c3.906-3.904,10.236-3.905,14.143,0l78.717,78.717C392.402,261.741,400,235.463,400,207.993c0-79.402-64.598-144-144-144     c-27.471,0-53.748,7.599-76.669,22.077l63.464,63.463c3.905,3.905,3.905,10.237,0,14.143c-3.906,3.905-10.236,3.905-14.143,0     l-71.95-71.95c-2.051-2.051-3.11-4.891-2.903-7.784c0.207-2.893,1.659-5.553,3.979-7.292     c28.525-21.364,62.49-32.657,98.222-32.657c90.43,0,164,73.57,164,164c0,35.731-11.292,69.696-32.656,98.221     c-1.738,2.321-4.398,3.773-7.292,3.98C379.815,310.21,379.576,310.219,379.339,310.219z"/>
		</g>
		<g id="XMLID_1616_">
			<path id="XMLID_708_" d="M256,371.993c-90.43,0-164-73.57-164-164c0-35.731,11.292-69.695,32.656-98.221     c1.738-2.321,4.398-3.773,7.292-3.98c2.881-0.209,5.732,0.853,7.783,2.903l215.566,215.566c2.051,2.051,3.11,4.891,2.903,7.783     s-1.659,5.554-3.979,7.292C325.697,360.701,291.733,371.993,256,371.993z M134.076,131.324     C119.599,154.245,112,180.522,112,207.993c0,79.402,64.598,144,144,144c27.471,0,53.748-7.599,76.669-22.076L134.076,131.324z"/>
		</g>
	</g>
	<path id="XMLID_632_" d="M429.856,93.736c-3.036-4.611-9.236-5.889-13.852-2.851c-4.612,3.038-5.889,9.239-2.852,13.852   c48.772,74.054,38.588,173.387-24.217,236.191c-35.508,35.509-82.719,55.064-132.936,55.064s-97.428-19.556-132.936-55.064   C87.556,305.42,68,258.209,68,207.993c0-50.216,19.556-97.428,55.064-132.936c62.877-62.878,162.287-73.014,236.372-24.098   c4.607,3.042,10.811,1.772,13.854-2.835c3.043-4.609,1.774-10.812-2.835-13.855C331.058,8.255,283.334-3.58,236.069,0.944   c-47.905,4.586-93.06,25.883-127.146,59.97C69.636,100.201,48,152.434,48,207.993s21.636,107.792,60.922,147.078   c31.15,31.15,70.444,51.19,113.078,58.159v88.762c0,5.522,4.478,10,10,10s10-4.478,10-10v-86h28v86c0,5.522,4.478,10,10,10   s10-4.478,10-10V413.23c42.634-6.97,81.928-27.009,113.078-58.159c34.057-34.058,55.351-79.172,59.959-127.032   C467.583,180.824,455.799,133.127,429.856,93.736z"/>
	<g id="XMLID_1042_">
		<path id="XMLID_706_" d="M396.01,77.982c-2.64,0-5.21-1.06-7.07-2.93c-1.87-1.86-2.93-4.43-2.93-7.07c0-2.63,1.06-5.21,2.93-7.07    c1.86-1.86,4.431-2.93,7.07-2.93c2.63,0,5.2,1.07,7.07,2.93c1.859,1.87,2.93,4.44,2.93,7.07s-1.07,5.21-2.93,7.07    C401.22,76.922,398.64,77.982,396.01,77.982z"/>
	</g>
</g>















</svg>
