<?xml version="1.0" encoding="iso-8859-1"?>
<!-- Generator: Adobe Illustrator 19.0.0, SVG Export Plug-In . SVG Version: 6.00 Build 0)  -->
<svg xmlns="http://www.w3.org/2000/svg" xmlns:xlink="http://www.w3.org/1999/xlink" version="1.1" id="Layer_1" x="0px" y="0px" viewBox="0 0 512 512" style="enable-background:new 0 0 512 512;" xml:space="preserve" width="512" height="512">
<g id="XMLID_1119_">
	<path id="XMLID_2047_" style="fill:#898998;" d="M94.029,216.114h-40v-44c0-11.046,8.954-20,20-20h0c11.046,0,20,8.954,20,20   V216.114z"/>
	<g id="XMLID_1564_">
		<circle id="XMLID_1563_" style="fill:#898998;" cx="266.029" cy="329.328" r="172.672"/>
		<circle id="XMLID_1562_" style="fill:#FFFFFF;" cx="266.029" cy="329.328" r="128"/>
		<path id="XMLID_2960_" style="fill:#686C83;" d="M391.886,305.906l-83.279-20.093c-13.943-3.364-28.235-5.064-42.578-5.064h0    c-14.343,0-28.636,1.7-42.579,5.064l-83.277,20.093l3.639,45.11h67.519c18.285,0,33.108,14.823,33.108,33.108v69.873h43.181    v-69.873c0-18.285,14.823-33.108,33.108-33.108h67.519L391.886,305.906z"/>
	</g>
	<polygon id="XMLID_1416_" style="fill:#FF5D5D;" points="166.029,125 166.029,203.564 265.999,243.229 366.029,203.541    366.029,125  "/>
	<path id="XMLID_1406_" style="fill:#FE8F8D;" d="M457.971,86.166L266,162.333L74.029,86.166L266,10L457.971,86.166z"/>
	<g id="XMLID_1285_">
		<path id="XMLID_1287_" d="M138.399,430.199c-0.002-0.003-0.054-0.069-0.057-0.072c-3.428-4.327-9.689-5.026-14.019-1.601    s-5.039,9.743-1.615,14.074l0.175,0.221c1.976,2.461,4.877,3.74,7.805,3.74c2.196,0,4.407-0.72,6.253-2.201    c4.307-3.457,4.997-9.751,1.54-14.059L138.399,430.199z"/>
		<path id="XMLID_1408_" d="M293.25,327.786c0-15.01-12.211-27.221-27.221-27.221s-27.221,12.211-27.221,27.221    s12.211,27.221,27.221,27.221S293.25,342.795,293.25,327.786z M258.808,327.786c0-3.981,3.239-7.221,7.221-7.221    s7.221,3.239,7.221,7.221s-3.239,7.221-7.221,7.221S258.808,331.767,258.808,327.786z"/>
		<path id="XMLID_1410_" d="M344.988,51.334c5.522,0,10-4.478,10-10s-4.478-10-10-10h-0.01c-5.523,0-9.995,4.478-9.995,10    S339.465,51.334,344.988,51.334z"/>
		<path id="XMLID_1430_" d="M461.658,76.872l-77.2-30.631c-5.134-2.038-10.946,0.473-12.983,5.606    c-2.037,5.134,0.473,10.946,5.607,12.983l53.773,21.336L266,151.574L101.144,86.167L266,20.758l36.715,14.566    c5.135,2.039,10.947-0.474,12.983-5.607c2.037-5.133-0.474-10.946-5.607-12.982l-40.403-16.03c-2.369-0.939-5.007-0.939-7.376,0    L70.341,76.872c-3.81,1.512-6.312,5.195-6.312,9.295v57.667c-11.639,4.128-20,15.243-20,28.28v44c0,5.522,4.477,10,10,10h40    c5.523,0,10-4.478,10-10v-44c0-13.036-8.361-24.152-20-28.28v-42.942l72,28.567v54.025    c-45.599,34.453-72.671,88.579-72.671,145.844c0,26.726,5.643,52.484,16.773,76.563c1.689,3.654,5.305,5.806,9.083,5.806    c1.404,0,2.831-0.297,4.189-0.925c5.013-2.317,7.199-8.26,4.881-13.273c-9.905-21.428-14.927-44.363-14.927-68.17    c0-46.289,19.872-90.272,53.913-120.948c1.097,1.994,2.861,3.604,5.07,4.48l18.974,7.528    c-13.882,10.814-25.659,24.234-34.558,39.487c-7.866,13.481-13.337,28.21-16.256,43.493c-0.116,0.439-0.192,0.89-0.247,1.346    c-1.462,8.09-2.225,16.326-2.225,24.614c0,76.094,61.907,138,138,138s138-61.906,138-138c0-8.193-0.753-16.29-2.178-24.218    c-0.054-0.68-0.18-1.346-0.368-1.99c-6.365-32.644-24.415-62.188-50.773-82.744l19.006-7.541c2.203-0.874,3.964-2.477,5.062-4.463    c34.046,30.676,53.922,74.663,53.922,120.956C428.7,419.025,355.726,492,266.029,492c-36.955,0-71.783-12.075-100.717-34.92    c-4.335-3.423-10.623-2.683-14.045,1.652c-3.422,4.334-2.683,10.623,1.652,14.045C185.419,498.436,224.531,512,266.029,512    C366.755,512,448.7,430.053,448.7,329.328c0-57.264-27.072-111.39-72.671-145.844v-54.048l85.629-33.974    c3.81-1.512,6.312-5.195,6.312-9.295S465.469,78.383,461.658,76.872z M84.029,206.114h-20v-34c0-5.514,4.486-10,10-10    s10,4.486,10,10V206.114z M152.356,361.016h58.975c12.742,0,23.108,10.366,23.108,23.107v58.904    C194.756,431.988,163.429,400.685,152.356,361.016z M254.439,446.758v-62.635c0-23.77-19.338-43.107-43.108-43.107h-62.723    c-0.38-3.846-0.578-7.744-0.578-11.688c0-5.14,0.343-10.241,1.008-15.273l76.76-18.52c26.319-6.349,54.142-6.352,80.465-0.001    l76.761,18.521c0.662,5.031,1.006,10.13,1.006,15.273c0,3.944-0.198,7.843-0.578,11.688h-62.723    c-23.77,0-43.108,19.338-43.108,43.107v62.635c-3.814,0.374-7.68,0.57-11.59,0.57S258.253,447.132,254.439,446.758z     M297.619,443.027v-58.904c0-12.741,10.366-23.107,23.108-23.107h58.975C368.629,400.685,337.302,431.988,297.619,443.027z     M378.002,292.27l-67.05-16.178c-29.393-7.09-60.459-7.091-89.847,0.001l-67.038,16.175c8.59-25.791,25.954-48.324,49.493-63.054    l58.751,23.31c1.185,0.47,2.436,0.705,3.688,0.705s2.503-0.235,3.688-0.705l58.799-23.33    C352.057,243.936,369.418,266.461,378.002,292.27z M356.029,196.75l-90.03,35.721l-89.97-35.696v-59.38l86.283,34.233    c1.185,0.47,2.436,0.705,3.688,0.705s2.503-0.235,3.688-0.705l86.341-34.257V196.75z"/>
	</g>
</g>















</svg>
