<?xml version="1.0" encoding="iso-8859-1"?>
<!-- Generator: Adobe Illustrator 19.0.0, SVG Export Plug-In . SVG Version: 6.00 Build 0)  -->
<svg xmlns="http://www.w3.org/2000/svg" xmlns:xlink="http://www.w3.org/1999/xlink" version="1.1" id="Layer_1" x="0px" y="0px" viewBox="0 0 511.998 511.998" style="enable-background:new 0 0 511.998 511.998;" xml:space="preserve" width="512" height="512">
<g id="XMLID_2059_">
	<circle id="XMLID_769_" style="fill:#FFC66C;" cx="255.998" cy="255.998" r="246"/>
	<circle id="XMLID_768_" style="fill:#FFFFFF;" cx="255.998" cy="255.998" r="200"/>
	<g id="XMLID_1180_">
		<path id="XMLID_1225_" d="M323.71,333.998c31.981,0,58-26.019,58-58v-40c0-31.981-26.019-58-58-58s-58,26.019-58,58v40    C265.71,307.979,291.729,333.998,323.71,333.998z M285.71,235.998c0-20.953,17.047-38,38-38s38,17.047,38,38v40    c0,20.953-17.047,38-38,38s-38-17.047-38-38V235.998z"/>
		<path id="XMLID_1259_" d="M221.286,197.998c5.522,0,10-4.478,10-10s-4.478-10-10-10h-81c-5.522,0-10,4.478-10,10v68    c0,5.522,4.478,10,10,10h33h14c13.233,0,24,10.767,24,24s-10.767,24-24,24h-47c-5.522,0-10,4.478-10,10s4.478,10,10,10h47    c24.262,0,44-19.738,44-44s-19.738-44-44-44h-14h-23v-48H221.286z"/>
		<path id="XMLID_1260_" d="M266.73,455.986c-0.006-5.519-4.546-9.989-10.064-9.989c-0.015,0-0.029,0-0.044,0    c-5.519,0.024-10.038,4.515-10.02,10.033c0.018,5.512,4.555,9.967,10.063,9.967c0.008,0,0.016,0,0.022,0    C262.206,465.985,266.735,461.505,266.73,455.986z"/>
		<path id="XMLID_1263_" d="M302.475,460.835c45.717-10.331,87.22-36.201,116.866-72.845    c30.087-37.189,46.657-84.065,46.657-131.992c0-115.794-94.206-210-210-210s-210,94.206-210,210    c0,49.522,17.567,97.605,49.466,135.391c31.518,37.334,75.211,62.645,123.031,71.268c0.6,0.108,1.197,0.161,1.786,0.161    c4.746,0,8.958-3.393,9.829-8.228c0.98-5.435-2.631-10.636-8.066-11.615c-90.419-16.306-156.046-94.94-156.046-186.977    c0-104.767,85.233-190,190-190s190,85.233,190,190c0,88.017-62.214,165.959-147.932,185.329c-5.387,1.217-8.768,6.571-7.55,11.958    S297.089,462.054,302.475,460.835z"/>
		<path id="XMLID_1264_" d="M437.018,74.978C393.832,31.794,336.559,5.434,275.746,0.757    c-60.143-4.629-120.115,12.101-168.853,47.099c-4.486,3.222-5.511,9.47-2.29,13.956c3.222,4.485,9.469,5.51,13.956,2.29    C212.751-3.543,340.735,6.98,422.875,89.121c44.575,44.574,69.123,103.839,69.123,166.877s-24.548,122.303-69.123,166.877    c-44.574,44.575-103.839,69.123-166.877,69.123S133.695,467.45,89.121,422.875C6.894,340.648-3.568,212.58,64.245,118.359    c3.227-4.482,2.208-10.732-2.274-13.958c-4.482-3.227-10.732-2.208-13.958,2.274C12.932,155.418-3.854,215.416,0.746,275.617    c4.651,60.862,31.015,118.182,74.232,161.4c48.353,48.352,112.64,74.98,181.02,74.98s132.667-26.629,181.02-74.98    c48.352-48.353,74.98-112.64,74.98-181.02S485.369,123.331,437.018,74.978z"/>
		<path id="XMLID_1265_" d="M82.05,92.05c2.56,0,5.118-0.977,7.071-2.929l0.413-0.412c3.905-3.905,3.905-10.237,0-14.143    c-3.906-3.904-10.236-3.904-14.143,0l-0.413,0.412c-3.905,3.905-3.905,10.237,0,14.143C76.932,91.073,79.49,92.05,82.05,92.05z"/>
	</g>
</g>















</svg>
