<?xml version="1.0" encoding="iso-8859-1"?>
<!-- Generator: Adobe Illustrator 19.0.0, SVG Export Plug-In . SVG Version: 6.00 Build 0)  -->
<svg xmlns="http://www.w3.org/2000/svg" xmlns:xlink="http://www.w3.org/1999/xlink" version="1.1" id="Layer_1" x="0px" y="0px" viewBox="0 0 512 512" style="enable-background:new 0 0 512 512;" xml:space="preserve" width="512" height="512">
<path id="XMLID_3059_" style="fill:#36D28F;" d="M455,502H57c-25.957,0-47-21.043-47-47V57c0-25.957,21.043-47,47-47h398  c25.957,0,47,21.043,47,47v398C502,480.957,480.957,502,455,502z"/>
<rect id="XMLID_3058_" x="64" y="64" style="fill:#FFFFFF;" width="384" height="384"/>
<g id="XMLID_3056_">
	<polygon id="XMLID_3057_" style="fill:#36D28F;" points="170,134 170,378 342,378 342,322 226,322 226,134  "/>
</g>
<g id="XMLID_1655_">
	<path id="XMLID_2327_" d="M455,512H57c-31.43,0-57-25.57-57-57V57C0,25.57,25.57,0,57,0h398c31.43,0,57,25.57,57,57v398   C512,486.43,486.43,512,455,512z M57,20c-20.402,0-37,16.598-37,37v398c0,20.402,16.598,37,37,37h398c20.402,0,37-16.598,37-37V57   c0-20.402-16.598-37-37-37H57z"/>
</g>
<g id="XMLID_892_">
	<path id="XMLID_2324_" d="M448,458H64c-5.522,0-10-4.478-10-10V64c0-5.522,4.478-10,10-10h384c5.522,0,10,4.478,10,10v384   C458,453.522,453.522,458,448,458z M74,438h364V74H74V438z"/>
</g>
<g id="XMLID_898_">
	<g id="XMLID_1576_">
		<path id="XMLID_2323_" d="M342,388H170c-5.522,0-10-4.478-10-10V269.218c0-5.522,4.478-10,10-10s10,4.478,10,10V368h152v-36H226    c-5.522,0-10-4.478-10-10V144h-36v45.218c0,5.522-4.478,10-10,10s-10-4.478-10-10V134c0-5.522,4.478-10,10-10h56    c5.522,0,10,4.478,10,10v178h106c5.522,0,10,4.478,10,10v56C352,383.522,347.522,388,342,388z"/>
	</g>
	<g id="XMLID_893_">
		<path id="XMLID_2322_" d="M170,239.22c-2.63,0-5.21-1.07-7.07-2.93c-1.86-1.87-2.93-4.44-2.93-7.07s1.069-5.21,2.93-7.07    c1.86-1.869,4.44-2.93,7.07-2.93s5.21,1.061,7.069,2.93c1.86,1.86,2.931,4.431,2.931,7.07c0,2.63-1.07,5.21-2.931,7.07    C175.21,238.149,172.63,239.22,170,239.22z"/>
	</g>
</g>















</svg>
