<?xml version="1.0" encoding="iso-8859-1"?>
<!-- Generator: Adobe Illustrator 19.0.0, SVG Export Plug-In . SVG Version: 6.00 Build 0)  -->
<svg xmlns="http://www.w3.org/2000/svg" xmlns:xlink="http://www.w3.org/1999/xlink" version="1.1" id="Layer_1" x="0px" y="0px" viewBox="0 0 511.998 511.998" style="enable-background:new 0 0 511.998 511.998;" xml:space="preserve" width="512" height="512">
<g id="XMLID_1857_">
	<circle id="XMLID_1856_" style="fill:#C9F3FF;" cx="255.998" cy="255.997" r="246"/>
	<polygon id="XMLID_1474_" style="fill:#4DBAF6;" points="197.998,157.664 197.998,237.997 153.998,237.997 153.998,157.664    117.998,157.664 117.998,273.997 197.998,273.997 197.998,354.497 233.998,354.497 233.998,273.997 277.998,273.997    277.998,354.497 313.998,354.497 313.998,273.997 357.998,273.997 357.998,354.497 393.998,354.497 393.998,157.664    357.998,157.664 357.998,237.997 313.998,237.997 313.998,157.664 277.998,157.664 277.998,237.997 233.998,237.997    233.998,157.664  "/>
	<g id="XMLID_901_">
		<path id="XMLID_2503_" d="M393.998,364.497h-36c-5.523,0-10-4.478-10-10v-70.5h-24v70.5c0,5.522-4.477,10-10,10h-36    c-5.523,0-10-4.478-10-10v-70.5h-24v70.5c0,5.522-4.477,10-10,10h-36c-5.523,0-10-4.478-10-10v-70.5h-70c-5.523,0-10-4.478-10-10    V157.664c0-5.522,4.477-10,10-10h36c5.523,0,10,4.478,10,10v70.333h24v-70.333c0-5.522,4.477-10,10-10h36c5.523,0,10,4.478,10,10    v70.333h24v-70.333c0-5.522,4.477-10,10-10h36c5.523,0,10,4.478,10,10v70.333h24v-70.333c0-5.522,4.477-10,10-10h36    c5.523,0,10,4.478,10,10v196.833C403.998,360.02,399.521,364.497,393.998,364.497z M367.998,344.497h16V167.664h-16v70.333    c0,5.522-4.477,10-10,10h-44c-5.523,0-10-4.478-10-10v-70.333h-16v70.333c0,5.522-4.477,10-10,10h-44c-5.523,0-10-4.478-10-10    v-70.333h-16v70.333c0,5.522-4.477,10-10,10h-44c-5.523,0-10-4.478-10-10v-70.333h-16v96.333h70c5.523,0,10,4.478,10,10v70.5h16    v-70.5c0-5.522,4.477-10,10-10h44c5.523,0,10,4.478,10,10v70.5h16v-70.5c0-5.522,4.477-10,10-10h44c5.523,0,10,4.478,10,10    V344.497z"/>
	</g>
	<g id="XMLID_1765_">
		<path id="XMLID_2502_" d="M255.998,511.997c-68.38,0-132.667-26.629-181.02-74.98C31.76,393.798,5.398,336.479,0.746,275.617    c-4.601-60.201,12.185-120.199,47.266-168.941c3.226-4.482,9.474-5.501,13.958-2.274c4.482,3.226,5.501,9.476,2.274,13.958    C-3.568,212.579,6.894,340.647,89.121,422.874c44.574,44.575,103.839,69.123,166.877,69.123S378.3,467.45,422.875,422.874    c44.575-44.574,69.123-103.839,69.123-166.877s-24.548-122.303-69.123-166.877C340.734,6.98,212.751-3.542,118.559,64.1    c-4.485,3.223-10.733,2.197-13.956-2.289c-3.222-4.486-2.196-10.734,2.29-13.955c48.737-34.999,108.708-51.728,168.852-47.1    c60.813,4.678,118.086,31.037,161.272,74.222c48.352,48.353,74.98,112.64,74.98,181.02s-26.628,132.667-74.98,181.02    C388.665,485.369,324.378,511.997,255.998,511.997z"/>
	</g>
	<g id="XMLID_1396_">
		<path id="XMLID_2501_" d="M82.049,92.049c-2.553,0-5.107-0.972-7.059-2.916c-3.912-3.898-3.923-10.23-0.025-14.143l0.425-0.425    c3.905-3.904,10.237-3.904,14.143,0c3.905,3.905,3.905,10.237,0,14.143l-0.4,0.399C87.179,91.069,84.614,92.049,82.049,92.049z"/>
	</g>
</g>















</svg>
