<?xml version="1.0" encoding="iso-8859-1"?>
<!-- Generator: Adobe Illustrator 19.0.0, SVG Export Plug-In . SVG Version: 6.00 Build 0)  -->
<svg xmlns="http://www.w3.org/2000/svg" xmlns:xlink="http://www.w3.org/1999/xlink" version="1.1" id="Layer_1" x="0px" y="0px" viewBox="0 0 512 512" style="enable-background:new 0 0 512 512;" xml:space="preserve" width="512" height="512">
<g id="XMLID_1556_">
	<path id="XMLID_2533_" style="fill:#FFC66C;" d="M31.249,385.838L244.36,16.721c5.174-8.961,18.107-8.961,23.281,0l213.11,369.117   c5.174,8.961-1.293,20.162-11.64,20.162H42.89C32.543,406,26.076,394.799,31.249,385.838z"/>
	<g id="XMLID_1729_">
		<path id="XMLID_2531_" style="fill:#FFFFFF;" d="M98.406,360.507h315.189L256,87.546L98.406,360.507z"/>
	</g>
	<rect id="XMLID_1740_" x="232" y="406" style="fill:#4DBAF6;" width="48" height="96"/>
	<g id="XMLID_1501_">
		<path id="XMLID_1531_" d="M489.411,380.838L276.301,11.721C272.063,4.382,264.475,0,256,0s-16.063,4.382-20.301,11.721    L22.589,380.839c-4.237,7.339-4.236,16.103,0.001,23.441S34.416,416,42.89,416H222v86c0,5.522,4.478,10,10,10s10-4.478,10-10v-86    h28v86c0,5.522,4.478,10,10,10s10-4.478,10-10v-86h43.592c5.522,0,10-4.478,10-10s-4.478-10-10-10H42.89    c-1.729,0-2.608-1.078-2.979-1.721s-0.865-1.944-0.001-3.441L253.02,21.721C253.884,20.224,255.258,20,256,20    s2.116,0.224,2.98,1.721l213.11,369.116c0.864,1.498,0.37,2.8-0.001,3.442S470.839,396,469.11,396h-55.517    c-5.522,0-10,4.478-10,10s4.478,10,10,10h55.517c8.474,0,16.063-4.381,20.3-11.72S493.648,388.178,489.411,380.838z"/>
		<path id="XMLID_1621_" d="M373.59,396c-2.63,0-5.21,1.069-7.07,2.93c-1.859,1.86-2.93,4.44-2.93,7.07s1.07,5.21,2.93,7.069    c1.86,1.86,4.44,2.931,7.07,2.931c2.64,0,5.21-1.07,7.07-2.931c1.859-1.859,2.93-4.439,2.93-7.069s-1.07-5.21-2.93-7.07    C378.8,397.069,376.229,396,373.59,396z"/>
		<path id="XMLID_1624_" d="M422.255,365.507c1.786-3.094,1.786-6.906,0-10L264.66,82.546c-1.786-3.094-5.088-5-8.66-5    s-6.874,1.906-8.66,5L89.745,355.507c-1.786,3.094-1.786,6.906,0,10s5.088,5,8.66,5h315.189    C417.167,370.507,420.469,368.601,422.255,365.507z M115.726,350.507L256,107.546l140.274,242.961H115.726z"/>
		<path id="XMLID_1673_" d="M246,201v58c0,5.522,4.478,10,10,10s10-4.478,10-10v-58c0-5.522-4.478-10-10-10S246,195.478,246,201z"/>
		<path id="XMLID_1708_" d="M256,289c-2.63,0-5.21,1.069-7.07,2.93S246,296.37,246,299s1.069,5.21,2.93,7.069    c1.86,1.86,4.44,2.931,7.07,2.931s5.21-1.07,7.069-2.931C264.93,304.21,266,301.63,266,299s-1.07-5.21-2.931-7.07    C261.21,290.069,258.63,289,256,289z"/>
	</g>
</g>















</svg>
