<?xml version="1.0" encoding="iso-8859-1"?>
<!-- Generator: Adobe Illustrator 19.0.0, SVG Export Plug-In . SVG Version: 6.00 Build 0)  -->
<svg xmlns="http://www.w3.org/2000/svg" xmlns:xlink="http://www.w3.org/1999/xlink" version="1.1" id="Layer_1" x="0px" y="0px" viewBox="0 0 512 512" style="enable-background:new 0 0 512 512;" xml:space="preserve" width="512" height="512">
<g id="XMLID_1290_">
	<g id="XMLID_1862_">
		<path id="XMLID_1915_" style="fill:#C9F3FF;" d="M127.88,315.957l16.929-56.587c7.428-24.828,30.27-41.837,56.185-41.837h128.853    c16.237,0,31.295,8.477,39.717,22.359l46.072,75.942L127.88,315.957z"/>
		<path id="XMLID_1914_" style="fill:#72D8FF;" d="M467.188,425.766H502v-23.632c0-47.574-38.567-86.141-86.141-86.141h-297.01    h-0.02c-15.99,0.011-28.948,12.976-28.948,28.967v80.806h38.369H467.188z"/>
		<path id="XMLID_931_" style="fill:#FFFFFF;" d="M129.593,315.993h-10.744h-0.02c-15.991,0.01-28.948,12.976-28.948,28.967v11.232    h17.386c12.33,0,22.325-9.995,22.325-22.325V315.993z"/>
		<circle id="XMLID_1913_" style="fill:#898998;" cx="167.631" cy="425.696" r="35.804"/>
		<circle id="XMLID_1911_" style="fill:#898998;" cx="408.162" cy="425.696" r="35.804"/>
		<path id="XMLID_1910_" style="fill:#FF5D5D;" d="M437.708,318.455v25.956c0,11.068,8.973,20.041,20.041,20.041h35.58    C481.204,342.991,461.432,326.423,437.708,318.455z"/>
	</g>
	<path id="XMLID_2581_" style="fill:#FF5D5D;" d="M487.25,210.5h-50.5c-8.146,0-14.75-6.604-14.75-14.75V65.25   c0-8.146,6.604-14.75,14.75-14.75h50.5c8.146,0,14.75,6.604,14.75,14.75v130.5C502,203.896,495.396,210.5,487.25,210.5z"/>
	<path id="XMLID_1918_" style="fill:#FEDA9B;" d="M52.467,111.393L52.467,111.393c15.95,0,28.879,12.93,28.879,28.879v3.851   c0,15.95-12.93,28.879-28.879,28.879h0c-15.95,0-28.879-12.93-28.879-28.879v-3.851C23.587,124.323,36.517,111.393,52.467,111.393z   "/>
	<path id="XMLID_929_" style="fill:#FF5D5D;" d="M171.239,242.532l-6.854,0.015c-23.959,0.052-47.631-5.207-69.314-15.4l-5.19-2.44   v55.85H10V199.25c0-14.502,11.756-26.259,26.259-26.259h30.424c11.682,0,23.168,3.002,33.357,8.717l23.073,12.943   c15.844,8.888,33.02,15.154,50.865,18.556l0,0c6.976,1.33,12.023,7.43,12.023,14.531v0   C186,235.897,179.397,242.514,171.239,242.532z"/>
	<path id="XMLID_930_" style="fill:#D8D8E4;" d="M89.881,280.558V441.53c0,11.029-8.941,19.97-19.97,19.97h0   c-11.029,0-19.97-8.941-19.97-19.97V327.27V352v89.53c0,11.029-8.941,19.97-19.97,19.97h0c-11.029,0-19.97-8.941-19.97-19.97   V280.558H89.881z"/>
	<path id="XMLID_1288_" style="fill:#FFFFFF;" d="M318.64,271.365L318.64,271.365c-15.609,0-28.263,12.654-28.263,28.263v16.207   h66.089l-11.893-27.445C340.094,278.054,329.905,271.365,318.64,271.365z"/>
	<circle id="XMLID_1278_" style="fill:#FFFFFF;" cx="311.461" cy="251.933" r="19.933"/>
	<g id="XMLID_1714_">
		<path id="XMLID_1781_" d="M296.842,350.923c-5.522,0-10,4.478-10,10v5.929c0,5.522,4.478,10,10,10s10-4.478,10-10v-5.929    C306.842,355.4,302.364,350.923,296.842,350.923z"/>
		<path id="XMLID_1782_" d="M408.16,415.7c-2.631,0-5.21,1.06-7.07,2.93c-1.86,1.86-2.93,4.43-2.93,7.07    c0,2.63,1.069,5.21,2.93,7.069c1.86,1.86,4.439,2.931,7.07,2.931c2.63,0,5.21-1.07,7.069-2.931    c1.86-1.859,2.931-4.439,2.931-7.069c0-2.641-1.07-5.21-2.931-7.07C413.37,416.76,410.79,415.7,408.16,415.7z"/>
		<path id="XMLID_1783_" d="M167.63,415.7c-2.63,0-5.21,1.069-7.07,2.93c-1.859,1.86-2.93,4.43-2.93,7.07    c0,2.63,1.07,5.199,2.93,7.069c1.86,1.86,4.44,2.931,7.07,2.931s5.21-1.07,7.07-2.931c1.859-1.87,2.93-4.439,2.93-7.069    c0-2.641-1.07-5.21-2.93-7.07C172.84,416.77,170.27,415.7,167.63,415.7z"/>
		<path id="XMLID_1784_" d="M291.46,451.5c-2.63,0-5.21,1.069-7.07,2.93s-2.93,4.44-2.93,7.07s1.069,5.21,2.93,7.069    c1.86,1.86,4.44,2.931,7.07,2.931s5.21-1.07,7.069-2.931c1.86-1.859,2.931-4.439,2.931-7.069s-1.07-5.21-2.931-7.07    C296.67,452.569,294.09,451.5,291.46,451.5z"/>
		<path id="XMLID_1792_" d="M487.25,220.5c13.647,0,24.75-11.103,24.75-24.75V65.25c0-13.647-11.103-24.75-24.75-24.75h-50.5    C423.103,40.5,412,51.603,412,65.25v130.5c0,13.647,11.103,24.75,24.75,24.75H452v92.511c-9.525-3.876-19.806-6.267-30.556-6.882    l-43.33-71.422c-10.169-16.761-28.663-27.173-48.267-27.173H200.994c-4.602,0-9.176,0.47-13.664,1.381    c-3.195-2.742-7.113-4.697-11.48-5.53c-16.816-3.206-32.914-9.079-47.846-17.455l-23.073-12.942    c-6.232-3.496-12.915-6.101-19.826-7.778c3.941-6.08,6.241-13.317,6.241-21.086v-3.851c0-21.438-17.441-38.879-38.88-38.879    c-21.438,0-38.879,17.441-38.879,38.879v3.851c0,8.329,2.641,16.047,7.117,22.381C8.474,172.337,0,184.821,0,199.25v81.308    v160.972C0,458.056,13.444,471.5,29.971,471.5h137.66c21.821,0,40.115-15.343,44.691-35.804h151.149    c1.286,5.747,3.646,11.091,6.872,15.804h-40.517c-5.522,0-10,4.478-10,10s4.478,10,10,10h81.095c0.818,0,1.61-0.109,2.372-0.295    c19.512-2.186,35.348-16.675,39.561-35.509H502c5.522,0,10-4.478,10-10v-23.623c0-32.068-15.79-60.514-40-77.982V220.5H487.25z     M448.846,333.475c9.876,4.764,18.568,11.604,25.519,19.943h-16.668c-4.88,0-8.851-3.971-8.851-8.851V333.475z M300.377,305.835    v-6.207c0-10.07,8.192-18.264,18.263-18.264c7.284,0,13.861,4.318,16.757,11.002l5.837,13.469H300.377z M311.461,261.866    c-5.477,0-9.933-4.456-9.933-9.934c0-5.477,4.456-9.933,9.933-9.933c5.478,0,9.934,4.456,9.934,9.933    C321.395,257.41,316.938,261.866,311.461,261.866z M281.528,251.933c0,8.463,3.536,16.111,9.201,21.561    c-6.414,6.845-10.353,16.036-10.353,26.134v6.336h-21.025v-78.431h34.803C286.522,232.963,281.528,241.873,281.528,251.933z     M397.952,305.964h-22.023l13.707-13.707L397.952,305.964z M361.015,245.079l17.941,29.573l-20.538,20.538l-4.67-10.775    c-3.357-7.748-9.083-13.969-16.107-17.989c2.388-4.297,3.754-9.237,3.754-14.492c0-10.06-4.994-18.969-12.627-24.399h1.08    C342.506,227.533,354.448,234.257,361.015,245.079z M239.352,227.533v78.431h-98.044l13.083-43.729    c1.021-3.417,2.412-6.696,4.14-9.79c1.836,0.06,3.672,0.101,5.508,0.101c0.121,0,0.247,0,0.369,0l6.854-0.015    c13.624-0.029,24.709-11.123,24.738-24.74c1.656-0.17,3.323-0.26,4.996-0.26H239.352z M122.94,435.696    c1.286,5.747,3.646,11.091,6.872,15.804H98.169c1.104-3.121,1.712-6.476,1.712-9.971v-5.833H122.94z M59.94,441.529V352v-24.729    c0-5.522-4.478-10-10-10s-10,4.478-10,10V352v89.529c0,5.498-4.473,9.971-9.97,9.971c-5.498,0-9.971-4.473-9.971-9.971V290.558    h59.881v150.972c0,5.498-4.473,9.971-9.97,9.971C64.413,451.5,59.94,447.027,59.94,441.529z M120.432,305.964h-1.575    c-6.887,0.002-13.357,1.809-18.977,4.959v-30.366v-40.419c12.038,4.823,24.658,8.274,37.488,10.296    c-0.803,1.986-1.523,4.008-2.14,6.069L120.432,305.964z M99.904,344.931c0-10.454,8.506-18.963,18.957-18.967h0.731v7.903    c0,6.796-5.529,12.325-12.325,12.325h-7.363V344.931z M33.588,140.272c0-10.41,8.469-18.879,18.879-18.879    s18.88,8.469,18.88,18.879v3.851c0,10.339-8.356,18.754-18.668,18.869h-0.424c-10.312-0.115-18.667-8.531-18.667-18.869V140.272z     M20,199.25c0-8.965,7.294-16.258,16.259-16.258h15.784c0.142,0.001,0.282,0.011,0.424,0.011s0.282-0.009,0.424-0.011h13.792    c9.947,0,19.79,2.572,28.464,7.438l23.073,12.942c16.816,9.433,34.946,16.047,53.885,19.658c2.257,0.431,3.896,2.41,3.896,4.708    c0,2.637-2.146,4.787-4.782,4.793l-6.854,0.015c-0.108,0-0.217,0-0.326,0c-22.227,0-44.597-4.994-64.712-14.449l-5.19-2.439    c-3.1-1.457-6.726-1.226-9.614,0.607c-2.89,1.835-4.64,5.02-4.64,8.442v45.85H20V199.25z M167.631,451.5    c-14.229,0-25.804-11.575-25.804-25.804s11.575-25.804,25.804-25.804s25.804,11.575,25.804,25.804S181.859,451.5,167.631,451.5z     M167.631,379.893c-21.821,0-40.115,15.343-44.691,35.804H99.904v-49.504h7.363c17.824,0,32.325-14.501,32.325-32.325v-7.903    h99.759v89.732h-27.03C207.746,395.235,189.452,379.893,167.631,379.893z M408.162,451.5c-14.229,0-25.804-11.575-25.804-25.804    s11.575-25.804,25.804-25.804s25.804,11.575,25.804,25.804S422.391,451.5,408.162,451.5z M492,415.696h-39.147    c-4.576-20.461-22.87-35.804-44.691-35.804s-40.115,15.343-44.691,35.804h-104.12v-89.732h156.539c4.418,0,8.741,0.4,12.955,1.125    v17.478c0,15.908,12.942,28.851,28.851,28.851h28.685c3.611,8.851,5.619,18.521,5.619,28.655V415.696z M432,195.75V65.25    c0-2.619,2.131-4.75,4.75-4.75h50.5c2.619,0,4.75,2.131,4.75,4.75v130.5c0,2.619-2.131,4.75-4.75,4.75h-50.5    C434.131,200.5,432,198.369,432,195.75z"/>
		<path id="XMLID_1817_" d="M462,100c2.63,0,5.21-1.07,7.069-2.931C470.93,95.21,472,92.63,472,90s-1.07-5.21-2.931-7.07    C467.21,81.069,464.63,80,462,80s-5.21,1.069-7.07,2.93S452,87.37,452,90s1.069,5.21,2.93,7.069C456.79,98.93,459.37,100,462,100z    "/>
		<path id="XMLID_1820_" d="M462,140.5c2.63,0,5.21-1.07,7.069-2.931c1.86-1.859,2.931-4.439,2.931-7.069s-1.07-5.21-2.931-7.07    c-1.859-1.86-4.439-2.93-7.069-2.93s-5.21,1.069-7.07,2.93s-2.93,4.44-2.93,7.07s1.069,5.21,2.93,7.069    C456.79,139.43,459.37,140.5,462,140.5z"/>
		<path id="XMLID_1822_" d="M469.069,178.069C470.93,176.21,472,173.63,472,171s-1.07-5.21-2.931-7.07    c-1.859-1.86-4.439-2.93-7.069-2.93s-5.21,1.069-7.07,2.93S452,168.37,452,171s1.069,5.21,2.93,7.069    c1.86,1.86,4.44,2.931,7.07,2.931S467.21,179.93,469.069,178.069z"/>
	</g>
</g>















</svg>
