<?xml version="1.0" encoding="iso-8859-1"?>
<!-- Generator: Adobe Illustrator 19.0.0, SVG Export Plug-In . SVG Version: 6.00 Build 0)  -->
<svg xmlns="http://www.w3.org/2000/svg" xmlns:xlink="http://www.w3.org/1999/xlink" version="1.1" id="Layer_1" x="0px" y="0px" viewBox="0 0 512 512" style="enable-background:new 0 0 512 512;" xml:space="preserve" width="512" height="512">
<g id="XMLID_1710_">
	<path id="XMLID_872_" style="fill:#ADE5FF;" d="M462,64H50c-22.091,0-40,17.909-40,40v304c0,22.091,17.909,40,40,40h412   c22.091,0,40-17.909,40-40V104C502,81.909,484.091,64,462,64z"/>
	<rect id="XMLID_1168_" x="12.5" y="120" style="fill:#FFFFFF;" width="487" height="272"/>
	<path id="XMLID_1169_" style="fill:#ADE5FF;" d="M174.25,160H69.75C58.842,160,50,168.842,50,179.75v104.5   C50,295.158,58.842,304,69.75,304h104.5c10.908,0,19.75-8.842,19.75-19.75v-104.5C194,168.842,185.158,160,174.25,160z"/>
	<path id="XMLID_1172_" style="fill:#FFB954;" d="M178.379,299.948c0-31.137-25.242-56.379-56.379-56.379   s-56.379,25.242-56.379,56.379"/>
	<g id="XMLID_2189_">
		<path id="XMLID_2079_" style="fill:#4DBAF6;" d="M433.076,270.803H312.924h0c-9.905,0-17.935,8.03-17.935,17.935v40.353h156.022    v-40.353C451.011,278.833,442.981,270.803,433.076,270.803L433.076,270.803z"/>
		<path id="XMLID_2078_" style="fill:#C9F3FF;" d="M433.076,270.803l-9.798-39.894c-2.102-8.559-9.776-14.576-18.589-14.576h-63.377    c-8.813,0-16.487,6.017-18.589,14.576l-9.798,39.894H433.076z"/>
	</g>
	<circle id="XMLID_1171_" style="fill:#FFFFFF;" cx="122" cy="218.784" r="24.784"/>
	<g id="XMLID_1233_">
		<path id="XMLID_1397_" d="M462,54h-63.447c-5.522,0-10,4.477-10,10s4.478,10,10,10H462c16.542,0,30,13.458,30,30v6H20v-6    c0-16.542,13.458-30,30-30h268.553c5.522,0,10-4.477,10-10s-4.478-10-10-10H50C22.43,54,0,76.43,0,104v304c0,27.57,22.43,50,50,50    h412c27.57,0,50-22.43,50-50V104C512,76.43,489.57,54,462,54z M462,438H50c-16.542,0-30-13.458-30-30v-6h199.661    c5.522,0,10-4.477,10-10s-4.478-10-10-10H20V130h472v252H299.661c-5.522,0-10,4.477-10,10s4.478,10,10,10H492v6    C492,424.542,478.542,438,462,438z"/>
		<path id="XMLID_1437_" d="M358.55,74c2.63,0,5.21-1.07,7.07-2.93c1.859-1.86,2.93-4.44,2.93-7.07c0-2.63-1.07-5.21-2.93-7.07    c-1.86-1.86-4.431-2.93-7.07-2.93c-2.63,0-5.21,1.07-7.07,2.93c-1.859,1.86-2.93,4.44-2.93,7.07c0,2.63,1.07,5.21,2.93,7.07    C353.34,72.93,355.92,74,358.55,74z"/>
		<path id="XMLID_1451_" d="M259.66,382c-2.63,0-5.21,1.07-7.07,2.93c-1.86,1.86-2.93,4.44-2.93,7.07c0,2.63,1.069,5.21,2.93,7.07    s4.44,2.93,7.07,2.93s5.21-1.07,7.069-2.93c1.86-1.86,2.931-4.44,2.931-7.07c0-2.63-1.07-5.21-2.931-7.07    C264.87,383.07,262.29,382,259.66,382z"/>
		<path id="XMLID_1682_" d="M174.25,150H69.75C53.346,150,40,163.346,40,179.75v104.5C40,300.654,53.346,314,69.75,314h104.5    c16.404,0,29.75-13.346,29.75-29.75v-104.5C204,163.346,190.654,150,174.25,150z M69.75,170h104.5c5.376,0,9.75,4.374,9.75,9.75    v96.526c-6.203-16.191-18.568-29.346-34.216-36.59c4.392-5.823,7-13.063,7-20.901C156.784,199.604,141.18,184,122,184    s-34.784,15.604-34.784,34.784c0,7.839,2.609,15.078,7,20.901C78.568,246.93,66.203,260.084,60,276.276V179.75    C60,174.374,64.374,170,69.75,170z M107.216,218.784c0-8.152,6.632-14.784,14.784-14.784s14.784,6.632,14.784,14.784    s-6.632,14.784-14.784,14.784S107.216,226.936,107.216,218.784z M122,253.568c23.557,0,43.054,17.659,45.984,40.432H76.016    C78.946,271.227,98.443,253.568,122,253.568z"/>
		<path id="XMLID_1814_" d="M313.553,339.092V344c0,5.523,4.478,10,10,10s10-4.477,10-10v-4.908h78.895V344c0,5.523,4.478,10,10,10    s10-4.477,10-10v-4.908h18.563c5.522,0,10-4.477,10-10v-40.353c0-8.665-3.966-16.422-10.178-21.55l2.577-2.577    c3.905-3.905,3.905-10.237,0-14.143c-3.906-3.905-10.236-3.905-14.143,0l-0.713,0.713l-5.565-22.658    c-3.209-13.065-14.847-22.191-28.301-22.191h-63.377c-13.454,0-25.092,9.125-28.3,22.19l-5.565,22.659l-0.714-0.714    c-3.906-3.905-10.236-3.905-14.143,0c-3.905,3.905-3.905,10.237,0,14.143l2.577,2.577c-6.212,5.128-10.178,12.884-10.178,21.55    v40.353c0,5.523,4.478,10,10,10H313.553z M441.011,319.092H304.989v-30.353c0-4.375,3.56-7.936,7.935-7.936H433.01    c0.019,0,0.038,0.002,0.058,0.002c0.009,0,0.017-0.002,0.026-0.002c4.367,0.01,7.917,3.565,7.917,7.935V319.092z M341.312,226.333    h63.377c4.221,0,7.871,2.862,8.878,6.961l6.757,27.509h-94.646l6.757-27.509C333.44,229.196,337.091,226.333,341.312,226.333z"/>
		<path id="XMLID_2674_" d="M326.39,289.95c-2.64,0-5.22,1.07-7.08,2.93c-1.859,1.86-2.92,4.44-2.92,7.07    c0,2.63,1.061,5.21,2.92,7.07c1.86,1.86,4.44,2.93,7.08,2.93c2.63,0,5.21-1.07,7.07-2.93c1.859-1.86,2.92-4.44,2.92-7.07    c0-2.64-1.061-5.21-2.92-7.07C331.6,291.02,329.02,289.95,326.39,289.95z"/>
		<path id="XMLID_2675_" d="M419.609,289.95c-2.63,0-5.21,1.07-7.069,2.93c-1.86,1.86-2.931,4.44-2.931,7.07    c0,2.63,1.07,5.21,2.931,7.07c1.859,1.86,4.439,2.93,7.069,2.93c2.641,0,5.21-1.07,7.08-2.93c1.86-1.86,2.92-4.44,2.92-7.07    c0-2.63-1.06-5.21-2.92-7.07C424.819,291.02,422.25,289.95,419.609,289.95z"/>
		<path id="XMLID_2676_" d="M234,178h72.293c5.522,0,10-4.477,10-10s-4.478-10-10-10H234c-5.522,0-10,4.477-10,10    S228.478,178,234,178z"/>
		<path id="XMLID_2677_" d="M234,224h25c5.522,0,10-4.477,10-10s-4.478-10-10-10h-25c-5.522,0-10,4.477-10,10S228.478,224,234,224z"/>
		<path id="XMLID_2678_" d="M269,260c0-5.523-4.478-10-10-10h-25c-5.522,0-10,4.477-10,10s4.478,10,10,10h25    C264.522,270,269,265.523,269,260z"/>
		<path id="XMLID_2679_" d="M346.386,178h72.293c5.522,0,10-4.477,10-10s-4.478-10-10-10h-72.293c-5.522,0-10,4.477-10,10    S340.863,178,346.386,178z"/>
		<path id="XMLID_2680_" d="M96.882,334.333H50c-5.522,0-10,4.477-10,10s4.478,10,10,10h46.882c5.522,0,10-4.477,10-10    S102.404,334.333,96.882,334.333z"/>
		<path id="XMLID_2681_" d="M194,334.333h-47c-5.522,0-10,4.477-10,10s4.478,10,10,10h47c5.522,0,10-4.477,10-10    S199.522,334.333,194,334.333z"/>
	</g>
</g>















</svg>
