<?xml version="1.0" encoding="iso-8859-1"?>
<!-- Generator: Adobe Illustrator 19.0.0, SVG Export Plug-In . SVG Version: 6.00 Build 0)  -->
<svg xmlns="http://www.w3.org/2000/svg" xmlns:xlink="http://www.w3.org/1999/xlink" version="1.1" id="Layer_1" x="0px" y="0px" viewBox="0 0 511.986 511.986" style="enable-background:new 0 0 511.986 511.986;" xml:space="preserve" width="512" height="512">
<g id="XMLID_1641_">
	<rect id="XMLID_1258_" x="231.993" y="399.486" style="fill:#4DBAF6;" width="48" height="102.5"/>
	<path id="XMLID_1262_" style="fill:#FFB954;" d="M241.851,15.843L60.468,197.226c-7.81,7.81-7.81,20.474,0,28.284l181.382,181.382   c7.81,7.81,20.474,7.81,28.284,0L451.517,225.51c7.81-7.81,7.81-20.474,0-28.284L270.135,15.843   C262.324,8.033,249.661,8.033,241.851,15.843z"/>
	<path id="XMLID_1261_" style="fill:#FFFFFF;" d="M252.452,63.074L107.699,207.828c-1.955,1.955-1.955,5.126,0,7.081   l144.753,144.753c1.955,1.955,5.126,1.955,7.081,0l144.753-144.753c1.955-1.955,1.955-5.126,0-7.081L259.533,63.074   C257.578,61.119,254.408,61.119,252.452,63.074z"/>
	<g id="XMLID_114_">
		<path id="XMLID_115_" d="M458.589,190.155L277.207,8.772c-11.697-11.696-30.73-11.696-42.428,0L53.397,190.155    c-11.696,11.697-11.696,30.729,0,42.427l168.596,168.596v100.808c0,5.523,4.478,10,10,10s10-4.477,10-10v-82.7    c4.365,2.3,9.182,3.451,14,3.451s9.635-1.151,14-3.451v82.7c0,5.523,4.478,10,10,10s10-4.477,10-10V401.177l46.223-46.223    c3.905-3.905,3.905-10.237,0-14.143c-3.906-3.905-10.236-3.905-14.143,0l-59.009,59.009c-3.898,3.898-10.244,3.898-14.143,0    L67.54,218.439c-1.889-1.889-2.929-4.4-2.929-7.071s1.04-5.182,2.929-7.071L248.922,22.914c3.898-3.898,10.244-3.898,14.143,0    l181.382,181.383c1.889,1.889,2.929,4.4,2.929,7.071s-1.04,5.182-2.929,7.071l-65.805,65.805c-3.905,3.905-3.905,10.237,0,14.143    c3.906,3.905,10.236,3.905,14.143,0l65.805-65.805C470.285,220.884,470.285,201.852,458.589,190.155z"/>
		<path id="XMLID_140_" d="M356.842,310.185c-2.63,0-5.21,1.06-7.07,2.92c-1.859,1.86-2.92,4.44-2.92,7.08    c0,2.63,1.061,5.21,2.92,7.07c1.86,1.86,4.44,2.93,7.07,2.93c2.641,0,5.21-1.07,7.07-2.93c1.87-1.86,2.93-4.44,2.93-7.07    c0-2.64-1.06-5.21-2.93-7.08C362.052,311.245,359.483,310.185,356.842,310.185z"/>
		<path id="XMLID_141_" d="M155.464,160.063c-3.904-3.905-10.234-3.905-14.143,0l-40.695,40.695    c-5.849,5.851-5.849,15.371,0.001,21.223L245.38,366.732c2.835,2.835,6.604,4.396,10.612,4.396s7.777-1.562,10.611-4.396    l144.755-144.754c5.849-5.851,5.849-15.371-0.001-21.223L266.605,56.004c-2.835-2.835-6.604-4.396-10.612-4.396    s-7.777,1.562-10.611,4.396l-47.491,47.49c-3.905,3.905-3.905,10.237,0,14.142c3.906,3.906,10.236,3.906,14.143,0l43.96-43.959    l137.692,137.691L255.993,349.059L118.3,211.368l37.164-37.163C159.37,170.3,159.37,163.968,155.464,160.063z"/>
		<path id="XMLID_812_" d="M184.653,145.015c1.859-1.86,2.93-4.44,2.93-7.07s-1.07-5.21-2.93-7.07c-1.86-1.86-4.44-2.93-7.07-2.93    s-5.21,1.07-7.07,2.93c-1.859,1.86-2.93,4.44-2.93,7.07s1.07,5.21,2.93,7.07c1.86,1.86,4.44,2.93,7.07,2.93    S182.793,146.875,184.653,145.015z"/>
		<path id="XMLID_825_" d="M270.83,171.981c1.953,1.952,4.512,2.929,7.071,2.929s5.118-0.977,7.071-2.929    c3.905-3.905,3.905-10.237,0-14.143l-22.033-22.033c-3.906-3.904-10.236-3.904-14.143,0l-22.033,22.033    c-3.905,3.905-3.905,10.237,0,14.143c3.906,3.904,10.236,3.904,14.143,0l4.962-4.962v79.169v17.572v16.1c0,5.523,4.478,10,10,10    s10-4.477,10-10v-16.1v-17.572c0-18.107,14.731-32.838,32.838-32.838h4.653l-4.962,4.962c-3.905,3.905-3.905,10.237,0,14.143    c1.953,1.953,4.512,2.929,7.071,2.929s5.118-0.976,7.071-2.929l22.033-22.033c3.905-3.905,3.905-10.237,0-14.143l-22.033-22.033    c-3.906-3.905-10.236-3.905-14.143,0c-3.905,3.905-3.905,10.237,0,14.143l4.962,4.962h-4.653    c-12.403,0-23.813,4.307-32.838,11.489v-37.82L270.83,171.981z"/>
	</g>
</g>















</svg>
