<?xml version="1.0" encoding="iso-8859-1"?>
<!-- Generator: Adobe Illustrator 19.0.0, SVG Export Plug-In . SVG Version: 6.00 Build 0)  -->
<svg xmlns="http://www.w3.org/2000/svg" xmlns:xlink="http://www.w3.org/1999/xlink" version="1.1" id="Layer_1" x="0px" y="0px" viewBox="0 0 512 512" style="enable-background:new 0 0 512 512;" xml:space="preserve" width="512" height="512">
<g id="XMLID_1764_">
	<path id="XMLID_885_" style="fill:#FF5D5D;" d="M413.833,448H98.167C82.058,448,69,461.058,69,477.167V502h374v-24.833   C443,461.058,429.942,448,413.833,448z"/>
	<path id="XMLID_884_" style="fill:#FF5D5D;" d="M276.885,10h-41.77c-4.816,0-9.003,3.304-10.124,7.988L122.135,448h267.731   L287.008,17.988C285.888,13.304,281.701,10,276.885,10z"/>
	<polygon id="XMLID_1506_" style="fill:#FFFFFF;" points="369,384 143,384 167,272 345,272  "/>
	<polygon id="XMLID_1505_" style="fill:#FFFFFF;" points="328,200 184,200 209,88 303,88  "/>
	<g id="XMLID_57_">
		<path id="XMLID_974_" d="M413.833,438h-16.078L296.734,15.662C294.529,6.44,286.367,0,276.885,0h-41.77    c-9.482,0-17.644,6.44-19.849,15.662L114.245,438H98.167C76.57,438,59,455.57,59,477.167V502c0,5.523,4.477,10,10,10h374    c5.523,0,10-4.477,10-10v-24.833C453,455.57,435.43,438,413.833,438z M216.135,98h79.73l22.006,92H194.129L216.135,98z     M234.717,20.313c0.044-0.185,0.208-0.313,0.398-0.313h41.77c0.19,0,0.354,0.129,0.398,0.314L291.081,78h-70.162L234.717,20.313z     M172.123,282H265c5.523,0,10-4.477,10-10s-4.477-10-10-10h-88.093l12.438-52h133.31l39.228,164H223.667c-5.523,0-10,4.477-10,10    s4.477,10,10,10h143l10.525,44H134.809L172.123,282z M433,492H79v-14.833C79,466.598,87.598,458,98.167,458h23.968h267.73h23.968    c10.568,0,19.167,8.598,19.167,19.167V492z"/>
		<path id="XMLID_979_" d="M305,282c2.63,0,5.21-1.07,7.07-2.93S315,274.63,315,272c0-2.63-1.07-5.21-2.93-7.07    c-1.86-1.86-4.44-2.93-7.07-2.93c-2.63,0-5.21,1.07-7.07,2.93c-1.86,1.86-2.93,4.44-2.93,7.07c0,2.63,1.07,5.21,2.93,7.07    C299.79,280.93,302.37,282,305,282z"/>
		<path id="XMLID_1026_" d="M183.67,374c-2.64,0-5.21,1.07-7.07,2.93c-1.87,1.86-2.93,4.44-2.93,7.07c0,2.63,1.06,5.21,2.93,7.07    c1.86,1.86,4.43,2.93,7.07,2.93c2.63,0,5.21-1.07,7.07-2.93s2.93-4.44,2.93-7.07c0-2.63-1.07-5.21-2.93-7.07    C188.88,375.07,186.3,374,183.67,374z"/>
	</g>
</g>















</svg>
