<?xml version="1.0" encoding="UTF-8"?>
<svg width="24px" height="14px" viewBox="0 0 24 14" version="1.1" xmlns="http://www.w3.org/2000/svg" xmlns:xlink="http://www.w3.org/1999/xlink">
    <!-- Generator: Sketch 46 (44423) - http://www.bohemiancoding.com/sketch -->
    <title>money-bill</title>
    <desc>Created with Sketch.</desc>
    <defs></defs>
    <g id="icons" stroke="none" stroke-width="1" fill="none" fill-rule="evenodd">
        <g id="Artboard" transform="translate(-13.000000, -105.000000)" fill-rule="nonzero" fill="#FFFFFF">
            <path d="M36,115 L33,115 L33,118 L32,119 L32,114 L37,114 L36,115 Z M25,116 C22.790861,116 21,114.209139 21,112 C21,109.790861 22.790861,108 25,108 C27.209139,108 29,109.790861 29,112 C29,114.209139 27.209139,116 25,116 Z M25,115 C26.6568542,115 28,113.656854 28,112 C28,110.343146 26.6568542,109 25,109 C23.3431458,109 22,110.343146 22,112 C22,113.656854 23.3431458,115 25,115 Z M14,109.5 L14,108.5 C15.3807119,108.5 16.5,107.380712 16.5,106 L17.5,106 C17.5,107.932997 15.9329966,109.5 14,109.5 Z M14,115 C15.9329966,115 17.5,116.567003 17.5,118.5 L16.5,118.5 C16.5,117.119288 15.3807119,116 14,116 L14,115 Z M33,106 L34,106 C34,107.380712 35.1192881,108.5 36.5,108.5 L36.5,109.5 C34.5670034,109.5 33,107.932997 33,106 Z M13,105 L37,105 L37,115 L33,119 L13,119 L13,105 Z M14,106 L14,118 L32.5857864,118 L36,114.585786 L36,106 L14,106 Z" id="money-bill"></path>
        </g>
    </g>
</svg>