<svg width="18" height="13" viewBox="0 0 18 13" fill="none" xmlns="http://www.w3.org/2000/svg">
<path d="M7.2 7C7.08954 7 7 7.08954 7 7.2V8.8C7 8.91046 7.08954 9 7.2 9H10.8C10.9105 9 11 8.91046 11 8.8V7.2C11 7.08954 10.9105 7 10.8 7H7.2Z" fill="white"/>
<path fill-rule="evenodd" clip-rule="evenodd" d="M4 12.5C4 12.4613 4.0044 12.4236 4.01271 12.3875L7.5 12H10.5L13.9873 12.3875C13.9956 12.4236 14 12.4613 14 12.5C14 12.7761 14.2239 13 14.5 13H17C17.5523 13 18 12.5523 18 12V6.7082C18 6.24247 17.8916 5.78313 17.6833 5.36656L15.8292 1.65836C15.321 0.642007 14.2822 0 13.1459 0H4.8541C3.71779 0 2.679 0.642007 2.17082 1.65836L0.316718 5.36656C0.108435 5.78313 0 6.24247 0 6.7082V12C0 12.5523 0.447715 13 1 13H3.5C3.77614 13 4 12.7761 4 12.5ZM14.1292 1.25842L15.5 4V5H11L12 6L17 6.90909V10L15 11H3L1 10V6.90909L6 6L7 5H2.5V4L3.87079 1.25842C4.16537 1.09207 4.50274 1 4.8541 1H13.1459C13.4973 1 13.8346 1.09207 14.1292 1.25842Z" fill="white"/>
</svg>
