<?xml version="1.0" encoding="UTF-8"?>
<svg width="21px" height="19px" viewBox="0 0 21 19" version="1.1" xmlns="http://www.w3.org/2000/svg" xmlns:xlink="http://www.w3.org/1999/xlink">
    <!-- Generator: Sketch 46 (44423) - http://www.bohemiancoding.com/sketch -->
    <title>attention</title>
    <desc>Created with Sketch.</desc>
    <defs></defs>
    <g id="icons" stroke="none" stroke-width="1" fill="none" fill-rule="evenodd">
        <g id="Artboard" transform="translate(-933.000000, -202.000000)" fill-rule="nonzero" fill="#FFFFFF">
            <path d="M942.452255,203.995242 L934.801938,217.965387 C934.105241,219.237616 934.555899,220 936.006294,220 L950.993706,220 C952.451013,220 952.897893,219.243338 952.198062,217.965387 L944.547745,203.995242 C943.865601,202.749588 943.134738,202.748968 942.452255,203.995242 Z M941.575159,203.514928 C942.638219,201.573687 944.364369,201.578413 945.424841,203.514928 L953.075159,217.485072 C954.138219,219.426313 953.214367,221 950.993706,221 L936.006294,221 C933.793679,221 932.864369,219.421587 933.924841,217.485072 L941.575159,203.514928 Z M943,209 L943,216 L944,216 L944,209 L943,209 Z M943,217 L943,218 L944,218 L944,217 L943,217 Z" id="attention"></path>
        </g>
    </g>
</svg>