<?xml version="1.0" encoding="UTF-8"?>
<svg width="47px" height="19px" viewBox="0 0 47 19" version="1.1" xmlns="http://www.w3.org/2000/svg" xmlns:xlink="http://www.w3.org/1999/xlink">
    <!-- Generator: Sketch 47.1 (45422) - http://www.bohemiancoding.com/sketch -->
    <title>sedan</title>
    <desc>Created with Sketch.</desc>
    <defs></defs>
    <g id="Stage" stroke="none" stroke-width="1" fill="none" fill-rule="evenodd">
        <g id="Artboard" transform="translate(-529.000000, -114.000000)" fill-rule="nonzero" fill="#FFFFFF">
            <path d="M546,130 L558,130 C558.552285,130 559,129.552285 559,129 C559,128.447715 558.552285,128 558,128 L546,128 C545.447715,128 545,128.447715 545,129 C545,129.552285 545.447715,130 546,130 Z M560.140874,119 L554.967391,116.125843 C554.818833,116.043311 554.651692,116 554.481748,116 L552,116 L552,119 L560.140874,119 Z M563.947133,120.999768 C563.939902,120.999922 563.932652,121 563.925384,121 L541.574501,121 L537.575555,120.000263 C537.48506,120.034058 537.392785,120.063536 537.299027,120.088538 L531.742337,121.570322 C531.493323,121.636725 531.287401,121.793641 531.156122,122 L531.925148,122 C532.477432,122 532.925148,122.447715 532.925148,123 C532.925148,123.552285 532.477432,124 531.925148,124 L531,124 L531,127 C531,127.552285 531.447715,128 532,128 L533,128 C533.552285,128 534,128.447715 534,129 C534,129.552285 533.552285,130 533,130 L532,130 C530.343146,130 529,128.656854 529,127 L529,122.536557 C529,121.177405 529.913752,119.988055 531.227012,119.637852 L536.783702,118.156068 C536.934486,118.115859 537.073767,118.040918 537.190403,117.937242 L540.767307,114.757772 C541.316461,114.269636 542.025656,114 542.760399,114 L554.481748,114 C554.991581,114 555.493003,114.129932 555.938677,114.377528 L564.196999,118.965485 C564.292567,119.018578 564.396194,119.055641 564.503756,119.075198 L573.007227,120.621283 C573.104105,120.638897 573.200057,120.66127 573.294734,120.688321 C574.887839,121.143494 575.810315,122.803951 575.355142,124.397056 L574.375969,127.824163 C574.007996,129.112068 572.830838,130 571.491397,130 L571,130 C570.447715,130 570,129.552285 570,129 C570,128.447715 570.447715,128 571,128 L571.491397,128 C571.937878,128 572.330264,127.704023 572.452921,127.274721 L573.388556,124 L571.69737,124 C571.145085,124 570.69737,123.552285 570.69737,123 C570.69737,122.721467 570.811245,122.469531 570.994979,122.288209 L564.145985,121.042937 C564.079158,121.030787 564.012837,121.016384 563.947133,120.999768 Z M539.623239,118.450632 L541.820712,119 L550,119 L550,116 L542.760399,116 C542.515484,116 542.279086,116.089879 542.096035,116.252591 L539.623239,118.450632 Z M564.5,133 C562.014719,133 560,130.985281 560,128.5 C560,126.014719 562.014719,124 564.5,124 C566.985281,124 569,126.014719 569,128.5 C569,130.985281 566.985281,133 564.5,133 Z M564.5,131 C565.880712,131 567,129.880712 567,128.5 C567,127.119288 565.880712,126 564.5,126 C563.119288,126 562,127.119288 562,128.5 C562,129.880712 563.119288,131 564.5,131 Z M539.5,133 C537.014719,133 535,130.985281 535,128.5 C535,126.014719 537.014719,124 539.5,124 C541.985281,124 544,126.014719 544,128.5 C544,130.985281 541.985281,133 539.5,133 Z M539.5,131 C540.880712,131 542,129.880712 542,128.5 C542,127.119288 540.880712,126 539.5,126 C538.119288,126 537,127.119288 537,128.5 C537,129.880712 538.119288,131 539.5,131 Z" id="sedan"></path>
        </g>
    </g>
</svg>